<svg xmlns="http://www.w3.org/2000/svg" xmlns:svgjs="http://svgjs.com/svgjs" xmlns:xlink="http://www.w3.org/1999/xlink" width="288" height="288"><svg xmlns="http://www.w3.org/2000/svg" width="288" height="288" viewBox="0 0 73 44.954"><g class="color000 svgShape" transform="translate(-1106.038 -658.753)"><path fill="#ffaa17" d="M1172.307,674.174a1.42,1.42,0,0,0-.189-.3c-.022-.027-.049-.047-.074-.071a36.453,36.453,0,0,0-59.882,1.242c-.029.036-.062.069-.089.108a1.367,1.367,0,0,0-.1.186,36.286,36.286,0,0,0-5.936,19.919,35.549,35.549,0,0,0,.568,6.382,1.453,1.453,0,0,0,1.429,1.191h13.208c.02,0,.038-.005.058-.006.046,0,.091-.008.138-.014a1.327,1.327,0,0,0,.152-.027c.017,0,.034,0,.051-.009s.052-.022.078-.031a1.227,1.227,0,0,0,.142-.056c.043-.02.084-.043.124-.067s.077-.048.114-.075a1.428,1.428,0,0,0,.114-.094c.033-.03.064-.06.094-.092s.062-.073.091-.111a1.34,1.34,0,0,0,.077-.113,1.266,1.266,0,0,0,.067-.122c.02-.042.039-.084.056-.128s.03-.091.043-.138.021-.086.029-.131a1.435,1.435,0,0,0,.016-.158c0-.026.008-.052.008-.079s0-.034,0-.051a2.1,2.1,0,0,0-.042-.3c0-.017,0-.034-.009-.051a20.7,20.7,0,1,1,39.8,0c-.005.017-.005.035-.009.052a1.388,1.388,0,0,0-.026.144,1.354,1.354,0,0,0-.015.152c0,.017-.005.034-.005.051s.006.052.008.079a1.435,1.435,0,0,0,.016.158c.008.045.018.088.029.131a1.345,1.345,0,0,0,.043.139,1.373,1.373,0,0,0,.056.127,1.282,1.282,0,0,0,.067.124c.024.039.049.076.076.112s.059.076.092.111.061.062.094.092a1.451,1.451,0,0,0,.114.094c.037.027.075.051.114.075a1.389,1.389,0,0,0,.124.067,1.405,1.405,0,0,0,.141.056c.026.009.051.023.078.031s.026,0,.04,0a1.412,1.412,0,0,0,.359.051h13.208a1.453,1.453,0,0,0,1.429-1.191,35.549,35.549,0,0,0,.568-6.382A36.3,36.3,0,0,0,1172.307,674.174Zm-53.375,21.086a23.665,23.665,0,0,0,.473,4.668h-10.135a33.05,33.05,0,0,1-.327-4.668,33.39,33.39,0,0,1,4.779-17.249l8.313,5.578A23.435,23.435,0,0,0,1118.932,695.26Zm4.691-14.1-8.3-5.567a33.577,33.577,0,0,1,25.762-13.9v10.014A23.6,23.6,0,0,0,1123.622,681.158Zm20.37-9.449V661.695A33.545,33.545,0,0,1,1169,674.6l-7.647,6.434A23.581,23.581,0,0,0,1143.992,671.709Zm31.814,28.219h-10.134a23.705,23.705,0,0,0,.471-4.668,23.445,23.445,0,0,0-3.17-11.791l7.725-6.5a33.406,33.406,0,0,1,5.435,18.291A32.959,32.959,0,0,1,1175.806,699.928Z" class="color85985a svgShape"/><path fill="#ffaa17" d="M1156.333,703.06l-8.486-7.584a1.452,1.452,0,0,0-2.347,1.537l3.467,10.548a5.654,5.654,0,1,0,10.592-1.765A5.6,5.6,0,0,0,1156.333,703.06Zm.846,6.184a2.805,2.805,0,0,1-3.435,1.818,2.742,2.742,0,0,1-1.888-3.176,1.451,1.451,0,0,0-.011-.871l-1.895-5.763,4.7,4.2a1.454,1.454,0,0,0,.789.359c-.038-.006-.069-.006-.066-.008a2.751,2.751,0,0,1,1.806,3.442Z" class="color85985a svgShape" transform="translate(-11.249 -10.383)"/></g></svg></svg>