<svg xmlns="http://www.w3.org/2000/svg" xmlns:svgjs="http://svgjs.com/svgjs" xmlns:xlink="http://www.w3.org/1999/xlink" width="288" height="288"><svg xmlns="http://www.w3.org/2000/svg" width="288" height="288" viewBox="0 0 76.5 59.448"><g class="color000 svgShape" transform="translate(-1128.979 -912.76)"><path fill="#ffaa17" d="M1190.508,953.7a26.8,26.8,0,1,0-8.615,8.626l8.787,8.786a3.734,3.734,0,0,0,5.282,0l3.338-3.337a3.753,3.753,0,0,0-.005-5.287Zm-39.814,2.926a24.129,24.129,0,1,1,37.018-3.491l-.009.01c-.323.477-.679.929-1.036,1.379-.321.405-.66.794-1.007,1.179-.28.311-.551.634-.847.927-.555.555-1.136,1.078-1.739,1.576-.563.463-1.143.9-1.744,1.312a24.136,24.136,0,0,1-30.637-2.892Zm46.709,9.26-3.334,3.333a1.083,1.083,0,0,1-1.5,0l-8.432-8.431c.083-.064.161-.136.242-.2.3-.24.6-.484.89-.737.1-.084.2-.167.291-.253.392-.348.776-.7,1.145-1.073s.7-.729,1.04-1.105c.109-.122.214-.246.321-.369q.365-.424.711-.862c.063-.079.131-.153.193-.234l8.429,8.429A1.07,1.07,0,0,1,1197.4,965.887Z" class="color85985a svgShape" transform="translate(2.812)"/><path fill="#ffaa17" d="M1182.767,924.3l10.141-8.929a1.338,1.338,0,1,0-1.768-2.009L1181,922.289a1.339,1.339,0,1,0,1.77,2.009Z" class="color85985a svgShape" transform="translate(12.117 .062)"/><path fill="#ffaa17" d="M1144.231,933.1a1.338,1.338,0,0,0,.225,1.88l9.691,7.626a1.34,1.34,0,0,0,1.755-.085l17.938-17.191,6.589,3.53a1.339,1.339,0,0,0,1.5-.162l2.786-2.375a1.339,1.339,0,1,0-1.736-2.038l-2.092,1.782-6.64-3.556a1.341,1.341,0,0,0-1.558.214l-17.8,17.058-8.777-6.907A1.339,1.339,0,0,0,1144.231,933.1Z" class="color85985a svgShape" transform="translate(3.517 2.255)"/><path fill="#ffaa17" d="M1190.547,920.673a1.332,1.332,0,0,0-.863.316l-6.186,5.23a1.338,1.338,0,1,0,1.729,2.044l6.186-5.23a1.339,1.339,0,0,0-.866-2.36Z" class="color85985a svgShape" transform="translate(12.7 1.859)"/><path fill="#ffaa17" d="M1173.855,932.02a1.336,1.336,0,0,0-1.565.219l-17.79,17.271-6.721-5.334a1.339,1.339,0,1,0-1.665,2.1l7.642,6.064a1.336,1.336,0,0,0,1.765-.088l17.932-17.407,6.582,3.525c.015.008.03.011.044.017a1.109,1.109,0,0,0,.125.052,1.33,1.33,0,0,0,.378.084c.04,0,.077,0,.116,0a1.32,1.32,0,0,0,.393-.065c.033-.011.064-.026.1-.039a1.345,1.345,0,0,0,.367-.231c.01-.009.022-.011.032-.021l6.589-6.265a1.338,1.338,0,0,0-1.844-1.94l-5.882,5.594Z" class="color85985a svgShape" transform="translate(3.908 3.954)"/><path fill="#ffaa17" d="M1129.232,923.883a1.131,1.131,0,0,0-.077.111,1.155,1.155,0,0,0-.053.111c-.018.041-.038.08-.053.123s-.021.08-.031.121-.022.089-.028.136a.989.989,0,0,0-.006.122c0,.042-.007.084-.005.127l.806,14.255a1.339,1.339,0,0,0,2.674-.151l-.348-6.16,7.727,5.925a1.339,1.339,0,0,0,1.63-2.124l-9.557-7.33-.185-3.273,2.989-.262a1.311,1.311,0,0,0,.269.3l5.9,4.677a1.338,1.338,0,1,0,1.662-2.1l-4.047-3.209,4.126-.362a1.338,1.338,0,0,0-.115-2.671c-.04,0-.078,0-.119.005l-12.192,1.067c-.033,0-.064.014-.1.019a1.261,1.261,0,0,0-.153.03,1.1,1.1,0,0,0-.106.04,1.31,1.31,0,0,0-.138.056c-.035.018-.065.041-.1.062s-.081.05-.118.078-.059.054-.089.082-.067.062-.1.1A1.146,1.146,0,0,0,1129.232,923.883Z" class="color85985a svgShape" transform="translate(0 2.231)"/></g></svg></svg>