<svg xmlns="http://www.w3.org/2000/svg" xmlns:svgjs="http://svgjs.com/svgjs" xmlns:xlink="http://www.w3.org/1999/xlink" width="288" height="288"><svg xmlns="http://www.w3.org/2000/svg" width="288" height="288" viewBox="0 0 63.258 62.922"><g class="color000 svgShape" transform="translate(0 -1)"><path fill="#ffaa17" d="M272,225h11.861v1.977H272Z" class="color556c26 svgShape" transform="translate(-238.394 -196.324)"/><path fill="#ffaa17" d="M272,265h7.907v1.977H272Z" class="color556c26 svgShape" transform="translate(-238.394 -231.383)"/><path fill="#ffaa17" d="M272,353h11.861v1.977H272Z" class="color556c26 svgShape" transform="translate(-238.394 -308.51)"/><path fill="#ffaa17" d="M272,393h7.907v1.977H272Z" class="color556c26 svgShape" transform="translate(-238.394 -343.568)"/><path fill="#ffaa17" d="M160,33h39.536v1.977H160Z" class="color556c26 svgShape" transform="translate(-140.232 -28.047)"/><path fill="#ffaa17" d="M32,33h1.977v1.977H32Z" class="color556c26 svgShape" transform="translate(-28.046 -28.047)"/><path fill="#ffaa17" d="M64,33h1.977v1.977H64Z" class="color556c26 svgShape" transform="translate(-56.093 -28.047)"/><path fill="#ffaa17" d="M96,33h1.977v1.977H96Z" class="color556c26 svgShape" transform="translate(-84.139 -28.047)"/><path fill="#ffaa17" d="M175.034,240.923l-2.241-2.241,1.4-1.4.843.844,2.1-2.1,1.4,1.4Z" class="color556c26 svgShape" transform="translate(-151.444 -205.992)"/><path fill="#ffaa17" d="M175.034,369.267l-2.241-2.241,1.4-1.4.843.844,2.1-2.1,1.4,1.4Z" class="color556c26 svgShape" transform="translate(-151.444 -318.48)"/><path fill="#ffaa17" d="M0,1V54.374H13.838v6.99l4.349,2.558,3.36-1.977,3.361,1.977,3.36-1.977,3.36,1.977,3.36-1.977,3.36,1.977,3.361-1.977,3.36,1.977,4.349-2.558v-6.99H63.258V1ZM47.443,60.233l-2.372,1.4-3.36-1.977L38.35,61.629l-3.36-1.977-3.36,1.977-3.36-1.977-3.36,1.977-3.361-1.977-3.36,1.977-2.372-1.4V16.814H39.536v7.907h7.907Zm-5.93-37.488V18.212l4.533,4.533ZM61.281,52.4H49.42V23.324l-8.486-8.486h-27.1V52.4H1.977V10.884h59.3Zm0-43.49H1.977V2.977h59.3Z" class="color556c26 svgShape"/><path fill="#ffaa17" d="M150.425,201a6.425,6.425,0,1,0,6.425,6.425A6.425,6.425,0,0,0,150.425,201Zm0,10.872a4.448,4.448,0,1,1,4.448-4.448A4.448,4.448,0,0,1,150.425,211.872Z" class="color556c26 svgShape" transform="translate(-126.209 -175.289)"/><path fill="#ffaa17" d="M150.425,329a6.425,6.425,0,1,0,6.425,6.425A6.425,6.425,0,0,0,150.425,329Zm0,10.872a4.448,4.448,0,1,1,4.448-4.448A4.448,4.448,0,0,1,150.425,339.872Z" class="color556c26 svgShape" transform="translate(-126.209 -287.477)"/></g></svg></svg>