<svg xmlns="http://www.w3.org/2000/svg" xmlns:svgjs="http://svgjs.com/svgjs" xmlns:xlink="http://www.w3.org/1999/xlink" width="288" height="288"><svg xmlns="http://www.w3.org/2000/svg" width="288" height="288" viewBox="0 0 494.977 394.538"><defs><linearGradient id="a" x1=".5" x2=".499" y1="-5.159" y2="12.451" gradientUnits="objectBoundingBox"><stop class="stopColorfff svgShape" offset="0" stop-color="#fff"/><stop class="stopColor000000 svgShape" offset="1"/></linearGradient></defs><g class="color000 svgShape" transform="translate(1108.559 -1193.797)"><g class="color000 svgShape" transform="translate(-1018.223 1459.426)"><path fill="#64471c" d="M-827.619,1727.436l-62.463,35.352a7.357,7.357,0,0,1-9.6-2.106l-37.691-52.4a7.357,7.357,0,0,1,2.349-10.7l74.634-42.241a7.357,7.357,0,0,1,10.382,3.494l25.52,59.287A7.357,7.357,0,0,1-827.619,1727.436Z" class="color64471c svgShape" transform="translate(949.127 -1646.849)"/><rect width="119.21" height="21.189" fill="#806137" class="color806137 svgShape" rx="8.889" transform="rotate(-29.509 111.478 29.359)"/></g><g class="color000 svgShape" transform="translate(-1069.252 1193.797)"><path fill="#e3e3d8" d="M-962.161,1285.458v-12.443a.717.717,0,0,0-.718-.718h-7.045a.719.719,0,0,1-.7-.557,32.29,32.29,0,0,0-3.962-9.539.719.719,0,0,1,.1-.889l4.991-4.991a.718.718,0,0,0,0-1.015l-8.8-8.8a.718.718,0,0,0-1.015,0l-4.99,4.991a.721.721,0,0,1-.89.1,32.264,32.264,0,0,0-9.538-3.963.719.719,0,0,1-.557-.7v-7.045a.717.717,0,0,0-.718-.718h-12.442a.717.717,0,0,0-.718.718v7.045a.72.72,0,0,1-.557.7,32.267,32.267,0,0,0-9.537,3.963.72.72,0,0,1-.889-.1l-4.991-4.991a.717.717,0,0,0-1.014,0l-8.8,8.8a.717.717,0,0,0,0,1.015l4.988,4.988a.72.72,0,0,1,.1.89,32.288,32.288,0,0,0-3.962,9.54.72.72,0,0,1-.7.557h-7.044a.718.718,0,0,0-.718.718v12.443a.717.717,0,0,0,.718.717h7.044a.72.72,0,0,1,.7.557,32.281,32.281,0,0,0,3.962,9.539.72.72,0,0,1-.1.89l-4.988,4.988a.717.717,0,0,0,0,1.015l8.8,8.8a.716.716,0,0,0,1.014,0l4.989-4.989a.721.721,0,0,1,.89-.1,32.277,32.277,0,0,0,9.539,3.962.72.72,0,0,1,.557.7v7.043a.717.717,0,0,0,.718.718H-996a.718.718,0,0,0,.718-.718v-7.043a.72.72,0,0,1,.557-.7,32.3,32.3,0,0,0,9.541-3.962.72.72,0,0,1,.889.1l4.988,4.989a.717.717,0,0,0,1.015,0l8.8-8.8a.718.718,0,0,0,0-1.015l-4.991-4.991a.719.719,0,0,1-.1-.889,32.276,32.276,0,0,0,3.962-9.537.72.72,0,0,1,.7-.557h7.045A.717.717,0,0,0-962.161,1285.458Zm-22.1,1.922a19.844,19.844,0,0,1-9.811,9.815c-.4.178-.8.348-1.209.5a19.59,19.59,0,0,1-6.938,1.261,19.6,19.6,0,0,1-6.94-1.261q-.615-.232-1.206-.5a19.85,19.85,0,0,1-9.813-9.812q-.267-.593-.5-1.207a19.6,19.6,0,0,1-1.261-6.94,19.586,19.586,0,0,1,1.261-6.938c.153-.41.322-.811.5-1.209a19.847,19.847,0,0,1,9.815-9.811c.395-.18.8-.345,1.2-.5a19.6,19.6,0,0,1,6.94-1.26,19.587,19.587,0,0,1,6.938,1.26q.495.185.974.4a19.825,19.825,0,0,1,10.155,10.162q.208.473.39.961a19.591,19.591,0,0,1,1.261,6.938,19.605,19.605,0,0,1-1.261,6.94C-983.919,1286.582-984.084,1286.984-984.264,1287.379Z" class="colore3e3d8 svgShape" transform="translate(1042.282 -1212.262)"/><path fill="#e3e3d8" d="M-863.786,1225.608l-.53-8.94a.517.517,0,0,0-.546-.485l-5.062.3a.518.518,0,0,1-.526-.371,23.232,23.232,0,0,0-3.254-6.684.518.518,0,0,1,.034-.643l3.373-3.8a.517.517,0,0,0-.043-.729l-6.7-5.947a.517.517,0,0,0-.729.043l-3.373,3.8a.519.519,0,0,1-.635.109,23.22,23.22,0,0,0-7.022-2.441.517.517,0,0,1-.43-.478l-.3-5.062a.517.517,0,0,0-.546-.485l-8.939.53a.517.517,0,0,0-.485.546l.3,5.062a.519.519,0,0,1-.371.526,23.222,23.222,0,0,0-6.683,3.254.517.517,0,0,1-.643-.034l-3.8-3.373a.517.517,0,0,0-.729.043l-5.946,6.7a.516.516,0,0,0,.043.729l3.8,3.372a.518.518,0,0,1,.109.635,23.253,23.253,0,0,0-2.441,7.024.517.517,0,0,1-.478.43l-5.061.3a.516.516,0,0,0-.485.546l.53,8.94a.517.517,0,0,0,.546.485l5.06-.3a.517.517,0,0,1,.526.371,23.226,23.226,0,0,0,3.254,6.684.519.519,0,0,1-.033.643l-3.372,3.8a.517.517,0,0,0,.043.729l6.7,5.946a.517.517,0,0,0,.729-.043l3.372-3.8a.518.518,0,0,1,.635-.109,23.229,23.229,0,0,0,7.022,2.441.518.518,0,0,1,.431.478l.3,5.061a.516.516,0,0,0,.546.484l8.94-.53a.517.517,0,0,0,.485-.546l-.3-5.06a.518.518,0,0,1,.371-.526,23.24,23.24,0,0,0,6.686-3.254.517.517,0,0,1,.643.033l3.8,3.372a.516.516,0,0,0,.729-.043l5.946-6.7a.516.516,0,0,0-.043-.729l-3.8-3.373a.518.518,0,0,1-.109-.635,23.215,23.215,0,0,0,2.441-7.021.518.518,0,0,1,.478-.431l5.062-.3A.517.517,0,0,0-863.786,1225.608Zm-15.8,2.323a14.286,14.286,0,0,1-6.631,7.47c-.277.145-.559.284-.847.41a14.1,14.1,0,0,1-4.931,1.2,14.105,14.105,0,0,1-5.04-.61q-.452-.141-.888-.308a14.292,14.292,0,0,1-7.469-6.632q-.217-.415-.41-.845a14.1,14.1,0,0,1-1.2-4.933,14.088,14.088,0,0,1,.61-5.038c.092-.3.2-.6.307-.89a14.284,14.284,0,0,1,6.634-7.467c.276-.146.558-.282.844-.41a14.1,14.1,0,0,1,4.933-1.2,14.1,14.1,0,0,1,5.038.61c.243.074.481.156.717.243a14.269,14.269,0,0,1,7.729,6.869q.169.332.321.674a14.1,14.1,0,0,1,1.2,4.931,14.111,14.111,0,0,1-.61,5.04Q-879.418,1227.494-879.585,1227.932Z" class="colore3e3d8 svgShape" transform="translate(993.29 -1193.797)"/></g><g class="color000 svgShape" transform="translate(-1061.019 1328.073)"><rect width="362.626" height="249.168" fill="#443f34" class="color443f34 svgShape" rx="25.918" transform="translate(41.592)"/><rect width="447.266" height="8.022" fill="#e3e3d8" class="colore3e3d8 svgShape" transform="translate(0 243.333)"/><path fill="url(#a)" d="M-707.9,1844.019h-320.5s10.693,7.261,30.983,7.261h385.3c20.29,0,30.983-7.261,30.983-7.261Z" transform="translate(1028.398 -1592.662)"/><rect width="338.839" height="213.572" fill="#ffaa17" class="color7d9144 svgShape" rx="8.007" transform="translate(54.494 14.147)"/><path fill="#cccbcb" d="M-638.839,1830.49A7.823,7.823,0,0,1-641,1834.6a7.816,7.816,0,0,1-5.52,2.292h-58.589a7.845,7.845,0,0,1-7.683-6.4Z" class="colorcccbcb svgShape" transform="translate(899.974 -1587.157)"/></g><path d="M-617.971,1242.923H-871.818a3.732,3.732,0,0,0-3.733,3.733v312.006a3.734,3.734,0,0,0,3.733,3.733h253.847a3.734,3.734,0,0,0,3.733-3.733V1246.656A3.732,3.732,0,0,0-617.971,1242.923Z" class="color000 svgShape" opacity=".1" transform="translate(-94.816 -19.991)"/><rect width="261.313" height="315.739" fill="#fff" class="colorfff svgShape" rx="6.294" transform="translate(-973.488 1223.544)"/><path fill="#443f34" d="M-619.5,1241.394v16.01H-880.813v-16.01a3.732,3.732,0,0,1,3.732-3.733h253.848A3.732,3.732,0,0,1-619.5,1241.394Z" class="color443f34 svgShape" transform="translate(-92.675 -17.849)"/><rect width="186.444" height="7.548" fill="#fff" class="colorfff svgShape" rx="3.774" transform="translate(-961.155 1225.909)"/><circle cx="3.197" cy="3.197" r="3.197" fill="#804e02" class="color698037 svgShape" transform="translate(-761.374 1226.486)"/><circle cx="3.197" cy="3.197" r="3.197" fill="#804e02" class="color698037 svgShape" transform="translate(-750.926 1226.486)"/><circle cx="3.197" cy="3.197" r="3.197" fill="#804e02" class="color698037 svgShape" transform="translate(-740.477 1226.486)"/><rect width="97.006" height="9.348" fill="#eeefef" class="coloreeefef svgShape" transform="translate(-886.034 1518.658)"/><path fill="#eeefef" d="M-662.481,1310h0Z" class="coloreeefef svgShape" transform="translate(-101.137 -47.287)"/><g class="color000 svgShape" transform="translate(-961.155 1303.631)"><rect width="197.538" height="9.348" fill="#ffaa17" class="color7d9144 svgShape" opacity=".5"/><g class="color000 svgShape" transform="translate(0 23.162)"><rect width="94.886" height="6.986" fill="#ffaa17" class="color7d9144 svgShape" opacity=".5"/><rect width="133.438" height="3.493" fill="#eeefef" class="coloreeefef svgShape" transform="translate(0 10.663)"/><rect width="133.438" height="3.493" fill="#eeefef" class="coloreeefef svgShape" transform="translate(0 16.334)"/><rect width="123.623" height="3.493" fill="#eeefef" class="coloreeefef svgShape" transform="translate(0 22.004)"/><rect width="128.091" height="3.493" fill="#eeefef" class="coloreeefef svgShape" transform="translate(0 27.674)"/><rect width="111.136" height="3.493" fill="#eeefef" class="coloreeefef svgShape" transform="translate(0 33.344)"/></g><g class="color000 svgShape" transform="translate(0 70.674)"><rect width="94.886" height="6.986" fill="#ffaa17" class="color7d9144 svgShape" opacity=".5"/><rect width="133.438" height="3.493" fill="#eeefef" class="coloreeefef svgShape" transform="translate(0 10.663)"/><rect width="133.438" height="3.493" fill="#eeefef" class="coloreeefef svgShape" transform="translate(0 16.334)"/><rect width="123.623" height="3.493" fill="#eeefef" class="coloreeefef svgShape" transform="translate(0 22.004)"/><rect width="128.091" height="3.493" fill="#eeefef" class="coloreeefef svgShape" transform="translate(0 27.674)"/><rect width="111.136" height="3.493" fill="#eeefef" class="coloreeefef svgShape" transform="translate(0 33.344)"/></g><g class="color000 svgShape" transform="translate(0 118.187)"><rect width="94.886" height="6.986" fill="#ffaa17" class="color7d9144 svgShape" opacity=".5"/><rect width="133.438" height="3.493" fill="#eeefef" class="coloreeefef svgShape" transform="translate(0 10.663)"/><rect width="133.438" height="3.493" fill="#eeefef" class="coloreeefef svgShape" transform="translate(0 16.334)"/><rect width="123.623" height="3.493" fill="#eeefef" class="coloreeefef svgShape" transform="translate(0 22.004)"/><rect width="128.091" height="3.493" fill="#eeefef" class="coloreeefef svgShape" transform="translate(0 27.674)"/><rect width="111.136" height="3.493" fill="#eeefef" class="coloreeefef svgShape" transform="translate(0 33.344)"/></g><g class="color000 svgShape" transform="translate(0 165.7)"><rect width="94.886" height="6.986" fill="#ffaa17" class="color7d9144 svgShape" opacity=".5"/><rect width="133.438" height="3.493" fill="#eeefef" class="coloreeefef svgShape" transform="translate(0 10.663)"/><rect width="133.438" height="3.493" fill="#eeefef" class="coloreeefef svgShape" transform="translate(0 16.333)"/><rect width="123.623" height="3.493" fill="#eeefef" class="coloreeefef svgShape" transform="translate(0 22.004)"/><rect width="128.091" height="3.493" fill="#eeefef" class="coloreeefef svgShape" transform="translate(0 27.674)"/><rect width="111.136" height="3.493" fill="#eeefef" class="coloreeefef svgShape" transform="translate(0 33.344)"/></g><rect width="17.14" height="9.348" fill="#464748" class="colord87928 svgShape" transform="translate(180.398)"/><g class="color000 svgShape" transform="translate(150.374 23.161)"><rect width="50.245" height="3.493" fill="#eeefef" class="coloreeefef svgShape" transform="translate(33.526)"/><rect width="50.245" height="3.493" fill="#eeefef" class="coloreeefef svgShape" transform="translate(33.526 5.67)"/><rect width="50.245" height="3.493" fill="#eeefef" class="coloreeefef svgShape" transform="translate(33.526 11.34)"/><path fill="#464748" d="M-579.815,1432.854h-24.141a2.4,2.4,0,0,1-2.4-2.4l-.113-10.009a2.4,2.4,0,0,1,2.4-2.4h24.14a2.4,2.4,0,0,1,2.4,2.4l.113,10.009A2.4,2.4,0,0,1-579.815,1432.854Z" class="colord87928 svgShape" transform="translate(606.47 -1418.043)"/></g><g class="color000 svgShape" transform="translate(150.374 46.911)"><rect width="50.245" height="3.493" fill="#eeefef" class="coloreeefef svgShape" transform="translate(33.526)"/><rect width="50.245" height="3.493" fill="#eeefef" class="coloreeefef svgShape" transform="translate(33.526 5.67)"/><rect width="50.245" height="3.493" fill="#eeefef" class="coloreeefef svgShape" transform="translate(33.526 11.341)"/><path fill="#464748" d="M-579.815,1472.9h-24.141a2.4,2.4,0,0,1-2.4-2.4l-.113-10.009a2.4,2.4,0,0,1,2.4-2.4h24.14a2.4,2.4,0,0,1,2.4,2.4l.113,10.009A2.4,2.4,0,0,1-579.815,1472.9Z" class="colord87928 svgShape" transform="translate(606.47 -1458.088)"/></g><g class="color000 svgShape" transform="translate(150.374 70.662)"><rect width="50.245" height="3.493" fill="#eeefef" class="coloreeefef svgShape" transform="translate(33.526)"/><rect width="50.245" height="3.493" fill="#eeefef" class="coloreeefef svgShape" transform="translate(33.526 5.67)"/><rect width="50.245" height="3.493" fill="#eeefef" class="coloreeefef svgShape" transform="translate(33.526 11.34)"/><path fill="#464748" d="M-579.815,1512.944h-24.141a2.4,2.4,0,0,1-2.4-2.4l-.113-10.009a2.4,2.4,0,0,1,2.4-2.4h24.14a2.4,2.4,0,0,1,2.4,2.4l.113,10.009A2.4,2.4,0,0,1-579.815,1512.944Z" class="colord87928 svgShape" transform="translate(606.47 -1498.134)"/></g></g><g class="color000 svgShape" transform="translate(-1108.559 1385.536)"><g class="color000 svgShape" transform="translate(0 60.998)"><path fill="#443f34" d="M-1046.18,1848.988s5.108,1.456,8.11-.934c0,0,4.63,4.854,9.592,5.221,0,0,.857.919,0,1.1s-10.6.552-12.434-.8c0,0-2.927,1.2-5.267-.245C-1047.464,1852.541-1046.18,1848.988-1046.18,1848.988Z" class="color443f34 svgShape" transform="translate(1083.408 -1712.764)"/><path fill="#443f34" d="M-1082.651,1848.545s-4.977,1.418-7.9-.909c0,0-4.511,4.728-9.344,5.086,0,0-.835.895,0,1.074s10.323.537,12.112-.776c0,0,2.852,1.173,5.132-.239C-1081.4,1852.007-1082.651,1848.545-1082.651,1848.545Z" class="color443f34 svgShape" transform="translate(1105.185 -1712.594)"/><path fill="#ffaa17" d="M-1082.009,1734.934l-2.762,67.194s5.535,2.59,8.451.6l1.814-28.2,5.76-25.627,9.715,25.167-2.762,28.969s6.871,1.449,8.9-1.01l3.284-29.855a6.863,6.863,0,0,0-.145-2.32l-7.708-32.513S-1075.062,1740.305-1082.009,1734.934Z" class="color7d9144 svgShape" transform="translate(1098.879 -1666.733)"/><path fill="#ffb27b" d="M-1059.81,1653.515a4.811,4.811,0,0,0,2.962-1.115l-.316,8.069h-7.672l-1.011-9.476A7.883,7.883,0,0,0-1059.81,1653.515Z" class="colorffb27b svgShape" transform="translate(1091.179 -1632.576)"/><path fill="#f4e5cd" d="M-1056.988,1642.406l-.218,5.582a3.98,3.98,0,0,1-3.187,1.446c-3.2,0-5.046-2.122-6.113-4.627l-.294-2.757Z" class="colorf4e5cd svgShape" transform="translate(1091.567 -1628.938)"/><path fill="#ffb27b" d="M-1058,1641.226a3.98,3.98,0,0,1-3.187,1.446c-3.2,0-5.046-2.122-6.113-4.627a22.524,22.524,0,0,1-1.454-8.016l1.323-1.256,2.461-2.336,8.189-1.005a45.439,45.439,0,0,1,.735,7.5C-1056.024,1636.059-1056.44,1639.381-1058,1641.226Z" class="colorffb27b svgShape" transform="translate(1092.363 -1622.175)"/><path fill="#ff9759" d="M-1057,1649.88l-.03.773a4.81,4.81,0,0,1-2.962,1.115,7.884,7.884,0,0,1-6.036-2.521l-.272-2.547c1.068,2.5,2.915,4.627,6.113,4.627A3.98,3.98,0,0,0-1057,1649.88Z" class="colorff9759 svgShape" transform="translate(1091.365 -1630.829)"/><path fill="#ffb27b" d="M-1058,1643.518a3.98,3.98,0,0,1-3.187,1.446c-3.2,0-5.046-2.122-6.113-4.626a22.526,22.526,0,0,1-1.454-8.016l1.323-1.255,11.386,4.161C-1056.024,1638.351-1056.44,1641.674-1058,1643.518Z" class="colorffb27b svgShape" transform="translate(1092.363 -1624.467)"/><path fill="#443f34" d="M-1068.61,1626.587s9.649,2.677,13.518-4c0,0-6.3-2.643-9.79-2.643s-5.486,3.758-5.486,3.758-4.789,2.9,1.818,12.963Z" class="color443f34 svgShape" transform="translate(1093.701 -1619.94)"/><path fill="#ffb27b" d="M-1067.511,1636.143c.69.98.762,2.118.158,2.544s-1.652-.025-2.343-1-.761-2.119-.158-2.544S-1068.2,1635.162-1067.511,1636.143Z" class="colorffb27b svgShape" transform="translate(1092.976 -1626.059)"/><path fill="#443f34" d="M-1071.271,1657.014l-1.837,2.123-7.007,1.939v44.552s13.485,4.23,24.545,0V1661.3l-5.817-1.719-1.268-2.027-4.37,4.187Z" class="color443f34 svgShape" transform="translate(1096.985 -1635.026)"/><path fill="#443f34" d="M-1022.769,1687.071l-4.789,3.755s-1.242.887-2.13,0-9.04-12.549-9.04-12.549v-14.043s1.267.784,4.622,6.3,6.871,11.064,6.871,11.064l1.7-.97A15.5,15.5,0,0,0-1022.769,1687.071Z" class="color443f34 svgShape" transform="translate(1080.144 -1637.964)"/><path fill="#443f34" d="M-1091.689,1663.864v13.042s-9.313,7.011-9.478,12.034a6.057,6.057,0,0,0,.718,2.77,16.82,16.82,0,0,0-5.172,3.564l-.074-.1c-4.471-5.851-2.374-10.764-2.374-10.764C-1103.928,1674.477-1091.689,1663.864-1091.689,1663.864Z" class="color443f34 svgShape" transform="translate(1108.559 -1637.814)"/><path fill="#ffb27b" d="M-996.474,1670.627s.693,4.21-1.516,6.42a10.153,10.153,0,0,1-3.323.839l-12.4,9.729a15.493,15.493,0,0,1-2.767-6.441l11.462-6.546s1.677-7,6.484-5.259c0,0,6.4-4.339,7-3.742S-996.474,1670.627-996.474,1670.627Z" class="colorffb27b svgShape" transform="translate(1071.092 -1638.508)"/></g><path fill="#242522" d="M-1062.551,1661.364l-3.037,2.933-2.712-5.159,1.837-2.123Z" class="color242522 svgShape" transform="translate(1092.177 -1574.028)"/><path fill="#242522" d="M-1057.478,1661.785l2.644,3.2,2.659-5.036-1.268-2.027Z" class="color242522 svgShape" transform="translate(1087.773 -1574.396)"/><g class="color000 svgShape" transform="translate(13.003)"><rect width="6.728" height="17.99" fill="#443f34" class="color443f34 svgShape" transform="rotate(51.398 -45.451 111.9)"/><path fill="#464748" d="M-906.72,1553.207a43.006,43.006,0,0,0-60.441-6.778,43.006,43.006,0,0,0-6.777,60.441,43.005,43.005,0,0,0,60.44,6.777A43,43,0,0,0-906.72,1553.207Zm-63.911,51.022a38.774,38.774,0,0,1,6.111-54.492,38.773,38.773,0,0,1,54.492,6.11,38.773,38.773,0,0,1-6.11,54.492A38.774,38.774,0,0,1-970.631,1604.229Z" class="colord87928 svgShape" transform="translate(1044.601 -1525.205)"/><circle cx="38.773" cy="38.773" r="38.773" fill="#464748" class="colord87928 svgShape" opacity=".1" transform="rotate(-45 90.909 -32.259)"/><path fill="#464748" d="M-1024.758,1671.347l-54.541,43.543a3.472,3.472,0,0,1-4.865-.544l-1.718-2.152a3.471,3.471,0,0,1,.546-4.864l54.542-43.543a3.456,3.456,0,0,1,3.1-.622l4.229,5.3A3.458,3.458,0,0,1-1024.758,1671.347Z" class="colord87928 svgShape" transform="translate(1086.635 -1576.477)"/><rect width="68.413" height="9.675" fill="#464748" class="colord87928 svgShape" transform="rotate(-38.59 187.06 62.42)"/></g><path fill="#ffb27b" d="M-1086.4,1729.4c-2.818.561-5.189-3.634-5.189-3.634s-7.535-5.571-12.016-11.387a16.816,16.816,0,0,1,5.172-3.564c2.31,4.761,9.383,10.312,9.383,10.312l3.589,1.712C-1081.873,1724.551-1083.582,1728.84-1086.4,1729.4Z" class="colorffb27b svgShape" transform="translate(1106.543 -1595.921)"/></g><g class="color000 svgShape" transform="translate(-996.533 1239.555)"><path fill="#804e02" d="M-891.743,1311.244v14.37a14,14,0,0,1-13.964,13.954,14,14,0,0,1-13.964-13.954v-14.37Z" class="color698037 svgShape" transform="translate(919.67 -1287.346)"/><path fill="#d9dbe9" d="M-844.655,1311.244v14.37a14,14,0,0,1-13.964,13.954,14,14,0,0,1-13.963-13.954v-14.37Z" class="colord9dbe9 svgShape" transform="translate(900.509 -1287.346)"/><path fill="#804e02" d="M-797.567,1311.244v14.37a14.006,14.006,0,0,1-13.964,13.954,14,14,0,0,1-13.963-13.954v-14.37Z" class="color698037 svgShape" transform="translate(881.348 -1287.346)"/><path fill="#d9dbe9" d="M-750.489,1311.244v14.37a14,14,0,0,1-13.964,13.954,14,14,0,0,1-13.954-13.954v-14.37Z" class="colord9dbe9 svgShape" transform="translate(862.187 -1287.346)"/><path fill="#804e02" d="M-703.407,1311.244v14.37a14,14,0,0,1-13.963,13.954,14,14,0,0,1-13.964-13.954v-14.37Z" class="color698037 svgShape" transform="translate(843.032 -1287.346)"/><path fill="#d9dbe9" d="M-656.319,1311.244v14.37a14,14,0,0,1-13.964,13.954,14,14,0,0,1-13.963-13.954v-14.37Z" class="colord9dbe9 svgShape" transform="translate(823.871 -1287.346)"/><path fill="#804e02" d="M-609.232,1311.244v14.37a14.006,14.006,0,0,1-13.963,13.954,14,14,0,0,1-13.963-13.954v-14.37Z" class="color698037 svgShape" transform="translate(804.71 -1287.346)"/><path fill="#d9dbe9" d="M-562.154,1311.244v14.37a14,14,0,0,1-13.963,13.954,14,14,0,0,1-13.954-13.954v-14.37Z" class="colord9dbe9 svgShape" transform="translate(785.55 -1287.346)"/><path fill="#804e02" d="M-515.072,1311.244v14.37a14,14,0,0,1-13.963,13.954A14.006,14.006,0,0,1-543,1325.614v-14.37Z" class="color698037 svgShape" transform="translate(766.395 -1287.346)"/><path fill="#d9dbe9" d="M-467.984,1311.244v14.37a14,14,0,0,1-13.964,13.954,14,14,0,0,1-13.964-13.954v-14.37Z" class="colord9dbe9 svgShape" transform="translate(747.234 -1287.346)"/><path fill="#804e02" d="M-420.9,1311.244v14.37a14.006,14.006,0,0,1-13.963,13.954,14,14,0,0,1-13.963-13.954v-14.37Z" class="color698037 svgShape" transform="translate(728.073 -1287.346)"/><path fill="#fff" d="M-684.246,1294.847l2.735-23.9h21.641l3.551,23.9Z" class="colorfff svgShape" transform="translate(823.871 -1270.95)"/><path fill="#ffaa17" d="M-891.743,1294.847h-27.927l23.015-23.9h24.275Z" class="color7d9144 svgShape" transform="translate(919.67 -1270.95)"/><path fill="#fff" d="M-844.655,1294.847h-27.927l19.363-23.9h23.889Z" class="colorfff svgShape" transform="translate(900.509 -1270.95)"/><path fill="#ffaa17" d="M-797.567,1294.847h-27.927l15.326-23.9h23.285Z" class="color7d9144 svgShape" transform="translate(881.348 -1270.95)"/><path fill="#fff" d="M-750.479,1294.847h-27.927l10.684-23.9h22.881Z" class="colorfff svgShape" transform="translate(862.187 -1270.95)"/><path fill="#ffaa17" d="M-703.391,1294.847h-27.927l5.638-23.9h25.014Z" class="color7d9144 svgShape" transform="translate(843.026 -1270.95)"/><path fill="#ffaa17" d="M-434.182,1294.847l-23.015-23.9h-24.275l19.363,23.9Z" class="color7d9144 svgShape" transform="translate(741.359 -1270.95)"/><path fill="#fff" d="M-478.5,1294.847l-19.363-23.9h-23.889l15.326,23.9Z" class="colorfff svgShape" transform="translate(757.75 -1270.95)"/><path fill="#ffaa17" d="M-522.4,1294.847l-15.326-23.9h-23.285l10.684,23.9Z" class="color7d9144 svgShape" transform="translate(773.725 -1270.95)"/><path fill="#fff" d="M-566.029,1294.847l-10.684-23.9h-22.881l5.638,23.9Z" class="colorfff svgShape" transform="translate(789.425 -1270.95)"/><path fill="#ffaa17" d="M-611.678,1294.847l-5.638-23.9h-25.83l3.541,23.9Z" class="color7d9144 svgShape" transform="translate(807.147 -1270.95)"/></g><g class="color000 svgShape" transform="translate(-1066.909 1320.966)"><rect width="86.581" height="41.667" fill="#464748" class="colord87928 svgShape" rx="20.834"/><path fill="#464748" d="M-953.2,1478.475l12.106,9.455a.837.837,0,0,0,1.288-.983l-3.55-8.472Z" class="colord87928 svgShape" transform="translate(1003.688 -1436.808)"/><circle cx="5.916" cy="5.916" r="5.916" fill="#fff" class="colorfff svgShape" transform="rotate(-45 51.178 -55.23)"/><circle cx="5.916" cy="5.916" r="5.916" fill="#fff" class="colorfff svgShape" transform="rotate(-13.283 88.91 -149.253)"/><circle cx="5.916" cy="5.916" r="5.916" fill="#fff" class="colorfff svgShape" transform="translate(19.251 15.739)"/></g><g class="color000 svgShape" transform="translate(-702.079 1279.032)"><g class="color000 svgShape"><circle cx="31.288" cy="31.288" r="31.288" fill="#e3e3d8" class="colore3e3d8 svgShape" transform="rotate(-45 53.412 22.124)"/><circle cx="25.679" cy="25.679" r="25.679" fill="#804e02" class="color698037 svgShape" transform="rotate(-80.783 45.876 24.05)"/><circle cx="19.518" cy="19.518" r="19.518" fill="#e3e3d8" class="colore3e3d8 svgShape" transform="rotate(-80.8 46.412 17.356)"/><circle cx="13.061" cy="13.061" r="13.061" fill="#804e02" class="color698037 svgShape" transform="rotate(-80.8 46.98 10.334)"/><circle cx="6.583" cy="6.583" r="6.583" fill="#e3e3d8" class="colore3e3d8 svgShape" transform="rotate(-45 70.881 -20.05)"/><g class="color000 svgShape" transform="translate(41.212 12.855)"><path fill="#443f34" d="M-353.7,1411.744l3.973-8.183.356,4.423Z" class="color443f34 svgShape" transform="translate(353.699 -1377.245)"/><path fill="#443f34" d="M-353.7,1414.778l8.659-2.79-4.33-.97Z" class="color443f34 svgShape" transform="translate(353.699 -1380.28)"/><rect width="47.165" height=".601" fill="#443f34" class="color443f34 svgShape" transform="rotate(-40.98 43.188 10.611)"/></g></g><path fill="#443f34" d="M-297.893,1361.8v-4.476l6.174-5.763.21,4.818Z" class="color443f34 svgShape" transform="translate(372.202 -1343.23)"/><path fill="#443f34" d="M-297.709,1365.333l4.425.675,6.627-5.235-4.732-.934Z" class="color443f34 svgShape" transform="translate(372.127 -1346.599)"/></g></g></svg></svg>