<svg xmlns="http://www.w3.org/2000/svg" xmlns:svgjs="http://svgjs.com/svgjs" xmlns:xlink="http://www.w3.org/1999/xlink" width="288" height="288"><svg xmlns="http://www.w3.org/2000/svg" width="288" height="288" viewBox="0 0 67.998 68"><g class="color000 svgShape" transform="translate(-293.785 -74.316)"><path fill="#ffaa17" d="M348.144,121.9a25.827,25.827,0,1,0-3.072,3.707A25.689,25.689,0,0,0,348.144,121.9Zm-8.309,4.539a22.976,22.976,0,1,1,6.068-6.068,23.124,23.124,0,0,1-6.068,6.068Z" class="color85985a svgShape" transform="translate(-2.474 -2.474)"/><path fill="#ffaa17" d="M359.878,98.731a1.356,1.356,0,0,0-1.918,1.918,17.36,17.36,0,0,1,4.284,17.576,1.356,1.356,0,1,0,2.586.818A20.061,20.061,0,0,0,359.878,98.731Z" class="color85985a svgShape" transform="translate(-21.219 -7.991)"/><path fill="#ffaa17" d="M360.58,131.461l-2.825-2.825-7.368-7.368a30.764,30.764,0,1,0-9.665,9.64l7.38,7.38,2.825,2.826a4.121,4.121,0,0,0,5.818,0l3.836-3.835A4.12,4.12,0,0,0,360.58,131.461Zm-55.9-6.746a27.933,27.933,0,1,1,42.847-4.028,27.9,27.9,0,0,1-6.979,7.091c-.133.095-.264.194-.4.286a27.939,27.939,0,0,1-35.469-3.349Zm38.506,4.484q.611-.473,1.2-.978c.126-.108.252-.216.376-.326.458-.407.909-.823,1.343-1.257s.849-.885,1.256-1.343c.11-.124.218-.25.326-.375q.506-.588.98-1.2c.049-.063.1-.122.151-.186l6.059,6.059-5.816,5.816L343,129.352C343.067,129.3,343.126,129.248,343.189,129.2Zm15.473,6.161-3.835,3.835a1.4,1.4,0,0,1-1.981,0l-1.866-1.866,5.816-5.816,1.866,1.866A1.4,1.4,0,0,1,358.662,135.361Z" class="color85985a svgShape"/></g></svg></svg>