<svg xmlns="http://www.w3.org/2000/svg" xmlns:svgjs="http://svgjs.com/svgjs" xmlns:xlink="http://www.w3.org/1999/xlink" width="288" height="288"><svg xmlns="http://www.w3.org/2000/svg" width="288" height="288" viewBox="0 0 67 66.229"><g class="color000 svgShape" transform="translate(-59.412 -52.008)"><path fill="#ffaa17" d="M126.412,111.107l-.062-.339-.031-.062v-.062l-5.061-9.073V72.623a4.327,4.327,0,0,0-4.321-4.29h-1.45V53.026a1.008,1.008,0,0,0-1.018-1.019H71.324a1.008,1.008,0,0,0-1.018,1.019V68.334h-1.45a4.3,4.3,0,0,0-4.29,4.29v28.948L59.5,110.645v.062l-.031.062-.062.339v3.055a4.063,4.063,0,0,0,4.043,4.074h58.914a4.063,4.063,0,0,0,4.043-4.074v-3.055ZM72.343,62.5h41.138V94.874H72.343Zm0-8.487h41.138v6.45H72.343ZM66.6,72.623a2.246,2.246,0,0,1,2.253-2.253h1.45V95.924a1.027,1.027,0,0,0,1.018,1.018h43.144a1.027,1.027,0,0,0,1.018-1.018V70.37h1.45a2.272,2.272,0,0,1,2.284,2.253v28.207H66.6Zm-.432,30.213h53.483l4.012,7.283H62.159Zm58.2,11.326a2.009,2.009,0,0,1-2.006,2.037H63.455a2.009,2.009,0,0,1-2.006-2.037v-2.006h62.926Z" class="color85985a svgShape"/><path fill="#ffaa17" d="M61.334,52.423a.958.958,0,0,0-.309.741,1.029,1.029,0,0,0,.278.71,1.051,1.051,0,0,0,.741.278.951.951,0,0,0,.988-.987.989.989,0,0,0-1.7-.741Z" class="color85985a svgShape" transform="translate(48.196 4.091)"/><path fill="#ffaa17" d="M61.923,52.145a1,1,0,1,0,0,2.006,1,1,0,0,0,0-2.006Z" class="color85985a svgShape" transform="translate(43.657 4.091)"/><path fill="#ffaa17" d="M61,52.423a1.052,1.052,0,0,0-.278.741,1.087,1.087,0,0,0,.278.71.977.977,0,0,0,.71.278,1.051,1.051,0,0,0,.741-.278,1.063,1.063,0,0,0,.309-.71A1.034,1.034,0,0,0,61,52.423Z" class="color85985a svgShape" transform="translate(39.178 4.091)"/><path fill="#ffaa17" d="M67.739,52.652a1.047,1.047,0,0,0-1.3.617L60.425,69.348a1.019,1.019,0,0,0,.586,1.3l.37.062a.963.963,0,0,0,.957-.648l6.018-16.11A1.045,1.045,0,0,0,67.739,52.652Z" class="color85985a svgShape" transform="translate(28.522 17.873)"/><path fill="#ffaa17" d="M68.427,53.032a1.05,1.05,0,0,0-1.42-.124l-6.666,5.555a.978.978,0,0,0-.37.772,1.038,1.038,0,0,0,.37.8l6.666,5.524a.969.969,0,0,0,.648.216,1.052,1.052,0,0,0,.771-.339.99.99,0,0,0-.123-1.42l-5.74-4.783,5.74-4.753A1.028,1.028,0,0,0,68.427,53.032Z" class="color85985a svgShape" transform="translate(16.693 20.301)"/><path fill="#ffaa17" d="M62.41,52.908a1.09,1.09,0,0,0-1.451.124,1.061,1.061,0,0,0,.154,1.45l5.709,4.753-5.709,4.783a1.02,1.02,0,0,0-.154,1.42,1.176,1.176,0,0,0,.8.339,1.025,1.025,0,0,0,.648-.216l6.666-5.524a1.039,1.039,0,0,0,.37-.8.979.979,0,0,0-.37-.772Z" class="color85985a svgShape" transform="translate(39.714 20.301)"/></g></svg></svg>