<svg xmlns="http://www.w3.org/2000/svg" xmlns:svgjs="http://svgjs.com/svgjs" xmlns:xlink="http://www.w3.org/1999/xlink" width="288" height="288"><svg xmlns="http://www.w3.org/2000/svg" width="288" height="288" viewBox="0 0 72 66.712"><g class="color000 svgShape" transform="translate(-491.826 -645.56)"><path fill="#ffaa17" d="M533.25,692.96a1.311,1.311,0,0,0,.527-.11l5.817-2.545c.564.939,1.037,1.7,1.244,2.034a1.313,1.313,0,0,0,1.078.62h.039a1.318,1.318,0,0,0,1.074-.555c.054-.077.624-.887,1.358-2.052l5.749,2.5a1.313,1.313,0,0,0,.524.109h.018a1.316,1.316,0,0,0,1.169-1.922c-.424-1.28-1.929-5.6-3.351-7.021a8.2,8.2,0,0,0-.643-.571c1.489-4.3,9.207-28.7-3.885-37.3a3.748,3.748,0,0,0-4.028,0c-13.086,8.6-5.364,33-3.877,37.3a7.98,7.98,0,0,0-.643.568c-1.509,1.508-3.117,6.278-3.423,7.219a1.316,1.316,0,0,0,1.252,1.725Zm8.708-25.055a26.742,26.742,0,0,0,6.706-.891c-.03.369-.065.735-.1,1.1a22.169,22.169,0,0,1-13.214,0c-.037-.364-.068-.731-.1-1.1A26.745,26.745,0,0,0,541.959,667.9Zm0,3.849a25.65,25.65,0,0,0,6.239-.8,72.748,72.748,0,0,1-2.78,11.469,11.57,11.57,0,0,1-6.918,0,72.817,72.817,0,0,1-2.786-11.469A25.712,25.712,0,0,0,541.959,671.754Zm-2.142,13.654a13.3,13.3,0,0,0,4.239.007c-.594,1.181-1.2,2.352-1.331,2.613-.252.42-.5.817-.723,1.169C541.239,687.929,540.426,686.534,539.817,685.408Zm5.928,2.662c.364-.653.72-1.334,1.041-2.016a15.55,15.55,0,0,1,1.584,3.157Zm-4.357-39.722a1.071,1.071,0,0,1,1.137,0c4.988,3.276,6.386,9.557,6.28,15.888a23.144,23.144,0,0,1-13.691,0C535,657.9,536.4,651.627,541.388,648.349Zm-4.224,37.67c.317.617.695,1.3,1.091,2l-2.7,1.183A15.019,15.019,0,0,1,537.164,686.019Z" class="color85985a svgShape" transform="translate(-14.132)"/><path fill="#ffaa17" d="M541.135,661.243a1.266,1.266,0,0,0,.214.018,1.318,1.318,0,0,0,1.3-1.1c.005-.034.625-3.493,2.916-5.083a1.317,1.317,0,1,0-1.5-2.164c-3.236,2.247-3.984,6.637-4.013,6.823A1.316,1.316,0,0,0,541.135,661.243Z" class="color85985a svgShape" transform="translate(-16.984 -2.506)"/><path fill="#ffaa17" d="M587.712,716.78c-.665-4.41-4.7-8.859-12.226-8.859-6.922,0-12.647,6.743-15.7,13.053a1.317,1.317,0,0,0,2.371,1.146c2.7-5.591,7.62-11.565,13.325-11.565,6.807,0,9.252,4.16,9.623,6.618a1.317,1.317,0,0,0,2.6-.392Z" class="color85985a svgShape" transform="translate(-23.9 -21.973)"/><path fill="#ffaa17" d="M506.735,712.241a9.45,9.45,0,0,1,6.824,8.859,1.315,1.315,0,0,0,.775,1.172c.408.185,1.129.416,2.041.71a24.3,24.3,0,0,1,3.843,1.445,1.317,1.317,0,1,0,1.788-1.933c-.719-.664-2.377-1.231-4.824-2.019-.362-.116-.729-.234-1.042-.339a12.059,12.059,0,0,0-8.619-10.408c-7.854-2.454-13.535,4.568-15.4,6.876a1.316,1.316,0,1,0,2.047,1.656C498.487,712.918,502.6,710.949,506.735,712.241Z" class="color85985a svgShape" transform="translate(0 -22.429)"/><path fill="#ffaa17" d="M554.365,731.694a12.913,12.913,0,0,0-16.589,7.592c-.051.139-.091.28-.14.42H522.885a12.982,12.982,0,0,0-12.217-8.811c-.192,0-.382.008-.567.016s-.374.017-.576.034c-.177.016-.362.04-.548.064l-.091.013c-.212.031-.431.062-.589.1a4.776,4.776,0,0,0-.5.106c-.328.074-.648.163-1.032.28l-.475.165a13.939,13.939,0,0,0-1.505.665c-.148.078-.3.157-.446.242-.023.012-.045.025-.067.039l-.124.074c-.106.063-.211.126-.279.172-.161.1-.323.207-.44.293-.161.107-.314.215-.424.3-.146.1-.291.22-.456.355l-.082.069c-.137.117-.272.233-.415.361-.213.2-.426.4-.606.59-.05.05-.108.109-.161.169s-.125.133-.187.2l-.1.109a11.534,11.534,0,0,0-.773.981,3.981,3.981,0,0,0-.3.427,12.006,12.006,0,0,0-.694,1.17c-.073.138-.139.277-.215.436s-.142.306-.205.468a1.317,1.317,0,1,0,2.453.958c.041-.106.089-.207.144-.323s.1-.2.155-.315a9.468,9.468,0,0,1,.568-.953c.021-.032.042-.064.06-.1a1.191,1.191,0,0,1,.118-.164l.056-.075a8.8,8.8,0,0,1,.592-.757l.1-.109c.04-.045.079-.09.121-.131.017-.017.063-.069.079-.086l.062-.063c.166-.174.341-.341.5-.49.113-.1.232-.2.415-.358.1-.077.189-.156.334-.26.107-.084.207-.154.358-.255.106-.078.213-.148.357-.238.067-.045.135-.083.2-.123l.12-.073.023-.013h0c.127-.073.254-.14.363-.2a11.273,11.273,0,0,1,1.188-.527l.4-.138c.268-.08.528-.154.847-.227a3.459,3.459,0,0,1,.343-.073c.165-.034.33-.057.548-.089.154-.019.308-.04.444-.053.151-.012.3-.019.453-.025a10.382,10.382,0,0,1,10.425,7.813c0,.013.012.022.016.034a1.33,1.33,0,0,0,.165.367l0,.006a1.3,1.3,0,0,0,.262.278l.05.042a1.314,1.314,0,0,0,.326.173c.022.008.043.014.066.021a1.286,1.286,0,0,0,.382.063h16.7a1.289,1.289,0,0,0,.4-.071c.019-.006.038-.01.056-.017a1.307,1.307,0,0,0,.337-.189l.052-.044a1.307,1.307,0,0,0,.256-.291c.01-.016.017-.032.027-.049a1.3,1.3,0,0,0,.154-.394h0c.007-.037.02-.076.033-.122.1-.328.2-.648.313-.942a10.28,10.28,0,0,1,13.229-6.05,9.837,9.837,0,0,1,5.787,5.591,1.316,1.316,0,1,0,2.435-1A12.442,12.442,0,0,0,554.365,731.694Z" class="color85985a svgShape" transform="translate(-2.431 -30.068)"/><path fill="#ffaa17" d="M546.262,720.583a1.342,1.342,0,0,0-.122-.077c-.037-.019-.075-.034-.113-.05a1.2,1.2,0,0,0-.122-.045c-.041-.012-.082-.02-.123-.029a1.208,1.208,0,0,0-.127-.02c-.039,0-.079,0-.119,0a1.18,1.18,0,0,0-.135,0,1.067,1.067,0,0,0-.111.017,1.4,1.4,0,0,0-.137.031c-.038.012-.075.027-.112.042a1.118,1.118,0,0,0-.121.054,1.144,1.144,0,0,0-.119.074c-.025.016-.051.028-.074.046a7.222,7.222,0,0,0-2.659,5.3c0,2.861,2.074,6.7,2.309,7.129.008.015.021.025.03.04a1.328,1.328,0,0,0,.155.207c.022.025.044.049.068.071a1.349,1.349,0,0,0,.194.15c.021.014.039.03.06.041l.011.008a1.305,1.305,0,0,0,.172.068c.044.016.085.039.13.051a1.3,1.3,0,0,0,.332.044h0a.978.978,0,0,0,.457-.093,1.424,1.424,0,0,0,.177-.07l.012-.009c.018-.01.034-.025.052-.036a1.292,1.292,0,0,0,.2-.155c.023-.022.045-.045.067-.069a1.324,1.324,0,0,0,.155-.207c.008-.015.022-.025.031-.04.236-.429,2.309-4.268,2.309-7.129a7.222,7.222,0,0,0-2.658-5.3A.823.823,0,0,0,546.262,720.583Zm-1.562,5.346a4.012,4.012,0,0,1,.831-2.339,4.014,4.014,0,0,1,.827,2.339,10.27,10.27,0,0,1-.829,3.357A10.267,10.267,0,0,1,544.7,725.928Z" class="color85985a svgShape" transform="translate(-17.702 -26.355)"/></g></svg></svg>