<svg xmlns="http://www.w3.org/2000/svg" xmlns:svgjs="http://svgjs.com/svgjs" xmlns:xlink="http://www.w3.org/1999/xlink" width="288" height="288"><svg xmlns="http://www.w3.org/2000/svg" width="288" height="288" viewBox="0 0 70.03 70.03"><path fill="#ffaa17" d="M50.525,118.441a16.933,16.933,0,0,0,2.144-.882l4.584,3.055,6.1-6.1L60.3,109.93a16.688,16.688,0,0,0,.882-2.145l5.409-1.082v-8.63l-5.408-1.082a16.733,16.733,0,0,0-1.2-2.759L58,95.321a14.63,14.63,0,0,1,1.22,2.963l.191.659,4.92.984v4.925l-4.92.984-.191.659A14.7,14.7,0,0,1,58,109.456l-.331.6,2.78,4.168-3.482,3.482-4.169-2.78-.6.331a14.662,14.662,0,0,1-2.962,1.221l-.657.191-.985,4.92H42.667l-.984-4.919-.657-.191a14.57,14.57,0,0,1-2.962-1.221l-.6-.331-4.169,2.78-4.137-4.137-1.6,1.6,5.448,5.447,4.584-3.055a16.768,16.768,0,0,0,2.144.882l1.081,5.408h8.628Z" class="color556c26 svgShape" transform="translate(-23.669 -80.927)"/><path fill="#ffaa17" d="M6.612,29.617l1.979-1.089a14.631,14.631,0,0,1-1.22-2.963l-.191-.659-4.921-.984V19l4.92-.984.191-.659a14.7,14.7,0,0,1,1.22-2.963l.331-.6L6.141,9.625,9.624,6.142l4.169,2.78.6-.331A14.662,14.662,0,0,1,17.355,7.37l.657-.191L19,2.259h4.926l.984,4.919.657.191A14.57,14.57,0,0,1,28.526,8.59l.6.331L33.3,6.141l4.137,4.137,1.6-1.6L33.583,3.235,29,6.29a16.768,16.768,0,0,0-2.144-.882L25.775,0H17.146L16.064,5.408a16.933,16.933,0,0,0-2.144.882L9.338,3.235l-6.1,6.1L6.29,13.919a16.688,16.688,0,0,0-.882,2.145L0,17.146v8.63l5.408,1.082A16.684,16.684,0,0,0,6.612,29.617Z" class="color556c26 svgShape"/><path fill="#ffaa17" d="M164.425,76.425A12.439,12.439,0,0,0,152,64v2.259a10.177,10.177,0,0,1,10.166,10.166Z" class="color556c26 svgShape" transform="translate(-130.539 -54.964)"/><path fill="#ffaa17" d="M66.259,152H64a12.439,12.439,0,0,0,12.425,12.425v-2.259A10.177,10.177,0,0,1,66.259,152Z" class="color556c26 svgShape" transform="translate(-54.964 -130.539)"/><path fill="#ffaa17" d="M111.813,103.907a7.907,7.907,0,1,0-7.907,7.907A7.916,7.916,0,0,0,111.813,103.907Zm-13.554,0a5.648,5.648,0,1,1,5.648,5.648A5.654,5.654,0,0,1,98.259,103.907Z" class="color556c26 svgShape" transform="translate(-82.446 -82.446)"/><path fill="#ffaa17" d="M181.8,360.488l-1.961,1.119a9.044,9.044,0,0,1,.852,2.061l.192.695,2.4.4v2.6l-2.4.4-.192.695a9.045,9.045,0,0,1-.852,2.061l-.358.628,1.414,1.979-1.842,1.841-1.979-1.413-.628.358a8.951,8.951,0,0,1-2.061.851l-.695.192-.4,2.4h-2.606l-.4-2.4-.695-.192a8.93,8.93,0,0,1-2.061-.851l-.628-.358-1.979,1.413-2.518-2.518-1.6,1.6,3.871,3.872,2.382-1.7a11.4,11.4,0,0,0,1.231.507l.481,2.889h6.43l.482-2.89a11.4,11.4,0,0,0,1.231-.507l2.382,1.7,4.546-4.549-1.7-2.381a11.387,11.387,0,0,0,.507-1.23l2.892-.482v-6.431l-2.89-.482A11.082,11.082,0,0,0,181.8,360.488Z" class="color556c26 svgShape" transform="translate(-138.104 -309.591)"/><path fill="#ffaa17" d="M147.741,323.133l1.961-1.119a9.044,9.044,0,0,1-.852-2.061l-.192-.695-2.4-.4v-2.6l2.4-.4.192-.695a9.044,9.044,0,0,1,.852-2.061l.358-.628-1.414-1.979,1.842-1.841,1.979,1.413.628-.358a8.953,8.953,0,0,1,2.061-.851l.695-.192.4-2.4h2.606l.4,2.4.695.192a8.931,8.931,0,0,1,2.061.851l.628.358,1.979-1.413,2.518,2.518,1.6-1.6-3.871-3.872-2.382,1.7a11.409,11.409,0,0,0-1.231-.507L160.77,304h-6.43l-.482,2.89a11.4,11.4,0,0,0-1.231.507l-2.382-1.7-4.546,4.549,1.7,2.381a11.384,11.384,0,0,0-.507,1.23l-2.892.482v6.431l2.89.482A11.083,11.083,0,0,0,147.741,323.133Z" class="color556c26 svgShape" transform="translate(-123.669 -261.078)"/><path fill="#ffaa17" d="M205.648,360a5.648,5.648,0,1,0,5.648,5.648A5.654,5.654,0,0,0,205.648,360Zm0,9.036a3.389,3.389,0,1,1,3.389-3.389A3.393,3.393,0,0,1,205.648,369.036Z" class="color556c26 svgShape" transform="translate(-171.762 -309.172)"/><path fill="#ffaa17" d="M345.543,201.282v-6.431l-2.89-.482a11.082,11.082,0,0,0-.851-1.881l-1.961,1.119a9.045,9.045,0,0,1,.852,2.061l.192.695,2.4.4v2.6l-2.4.4-.192.695a9.045,9.045,0,0,1-.852,2.061l-.358.628,1.414,1.979-1.842,1.841-1.979-1.413-.628.358a8.953,8.953,0,0,1-2.061.851l-.695.192-.4,2.4h-2.606l-.4-2.4-.695-.192a8.933,8.933,0,0,1-2.061-.851l-.628-.358-1.979,1.413-2.518-2.518-1.6,1.6,3.871,3.872,2.382-1.7a11.405,11.405,0,0,0,1.231.507l.481,2.889h6.43l.482-2.89a11.408,11.408,0,0,0,1.231-.507l2.382,1.7,4.546-4.549-1.7-2.381a11.38,11.38,0,0,0,.507-1.23Z" class="color556c26 svgShape" transform="translate(-275.513 -165.311)"/><path fill="#ffaa17" d="M306.89,145.856l-2.89.482v6.432l2.89.482a11.085,11.085,0,0,0,.851,1.881l1.961-1.119a9.044,9.044,0,0,1-.852-2.061l-.192-.695-2.4-.4v-2.6l2.4-.4.192-.695a9.044,9.044,0,0,1,.852-2.061l.358-.628-1.414-1.979,1.842-1.841,1.979,1.413.628-.358a8.953,8.953,0,0,1,2.061-.851l.695-.192.4-2.4h2.606l.4,2.4.695.192a8.933,8.933,0,0,1,2.061.851l.628.358,1.979-1.413,2.518,2.518,1.6-1.6-3.871-3.872-2.382,1.7a11.41,11.41,0,0,0-1.231-.507L320.77,136h-6.43l-.482,2.89a11.4,11.4,0,0,0-1.231.507l-2.382-1.7-4.546,4.549,1.7,2.381A11.077,11.077,0,0,0,306.89,145.856Z" class="color556c26 svgShape" transform="translate(-261.078 -116.798)"/><path fill="#ffaa17" d="M365.648,192a5.648,5.648,0,1,0,5.648,5.648A5.654,5.654,0,0,0,365.648,192Zm0,9.036a3.389,3.389,0,1,1,3.389-3.389A3.393,3.393,0,0,1,365.648,201.036Z" class="color556c26 svgShape" transform="translate(-309.172 -164.891)"/></svg></svg>