<svg xmlns="http://www.w3.org/2000/svg" xmlns:svgjs="http://svgjs.com/svgjs" xmlns:xlink="http://www.w3.org/1999/xlink" width="288" height="288"><svg xmlns="http://www.w3.org/2000/svg" width="288" height="288" viewBox="0 0 491 268.099"><g class="color000 svgShape" transform="translate(1171.371 -367.563)"><g class="color000 svgShape" transform="translate(-1171.371 367.563)"><path fill="#e3e3d8" d="M-680.371,852.224c0,5.423-109.914,9.82-245.5,9.82s-245.5-4.4-245.5-9.82,109.914-9.82,245.5-9.82S-680.371,846.8-680.371,852.224Z" class="colore3e3d8 svgShape" transform="translate(1171.371 -593.945)"/><g class="color000 svgShape" transform="translate(93.137)"><path fill="#ffaa17" d="M-697.066,548.054V375.673a8.123,8.123,0,0,0-8.118-8.11H-985.106a8.125,8.125,0,0,0-8.117,8.11V548.054Z" class="color698037 svgShape" transform="translate(993.301 -367.563)"/><path fill="#ffaa17" d="M-993.372,713.136V738.06a8.681,8.681,0,0,0,8.675,8.689H-705.41a8.683,8.683,0,0,0,8.678-8.689V713.136Z" class="color7d9144 svgShape" transform="translate(993.372 -532.316)"/><path fill="#fff" d="M-709.533,734.09a7.737,7.737,0,0,1-7.737,7.737,7.737,7.737,0,0,1-7.737-7.737,7.737,7.737,0,0,1,7.737-7.737A7.737,7.737,0,0,1-709.533,734.09Z" class="colorfff svgShape" transform="translate(865.429 -538.617)"/><path fill="#ffaa17" d="M-706.087,814.1s-2.155-1.068-4.632-2c-2.64-.992-5.816-2.238-7.684-3.136-3.278-1.569-3.558-2.6-4.784-7.969-1.337-5.858-2.591-18.223-3.1-23.618H-788.3c-.508,5.395-1.76,17.76-3.1,23.618-1.227,5.367-1.5,6.4-4.781,7.969-1.85.888-4.979,2.117-7.6,3.1h0c-2.517.95-4.569,1.682-4.569,1.682s-1.991,1.105,1.209,1.265h99.7C-704.434,815.065-706.087,814.1-706.087,814.1Z" class="color698037 svgShape" transform="translate(905.453 -562.943)"/><path fill="#714d0c" d="M-705.813,792.072c-.275-2.562-1.762-13.047-1.917-14.7h-62.018c-.153,1.65-.007,2.463-.284,5.025Z" class="color505e2a svgShape" transform="translate(886.894 -562.943)"/><rect width="268.628" height="151.269" fill="#fff" class="colorfff svgShape" transform="translate(13.84 13.905)"/></g><g class="color000 svgShape" transform="translate(40.909 125.386)"><g class="color000 svgShape" transform="translate(3.468)"><path fill="#ffaa17" d="M-1061.586,635.954a29.939,29.939,0,0,0-1.942-4.947,10.013,10.013,0,0,0-3.507-3.917,6.066,6.066,0,0,0-5.1-.658,4.386,4.386,0,0,0-2.938,4.025,5.27,5.27,0,0,0,.491,1.969c1.369,3.125,4.4,5.172,7.415,6.761q1.667.877,3.39,1.638c.934.413,2.474,1.4,3.5,1.391,1.221-.006.136-1.831-.1-2.55Z" class="color698037 svgShape" transform="translate(1081.086 -616.222)"/><path fill="#ffaa17" d="M-1042.482,656.212a29.826,29.826,0,0,0,5.163-1.256,10.014,10.014,0,0,0,4.355-2.946,6.067,6.067,0,0,0,1.342-4.969,4.386,4.386,0,0,0-3.591-3.455,5.25,5.25,0,0,0-2.018.221c-3.281.934-5.719,3.658-7.7,6.435q-1.094,1.532-2.081,3.137c-.535.87-1.717,2.264-1.851,3.282-.159,1.211,1.8.381,2.54.247Z" class="color698037 svgShape" transform="translate(1068.591 -624.532)"/><path fill="#ffaa17" d="M-1071.786,701.551a29.924,29.924,0,0,0-3.448-4.043,10.018,10.018,0,0,0-4.593-2.56,6.065,6.065,0,0,0-5.041,1.042,4.386,4.386,0,0,0-1.466,4.763,5.263,5.263,0,0,0,1.106,1.7c2.312,2.508,5.842,3.457,9.214,3.974q1.861.286,3.739.444c1.018.086,2.795.513,3.764.174,1.153-.4-.468-1.776-.924-2.379Z" class="color698037 svgShape" transform="translate(1086.559 -648.959)"/><path fill="#ffaa17" d="M-1045.247,685.857a29.9,29.9,0,0,0,5.046-1.665,10.02,10.02,0,0,0,4.106-3.285,6.067,6.067,0,0,0,.94-5.06,4.386,4.386,0,0,0-3.856-3.157,5.271,5.271,0,0,0-1.993.381c-3.2,1.194-5.408,4.1-7.161,7.03q-.968,1.615-1.824,3.293c-.464.91-1.531,2.394-1.583,3.42-.062,1.22,1.821.237,2.552.043Z" class="color698037 svgShape" transform="translate(1069.88 -638.418)"/><path fill="#ffaa17" d="M-1045.621,714.985a29.855,29.855,0,0,0,5.308-.242,10.014,10.014,0,0,0,4.839-2.055,6.068,6.068,0,0,0,2.27-4.619,4.385,4.385,0,0,0-2.861-4.08,5.259,5.259,0,0,0-2.022-.171c-3.4.287-6.315,2.492-8.792,4.837q-1.368,1.294-2.645,2.68c-.692.751-2.12,1.892-2.446,2.866-.389,1.158,1.69.719,2.446.73Z" class="color698037 svgShape" transform="translate(1070.091 -653.247)"/><path fill="#ffaa17" d="M-1066.616,672.77a29.938,29.938,0,0,0-1.976-4.933,10.018,10.018,0,0,0-3.535-3.892,6.066,6.066,0,0,0-5.109-.623,4.386,4.386,0,0,0-2.91,4.045,5.264,5.264,0,0,0,.505,1.966c1.39,3.115,4.432,5.142,7.462,6.709q1.672.865,3.4,1.615c.938.407,2.484,1.379,3.512,1.367,1.221-.015.123-1.832-.116-2.55Q-1066,674.621-1066.616,672.77Z" class="color698037 svgShape" transform="translate(1083.502 -633.804)"/><path fill="#ffaa17" d="M-1038.172,621.867a29.926,29.926,0,0,0,4.188-3.271,10.022,10.022,0,0,0,2.755-4.479,6.068,6.068,0,0,0-.824-5.08,4.386,4.386,0,0,0-4.7-1.669,5.253,5.253,0,0,0-1.747,1.032c-2.605,2.2-3.7,5.688-4.367,9.035q-.366,1.847-.6,3.716c-.129,1.013-.632,2.77-.334,3.753.354,1.169,1.794-.392,2.417-.821Z" class="color698037 svgShape" transform="translate(1066.218 -607.194)"/><path fill="#ffaa17" d="M-1051.326,691.56a173.262,173.262,0,0,1,4.735-56.958l.323.082a172.929,172.929,0,0,0-4.726,56.849Z" class="color698037 svgShape" transform="translate(1070.044 -620.26)"/></g><g class="color000 svgShape" transform="translate(0 69.325)"><path fill="#443f34" d="M-1088.7,797.216h37.947l4.488-57.533h-46.924Z" class="color443f34 svgShape" transform="translate(1093.187 -739.684)"/><path fill="#242522" d="M-1049.5,810.393h-37.947l-3.112-43.072s3.264,15.524,14.129,26.75A62.914,62.914,0,0,0-1049.5,810.393Z" class="color242522 svgShape" transform="translate(1091.933 -752.86)"/></g></g></g><rect width="96.661" height="64.847" fill="#242522" class="color242522 svgShape" rx="9.097" transform="translate(-978.324 447.099)"/><path fill="#443f34" d="M-709.628,584.415h-44.193l-48.608-48.727V523.427a3.871,3.871,0,0,1,3.859-3.859h88.942a3.871,3.871,0,0,1,3.86,3.859v57.128A3.871,3.871,0,0,1-709.628,584.415Z" class="color443f34 svgShape" transform="translate(-175.894 -72.469)"/><path fill="#f1f1f2" d="M-658.541,587.693l-.151-.774H-672.7v5.519h8.531a5.833,5.833,0,0,1-1.467,2.9,8.259,8.259,0,0,1-5.908,2.415h0a9.008,9.008,0,0,1-6.342-2.632,8.677,8.677,0,0,1,.085-12.144,8.629,8.629,0,0,1,11.985-.157l.683.648,3.93-4.008-.73-.669a14.548,14.548,0,0,0-9.784-3.819h-.066a14.376,14.376,0,0,0-10.109,4.118,14.058,14.058,0,0,0-4.269,10.073,13.631,13.631,0,0,0,4.114,9.777l0,0a15.23,15.23,0,0,0,10.437,4.271h.132a13.31,13.31,0,0,0,9.532-3.775,12.9,12.9,0,0,0,3.621-8.815A15.288,15.288,0,0,0-658.541,587.693Z" class="colorf1f1f2 svgShape" transform="translate(-231.326 -98.881)"/><path fill="#ffaa17" d="M-784.485,457.792l-4.684,35.961H-817.2l7.816-30s1.62-5.964,7.323-5.964Z" class="color698037 svgShape" transform="translate(-168.851 -43.017)"/><path fill="#ffaa17" d="M-735.591,457.792v35.961h-28.035l4.684-35.961Z" class="color7d9144 svgShape" transform="translate(-194.394 -43.017)"/><path fill="#ffaa17" d="M-682.01,493.753h-28.037V457.792h23.578Z" class="color698037 svgShape" transform="translate(-219.937 -43.017)"/><path fill="#ffaa17" d="M-632.493,493.753h-28.034l-4.459-35.961h17.351c5.705,0,7.326,5.964,7.326,5.964Z" class="color7d9144 svgShape" transform="translate(-241.421 -43.017)"/><path fill="#94671e" d="M-789.168,526.519a13.991,13.991,0,0,1-14.017,13.964A13.991,13.991,0,0,1-817.2,526.519Z" class="color5d6d31 svgShape" transform="translate(-168.851 -75.783)"/><path fill="#d09124" d="M-735.59,526.519a13.991,13.991,0,0,1-14.017,13.964,13.991,13.991,0,0,1-14.017-13.964Z" class="color6f7c3e svgShape" transform="translate(-194.394 -75.783)"/><path fill="#94671e" d="M-682.01,526.519a13.993,13.993,0,0,1-14.017,13.964,13.993,13.993,0,0,1-14.019-13.964Z" class="color5d6d31 svgShape" transform="translate(-219.938 -75.783)"/><path fill="#d09124" d="M-628.431,526.519a13.991,13.991,0,0,1-14.017,13.964,13.991,13.991,0,0,1-14.017-13.964Z" class="color6f7c3e svgShape" transform="translate(-245.483 -75.783)"/></g></svg></svg>