<svg xmlns="http://www.w3.org/2000/svg" xmlns:svgjs="http://svgjs.com/svgjs" xmlns:xlink="http://www.w3.org/1999/xlink" width="288" height="288"><svg xmlns="http://www.w3.org/2000/svg" width="288" height="288" viewBox="0 0 48 57.613"><g class="color000 svgShape" transform="translate(-42.714)"><path fill="#ffaa17" d="M128.559,117.545a9.844,9.844,0,0,0-13.905,0l-2.936,2.936a.843.843,0,0,0,1.192,1.192l2.936-2.936a8.157,8.157,0,0,1,11.522,0l2.022,2.022a8.147,8.147,0,0,1,0,11.522l-1.605,1.605a9.872,9.872,0,0,0-1.108-1.318l-1.17-1.171,1.5-1.5a4.776,4.776,0,0,0,0-6.755l-2.022-2.022a4.781,4.781,0,0,0-6.755,0L112,127.346a4.776,4.776,0,0,0,0,6.755l2.022,2.022a4.78,4.78,0,0,0,6.713.04l1.171,1.171a3.033,3.033,0,0,1,.839,1.559,8.157,8.157,0,0,1-11.106-.387l-2.022-2.022a8.147,8.147,0,0,1,0-11.522l.673-.673A.843.843,0,1,0,109.1,123.1l-.673.673a9.845,9.845,0,0,0-1.979,11.073l-1.926,1.926a9.831,9.831,0,0,0,0,13.9l2.021,2.023a9.768,9.768,0,0,0,6.953,2.879.843.843,0,0,0,0-1.685,8.094,8.094,0,0,1-5.761-2.386l-2.022-2.023a8.145,8.145,0,0,1,0-11.521l1.606-1.607a9.942,9.942,0,0,0,1.107,1.321l1.17,1.17-1.5,1.5a4.775,4.775,0,0,0,0,6.755l2.021,2.022a4.777,4.777,0,0,0,6.755,0L123.1,142.9a4.855,4.855,0,0,0,1.383-3.751,4.76,4.76,0,0,0-1.383-3l-2.022-2.023a4.777,4.777,0,0,0-6.713-.04l-1.171-1.171a3.068,3.068,0,0,1-.841-1.557,8.147,8.147,0,0,1,11.109.385l2.022,2.023a8.148,8.148,0,0,1,0,11.521l-6.226,6.226a8.151,8.151,0,0,1-2.227,1.585.843.843,0,0,0,.732,1.518,9.829,9.829,0,0,0,2.687-1.911l6.226-6.226a9.848,9.848,0,0,0,1.979-11.073l1.926-1.926a9.833,9.833,0,0,0,0-13.905ZM115.683,147.93a3.118,3.118,0,0,1-4.371,0l-2.022-2.023a3.089,3.089,0,0,1,0-4.371l1.507-1.508a9.853,9.853,0,0,0,11.451,1.272,3.121,3.121,0,0,1-.34.4ZM119.519,135a3.1,3.1,0,0,1-3.934.248,3.092,3.092,0,0,1,3.934-.248Zm-1.817-7.332a9.8,9.8,0,0,0-4.845,1.274,3.129,3.129,0,0,1,.338-.4l6.225-6.225a3.1,3.1,0,0,1,4.371,0l2.022,2.022a3.091,3.091,0,0,1,0,4.371l-1.508,1.508A9.765,9.765,0,0,0,117.7,127.665Z" class="color85985a svgShape" transform="translate(-52.299 -101.767)"/><path fill="#ffaa17" d="M90.714,4.338A4.343,4.343,0,0,0,86.376,0H47.052a4.343,4.343,0,0,0-4.338,4.338V53.275a4.343,4.343,0,0,0,4.338,4.338H86.376a4.343,4.343,0,0,0,4.338-4.338ZM86.376,55.927H47.052A2.656,2.656,0,0,1,44.4,53.275V11.332H79.007a.843.843,0,0,0,0-1.685H44.4V4.338a2.656,2.656,0,0,1,2.653-2.653H86.376a2.656,2.656,0,0,1,2.653,2.653V9.646H83.023a.843.843,0,1,0,0,1.685h6.005V53.275A2.656,2.656,0,0,1,86.376,55.927Z" class="color85985a svgShape"/><circle cx="1.568" cy="1.568" r="1.568" fill="#ffaa17" class="color85985a svgShape" transform="rotate(-4.069 83.197 -670.234)"/><circle cx="1.568" cy="1.568" r="1.568" fill="#ffaa17" class="color85985a svgShape" transform="translate(52.693 4.098)"/><circle cx="1.568" cy="1.568" r="1.568" fill="#ffaa17" class="color85985a svgShape" transform="translate(57.517 4.098)"/></g></svg></svg>