<svg xmlns="http://www.w3.org/2000/svg" xmlns:svgjs="http://svgjs.com/svgjs" xmlns:xlink="http://www.w3.org/1999/xlink" width="288" height="288"><svg xmlns="http://www.w3.org/2000/svg" width="288" height="288" viewBox="0 0 62.991 63"><path fill="#ffaa17" d="M60.367,6.4,57.375,3.408a11.622,11.622,0,0,0-16.442,0l-8.975,8.975a11.734,11.734,0,0,0-1.353,14.807l-2.643,2.643a11.65,11.65,0,0,0-14.81,1.353L4.179,40.16a11.637,11.637,0,0,0,0,16.442L7.17,59.593a11.62,11.62,0,0,0,16.442,0l8.975-8.974A11.735,11.735,0,0,0,33.94,35.812l2.643-2.643a11.653,11.653,0,0,0,14.81-1.35l8.974-8.974A11.637,11.637,0,0,0,60.367,6.4ZM37.947,18.358,46.91,9.384a3.257,3.257,0,0,1,4.488,0l2.992,2.992a3.179,3.179,0,0,1,0,4.488l-8.975,8.965a3.147,3.147,0,0,1-2.407.917l.295-.294a3.171,3.171,0,0,0,0-4.485l-1.494-1.495a3.171,3.171,0,0,0-4.485,0l-.294.295A3.151,3.151,0,0,1,37.947,18.358Zm.871,3.608a1.057,1.057,0,0,1,1.495,0l1.5,1.5a1.057,1.057,0,0,1,0,1.494L25.364,41.4a1.083,1.083,0,0,1-1.495,0l-1.495-1.495a1.058,1.058,0,0,1,0-1.495ZM26.6,44.646,17.635,53.62a3.257,3.257,0,0,1-4.488,0l-2.992-2.992a3.179,3.179,0,0,1,0-4.487l8.975-8.965a3.157,3.157,0,0,1,2.406-.916l-.657.658a3.171,3.171,0,0,0,0,4.484L22.374,42.9a3.171,3.171,0,0,0,4.484,0l.658-.658A3.154,3.154,0,0,1,26.6,44.646Zm4.494,4.481L22.117,58.1a9.514,9.514,0,0,1-13.452,0L5.674,55.11a9.525,9.525,0,0,1,0-13.453l8.974-8.975a9.525,9.525,0,0,1,11.784-1.32l-3.144,3.143a5.256,5.256,0,0,0-5.654,1.175L8.658,44.645a5.293,5.293,0,0,0,0,7.478l2.992,2.992a5.292,5.292,0,0,0,7.478,0l8.964-8.974a5.26,5.26,0,0,0,1.177-5.653l3.141-3.142A9.605,9.605,0,0,1,31.092,49.127Zm27.78-27.78L49.9,30.321a9.524,9.524,0,0,1-11.784,1.32L41.258,28.5a5.234,5.234,0,0,0,5.652-1.173l8.975-8.964a5.293,5.293,0,0,0,0-7.478L52.894,7.89a5.291,5.291,0,0,0-7.478,0l-8.964,8.973a5.26,5.26,0,0,0-1.175,5.653L32.135,25.66a9.6,9.6,0,0,1,1.318-11.783L42.429,4.9a9.514,9.514,0,0,1,13.453,0l2.991,2.992A9.524,9.524,0,0,1,58.872,21.347Z" class="color556c26 svgShape" transform="translate(-.778 -.001)"/></svg></svg>