<svg xmlns="http://www.w3.org/2000/svg" xmlns:svgjs="http://svgjs.com/svgjs" xmlns:xlink="http://www.w3.org/1999/xlink" width="288" height="288"><svg xmlns="http://www.w3.org/2000/svg" width="288" height="288" viewBox="0 0 58.593 58.593"><path fill="#ffaa17" d="M3.213 3.212a1.008 1.008 0 0 0-.205.322 1.01 1.01 0 0 0 .205 1.065A.981.981 0 0 0 4.6 3.212a1.022 1.022 0 0 0-1.387 0ZM6.464 3.008a.911.911 0 0 0-.322.205.99.99 0 0 0 0 1.387.977.977 0 0 0 1.67-.693 1.027 1.027 0 0 0-.283-.693.993.993 0 0 0-1.065-.206ZM9.394 3.007a1.008 1.008 0 0 0-.322.205.99.99 0 0 0 0 1.387 1.128 1.128 0 0 0 .322.205.977.977 0 0 0 .371.078.967.967 0 0 0 .977-.977 1.027 1.027 0 0 0-.283-.693 1.013 1.013 0 0 0-1.065-.205ZM12.274 16.753h14v2h-14zM12.274 22.753h14v2h-14zM12.274 27.753h19v2h-19zM12.274 33.753h13v2h-13zM12.274 39.753h8v2h-8zM12.274 45.753h7v2h-7z" class="color94a56e svgShape"/><path fill="#ffaa17" d="M54.853 11.719a3.711 3.711 0 0 0-2.644 1.1L48.827 16.2V2.93A2.93 2.93 0 0 0 45.9 0H2.93A2.93 2.93 0 0 0 0 2.93v52.733a2.93 2.93 0 0 0 2.93 2.93H45.9a2.93 2.93 0 0 0 2.93-2.93V26.771L57.5 18.1a3.738 3.738 0 0 0-2.643-6.383ZM1.953 2.93a.977.977 0 0 1 .977-.977H45.9a.977.977 0 0 1 .977.977v2.93H1.953Zm44.921 52.733a.977.977 0 0 1-.977.977H2.93a.977.977 0 0 1-.977-.977V7.812h44.921V18.15l-5.859 5.859V21.08L30.677 10.742H7.812V53.71h33.2V34.583l5.859-5.859ZM23.56 41.464l-2.644 7.931 7.931-2.644 2.807-2.807 7.408-7.408v15.22h-29.3V12.7H29.3v9.765h9.765v3.5l-12.7 12.7Zm2.807-.045 2.525 2.525-1.1 1.1L24 46.307l1.263-3.788Zm4.883-27.343 6.432 6.432h-6.433Zm-.977 28.488-2.525-2.525L50.78 17.006l2.525 2.525ZM56.116 16.72l-1.43 1.43-2.525-2.525 1.43-1.43a1.786 1.786 0 1 1 2.526 2.526Z" class="color94a56e svgShape"/></svg></svg>