<svg xmlns="http://www.w3.org/2000/svg" xmlns:svgjs="http://svgjs.com/svgjs" xmlns:xlink="http://www.w3.org/1999/xlink" width="288" height="288"><svg xmlns="http://www.w3.org/2000/svg" width="288" height="288" viewBox="0 0 57.893 57.893"><path fill="#ffaa17" d="M51.109 12.664a6.783 6.783 0 0 0-6.784 6.784v2.262h-8.177c2.725-4.66 4.106-8.155 4.106-10.4a11.307 11.307 0 0 0-22.615 0c0 2.248 1.381 5.743 4.106 10.4h-8.176v-2.261a6.785 6.785 0 1 0-13.569 0v6.332a1.131 1.131 0 1 0 2.261 0v-6.332a4.523 4.523 0 1 1 9.046 0v26.607a6.77 6.77 0 0 0-9.046 0v-11.23a1.131 1.131 0 0 0-2.261 0v16.283a6.971 6.971 0 0 0 7.107 6.784h44a6.792 6.792 0 0 0 6.784-6.784v-31.66a6.792 6.792 0 0 0-6.784-6.784Zm-4.523 6.784a4.523 4.523 0 0 1 9.046 0v26.578a6.608 6.608 0 0 0-2.734-1.47 6.823 6.823 0 0 0-6.312 1.5v-26.6Zm-2.261 15.83H29.851L17.979 23.971h5.137c2.469 3.943 4.9 7.2 4.925 7.236a1.131 1.131 0 0 0 1.811 0c.025-.034 2.457-3.292 4.925-7.236h9.547ZM28.947 2.261a9.056 9.056 0 0 1 9.046 9.046c0 4.2-6.623 13.907-9.046 17.3-2.461-3.447-9.047-13.14-9.047-17.3a9.056 9.056 0 0 1 9.047-9.046ZM2.261 51.109a4.523 4.523 0 0 1 9.046 0 1.131 1.131 0 0 0 2.261 0V32.263l11.478 10.931-13.06 12.438H7.107a4.7 4.7 0 0 1-4.846-4.523Zm25.2-7.1a1.13 1.13 0 0 0 0-1.638l-13.9-13.234v-5.166H14.7l13.92 13.257a1.131 1.131 0 0 0 .78.312h14.925v4.523h-8.594a1.131 1.131 0 0 0-.8.331L21.694 55.632h-6.429Zm23.648 11.623H24.892L36.2 44.325h8.125v6.784a1.131 1.131 0 0 0 2.261 0 4.534 4.534 0 0 1 5.746-4.364 4.453 4.453 0 0 1 3.3 4.364 4.528 4.528 0 0 1-4.523 4.523Zm0 0" class="color85985a svgShape"/><path fill="#ffaa17" d="M28.947 16.961a5.654 5.654 0 1 0-5.654-5.653 5.66 5.66 0 0 0 5.654 5.653Zm0-9.046a3.392 3.392 0 1 1-3.392 3.392 3.4 3.4 0 0 1 3.392-3.392ZM1.131 31.434A1.131 1.131 0 1 0 0 30.304a1.131 1.131 0 0 0 1.131 1.13Zm0 0" class="color85985a svgShape"/></svg></svg>