<svg xmlns="http://www.w3.org/2000/svg" xmlns:svgjs="http://svgjs.com/svgjs" xmlns:xlink="http://www.w3.org/1999/xlink" width="288" height="288"><svg xmlns="http://www.w3.org/2000/svg" width="288" height="288" viewBox="0 0 58.799 58.799"><path fill="#ffaa17" d="M10.341 45.471a4.8 4.8 0 0 0-2.317.591A27.115 27.115 0 0 1 34.8 2.834a1.149 1.149 0 0 0 .452-2.252A29.618 29.618 0 0 0 29.4 0 29.4 29.4 0 0 0 6.326 47.619a4.825 4.825 0 1 0 4.015-2.148Zm1.786 6.61a2.526 2.526 0 1 1 .74-1.786 2.509 2.509 0 0 1-.739 1.786ZM52.471 11.178a4.813 4.813 0 1 0-1.7 1.558A27.115 27.115 0 0 1 24.05 55.975a1.149 1.149 0 1 0-.451 2.252 29.638 29.638 0 0 0 5.8.572 29.4 29.4 0 0 0 23.072-47.621Zm-5.8-.887a2.527 2.527 0 1 1 1.786.74 2.51 2.51 0 0 1-1.787-.74Zm0 0" class="color94a56e svgShape"/><path fill="#ffaa17" d="M24.66 49.152a1.149 1.149 0 0 0 1.152 1.146h7.181a1.148 1.148 0 0 0 1.148-1.148v-2.226a17.984 17.984 0 0 0 4.31-1.786l1.572 1.572a1.148 1.148 0 0 0 1.624 0l5.075-5.079a1.149 1.149 0 0 0 0-1.624l-1.57-1.57a17.983 17.983 0 0 0 1.786-4.31h2.218a1.148 1.148 0 0 0 1.148-1.148v-7.181a1.148 1.148 0 0 0-1.148-1.148h-2.218a17.987 17.987 0 0 0-1.786-4.31l1.562-1.562a1.149 1.149 0 0 0 0-1.625l-5.08-5.075a1.148 1.148 0 0 0-1.624 0l-1.559 1.56a17.984 17.984 0 0 0-4.31-1.786V9.646a1.148 1.148 0 0 0-1.152-1.148h-7.177a1.149 1.149 0 0 0-1.148 1.148v2.206a17.969 17.969 0 0 0-4.31 1.786l-1.56-1.56a1.149 1.149 0 0 0-1.624 0l-5.079 5.076a1.148 1.148 0 0 0 0 1.624l1.562 1.562a17.981 17.981 0 0 0-1.786 4.31H9.649A1.148 1.148 0 0 0 8.5 25.798v7.181a1.148 1.148 0 0 0 1.148 1.149h2.214a17.984 17.984 0 0 0 1.786 4.31l-1.57 1.57a1.148 1.148 0 0 0 0 1.624l5.075 5.079a1.149 1.149 0 0 0 .812.337 1.148 1.148 0 0 0 .812-.336l1.571-1.572a18 18 0 0 0 4.31 1.786Zm-3.86-6.428a1.149 1.149 0 0 0-1.436.153l-1.4 1.4-3.452-3.457 1.4-1.4a1.148 1.148 0 0 0 .153-1.435 15.719 15.719 0 0 1-2.175-5.25 1.149 1.149 0 0 0-1.123-.907h-1.974v-4.884h1.97a1.148 1.148 0 0 0 1.123-.907 15.72 15.72 0 0 1 2.175-5.25 1.148 1.148 0 0 0-.153-1.435l-1.388-1.388 3.455-3.452 1.39 1.386a1.149 1.149 0 0 0 1.436.153 15.713 15.713 0 0 1 5.25-2.175 1.149 1.149 0 0 0 .907-1.123v-1.955h4.884v1.961a1.148 1.148 0 0 0 .907 1.123 15.726 15.726 0 0 1 5.25 2.175 1.147 1.147 0 0 0 1.435-.153l1.387-1.387 3.455 3.452-1.388 1.388a1.148 1.148 0 0 0-.153 1.436 15.73 15.73 0 0 1 2.175 5.25 1.148 1.148 0 0 0 1.123.907h1.973v4.884h-1.974a1.149 1.149 0 0 0-1.123.907 15.717 15.717 0 0 1-2.175 5.25 1.149 1.149 0 0 0 .153 1.436l1.4 1.4-3.452 3.455-1.4-1.4a1.148 1.148 0 0 0-1.436-.153 15.73 15.73 0 0 1-5.25 2.175 1.148 1.148 0 0 0-.907 1.123v1.981h-4.885v-1.981a1.149 1.149 0 0 0-.907-1.123 15.72 15.72 0 0 1-5.25-2.18Zm0 0" class="color94a56e svgShape"/><path fill="#ffaa17" d="M38.889 29.399a9.489 9.489 0 1 0-9.489 9.489 9.5 9.5 0 0 0 9.489-9.489Zm-16.682 0a7.192 7.192 0 1 1 7.192 7.192 7.2 7.2 0 0 1-7.192-7.192ZM39.973 4.343a1.15 1.15 0 1 0-.812-.336 1.157 1.157 0 0 0 .812.336ZM18.875 54.476a1.149 1.149 0 1 0 .812.336 1.158 1.158 0 0 0-.812-.336Zm0 0" class="color94a56e svgShape"/></svg></svg>