<svg xmlns="http://www.w3.org/2000/svg" xmlns:svgjs="http://svgjs.com/svgjs" xmlns:xlink="http://www.w3.org/1999/xlink" width="288" height="288"><svg xmlns="http://www.w3.org/2000/svg" width="288" height="288" viewBox="0 0 73.066 74.284"><path fill="#ffaa17" d="M42.622 64.542h-2.435V52.608a1.218 1.218 0 0 0-2.436 0v11.934H6.089V40.187h10.132a1.218 1.218 0 1 0 0-2.436H4.871a1.218 1.218 0 0 0-1.218 1.218v25.573H1.218A1.218 1.218 0 0 0 0 65.76v2.436a6.089 6.089 0 0 0 6.089 6.089h31.662a6.089 6.089 0 0 0 6.089-6.089V65.76a1.218 1.218 0 0 0-1.218-1.218ZM41.4 68.195a3.653 3.653 0 0 1-3.649 3.656h-2.436v-1.22a1.218 1.218 0 1 0-2.436 0v1.22H10.96v-1.22a1.218 1.218 0 1 0-2.436 0v1.22H6.089a3.653 3.653 0 0 1-3.653-3.653v-1.22H41.4ZM63.324 8.525h2.436a1.218 1.218 0 0 0 0-2.436h-2.436a3.653 3.653 0 0 0-3.653 3.653v1.218h-1.218a1.218 1.218 0 1 0 0 2.436h1.218v3.653a1.218 1.218 0 0 0 2.436 0v-3.653h1.218a1.218 1.218 0 1 0 0-2.436h-1.219V9.742a1.218 1.218 0 0 1 1.218-1.217Z" class="color85985a svgShape"/><path fill="#ffaa17" d="M69.413 1.218H54.799a3.653 3.653 0 0 0-3.653 3.653v2.436a1.218 1.218 0 0 0 2.436 0V4.871A1.218 1.218 0 0 1 54.8 3.653h14.613a1.218 1.218 0 0 1 1.218 1.218v14.614a1.218 1.218 0 0 1-1.218 1.218H54.799a1.218 1.218 0 0 1-1.218-1.218v-7.307a1.218 1.218 0 1 0-2.436 0v7.307a3.653 3.653 0 0 0 3.653 3.653h14.615a3.653 3.653 0 0 0 3.653-3.653V4.871a3.653 3.653 0 0 0-3.653-3.653ZM57.235 49.929a4.871 4.871 0 1 0 4.871-4.871 4.871 4.871 0 0 0-4.871 4.871Zm7.307 0a2.436 2.436 0 1 1-2.436-2.436 2.436 2.436 0 0 1 2.436 2.436Z" class="color85985a svgShape"/><path fill="#ffaa17" d="M69.413 38.969H54.799a3.653 3.653 0 0 0-3.653 3.653v14.614a3.653 3.653 0 0 0 3.653 3.653h14.614a3.653 3.653 0 0 0 3.653-3.653V54.8a1.218 1.218 0 0 0-2.436 0v2.436a1.218 1.218 0 0 1-1.218 1.218H54.799a1.218 1.218 0 0 1-1.218-1.218V42.622a1.218 1.218 0 0 1 1.218-1.218h14.614a1.218 1.218 0 0 1 1.218 1.218v7.307a1.218 1.218 0 0 0 2.436 0v-7.307a3.653 3.653 0 0 0-3.654-3.653ZM27.363 15.649a1.211 1.211 0 0 0 1.193.049l7.307-3.653a1.218 1.218 0 0 0 0-2.168l-7.306-3.654a1.218 1.218 0 0 0-1.766 1.084v7.307a1.218 1.218 0 0 0 .572 1.035Zm1.864-6.369 3.364 1.68-3.361 1.681Z" class="color85985a svgShape"/><path fill="#ffaa17" d="M30.444 21.92a10.96 10.96 0 1 0-10.96-10.96 10.96 10.96 0 0 0 10.96 10.96Zm0-19.484a8.524 8.524 0 1 1-8.524 8.524 8.524 8.524 0 0 1 8.524-8.524ZM42.622 26.791a1.218 1.218 0 0 0 .974-.487l3.653-4.871a1.218 1.218 0 1 0-1.945-1.462l-3.653 4.871a1.218 1.218 0 0 0 .974 1.948ZM45.302 31.173a1.218 1.218 0 0 0 1.7.244l4.871-3.653a1.218 1.218 0 1 0-1.461-1.948l-4.867 3.657a1.218 1.218 0 0 0-.244 1.7ZM57.235 33.854a1.218 1.218 0 0 0-1.461-.974l-6.086 1.218a1.224 1.224 0 0 0 .244 2.436h.244l6.089-1.218a1.218 1.218 0 0 0 .974-1.461ZM1.218 34.098h14.613a1.218 1.218 0 0 0 1.218-1.22V13.396a1.218 1.218 0 0 0-1.218-1.218H1.218A1.218 1.218 0 0 0 0 13.396v19.482a1.218 1.218 0 0 0 1.218 1.22Zm1.218-19.484h12.177v17.048H2.436Z" class="color85985a svgShape"/><path fill="#ffaa17" d="M10.96 17.049H8.525a1.218 1.218 0 0 0 0 2.436h2.436a1.218 1.218 0 0 0 0-2.436ZM10.96 21.92H6.089a1.218 1.218 0 0 0 0 2.436h4.871a1.218 1.218 0 0 0 0-2.436ZM10.96 26.791H6.089a1.218 1.218 0 1 0 0 2.436h4.871a1.218 1.218 0 1 0 0-2.436ZM41.551 33.733a1.222 1.222 0 0 0-2.119 1.217l5.37 9.292-19.484 7.307h-.186l-3.166 1.827-2.104 1.216a2.432 2.432 0 0 1-3.325-.889l-2.435-4.211a2.436 2.436 0 0 1 .913-3.215l4.217-2.437 3.044 5.273a1.222 1.222 0 1 0 2.116-1.221l-3.142-5.431L36.532 29.86l.5.865a1.222 1.222 0 0 0 2.119-1.218L37.932 27.4a1.234 1.234 0 0 0-1.839-.329L19.046 41.125l-5.188 3a4.871 4.871 0 0 0-2.241 5.517l-1.218.694a3.65 3.65 0 0 0 1.827 6.82 3.726 3.726 0 0 0 1.827-.487l1.218-.694a4.725 4.725 0 0 0 2.131 1.266 4.615 4.615 0 0 0 1.279.17 4.8 4.8 0 0 0 2.436-.658l1.059-.609 2.436 4.226a3.651 3.651 0 1 0 6.32-3.658l-2.216-3.86 18.266-6.86a1.221 1.221 0 0 0 .633-1.741ZM12.787 54.544a1.217 1.217 0 1 1-1.218-2.107l1.059-.609 1.218 2.107Zm16.026 3.41a1.217 1.217 0 0 1-2.107 1.218l-2.436-4.226 2.022-1.154h.1Z" class="color85985a svgShape"/></svg></svg>