<svg xmlns="http://www.w3.org/2000/svg" xmlns:svgjs="http://svgjs.com/svgjs" xmlns:xlink="http://www.w3.org/1999/xlink" width="288" height="288"><svg xmlns="http://www.w3.org/2000/svg" width="288" height="288" viewBox="0 0 60 59.999"><path fill="#ffaa17" d="M3.001 49.999h16.382l-2 4h-3.382a3 3 0 0 0 0 6h28a3 3 0 0 0 0-6h-3.382l-2-4h16.382a3.1 3.1 0 0 0 3-3.18V11.163l.957-.957.008-.012 2.148-2.146a3.036 3.036 0 0 0 0-4.287L56.239.887a3.035 3.035 0 0 0-4.287 0l-2.146 2.147-.012.008-.957.957H3.001a3.1 3.1 0 0 0-3 3.18v39.64a3.1 3.1 0 0 0 3 3.18Zm40 7a1 1 0 0 1-1 1h-28a1 1 0 0 1 0-2h28a1 1 0 0 1 1 1Zm-6.618-3H19.619l2-4h12.764Zm4.486-38.362 3.492 3.491-5.355 1.854Zm3.868 1.04 8.639-8.639 1.461 1.461-8.636 8.639Zm8.629-14.378a1.031 1.031 0 0 1 1.459 0l2.876 2.876a1.032 1.032 0 0 1 0 1.459l-1.45 1.449-4.334-4.332Zm-2.865 2.864 1.461 1.461-8.639 8.639-1.461-1.464Zm-47.5.836h43.836l-7.1 7.1a.981.981 0 0 0-.23.384h-.006l-2.387 6.847a2 2 0 0 0 1.882 2.669 2.064 2.064 0 0 0 .68-.116l6.847-2.384v-.007a.981.981 0 0 0 .384-.23l7.1-7.1v28.837H10.001a1 1 0 0 0 0 2h44v2.82a1.116 1.116 0 0 1-1 1.18h-50a1.116 1.116 0 0 1-1-1.18v-2.82h4a1 1 0 0 0 0-2h-4V7.179a1.116 1.116 0 0 1 1-1.18Z" class="color85985a svgShape"/><path fill="#ffaa17" d="M7.001 21.999h24a3 3 0 0 0 3-3v-8a3 3 0 0 0-3-3h-24a3 3 0 0 0-3 3v8a3 3 0 0 0 3 3Zm25-11v3h-3a1 1 0 0 1-1-1v-3h3a1 1 0 0 1 1 1Zm-26 0a1 1 0 0 1 1-1h19v3a3 3 0 0 0 3 3h3v3a1 1 0 0 1-1 1h-24a1 1 0 0 1-1-1ZM20.001 23.999h-13a2 2 0 0 0-2 2v12a2 2 0 0 0 2 2h13a2 2 0 0 0 2-2v-12a2 2 0 0 0-2-2Zm0 2v8h-13v-8Zm-13 12v-2h13v2Z" class="color85985a svgShape"/><path fill="#ffaa17" d="M12.294 31.706a1 1 0 0 0 1.414 0l1-1a1 1 0 0 0 0-1.414l-1-1a1 1 0 0 0-1.414 1.414l.293.293-.293.293a1 1 0 0 0 0 1.414ZM24.001 25.999a1 1 0 0 0 1 1h26a1 1 0 0 0 0-2h-26a1 1 0 0 0-1 1ZM51.001 28.999h-4a1 1 0 0 0 0 2h4a1 1 0 0 0 0-2ZM25.001 30.999h18a1 1 0 0 0 0-2h-18a1 1 0 0 0 0 2ZM51.001 32.999h-19a1 1 0 0 0 0 2h19a1 1 0 0 0 0-2ZM25.001 34.999h3a1 1 0 0 0 0-2h-3a1 1 0 0 0 0 2ZM38.001 36.999h-13a1 1 0 0 0 0 2h13a1 1 0 0 0 0-2Z" class="color85985a svgShape"/></svg></svg>