<svg xmlns="http://www.w3.org/2000/svg" xmlns:svgjs="http://svgjs.com/svgjs" xmlns:xlink="http://www.w3.org/1999/xlink" width="288" height="288"><svg xmlns="http://www.w3.org/2000/svg" width="288" height="288" viewBox="0 0 62 62.513"><g class="color000 svgShape" transform="translate(-1 -.487)"><path fill="#ffaa17" d="M31.689,32.872l.311.1.311-.1C32.438,32.83,45,28.58,45,16V9.755l-1.152.178c-6.391.987-11.1-3.6-11.142-3.641L32,5.589l-.7.7c-.047.046-4.715,4.626-11.141,3.64L19,9.755V16C19,28.58,31.563,32.83,31.689,32.872ZM21,12.039a15.93,15.93,0,0,0,11-3.7,15.969,15.969,0,0,0,11,3.7V16c0,10.193-9.128,14.154-11,14.858C30.194,30.157,21,26.1,21,16Z" class="color5e6f27 svgShape"/><path fill="#ffaa17" d="M39.707,16.628l-1.414-1.414L30,23.507l-3.293-3.293-1.414,1.414L30,26.335Z" class="color5e6f27 svgShape"/><path fill="#ffaa17" d="M57,19H51V29H44.54A19.9,19.9,0,0,0,49,16.052V4.782l-1.382.571c-8.214,3.4-14.6-3.709-14.867-4.013L32,.487l-.75.853c-.268.3-6.656,7.411-14.866,4.013L15,4.782v11.27A19.9,19.9,0,0,0,19.46,29H13V19H7a6.006,6.006,0,0,0-6,6V57a6.006,6.006,0,0,0,6,6H57a6.006,6.006,0,0,0,6-6V25A6.006,6.006,0,0,0,57,19Zm-4,2h4a4,4,0,0,1,0,8H53ZM17,7.694c7.178,2.143,12.993-2.41,15-4.282,2.006,1.873,7.82,6.43,15,4.281v8.358c0,14.083-12.958,18.331-15,18.911C30.065,34.39,17,30,17,16.052ZM7,21h4v8H7a4,4,0,0,1,0-8ZM57,61H7a4,4,0,0,1-4-4V29.46A5.969,5.969,0,0,0,7,31H21.322a26.533,26.533,0,0,0,10.435,5.97l.243.061.243-.061A26.533,26.533,0,0,0,42.678,31H57a5.969,5.969,0,0,0,4-1.54V57a4,4,0,0,1-4,4Z" class="color5e6f27 svgShape"/><path fill="#ffaa17" d="M11 57h2v2H11zM15 57h2v2H15zM19 57h2v2H19zM23 57h2v2H23zM7 57H9v2H7zM55 51H45a4 4 0 000 8H55a4 4 0 000-8zm0 6H45a2 2 0 010-4H55a2 2 0 010 4zM55 41H45a4 4 0 000 8H55a4 4 0 000-8zm0 6H45a2 2 0 010-4H55a2 2 0 010 4zM41 37H59v2H41zM57 33h2v2H57zM53 33h2v2H53zM49 33h2v2H49zM45 33h2v2H45zM41 33h2v2H41zM26.279 47.882a11 11 0 10-1.046 2.077L28.452 55H37V53H29.548zM13.384 47a11.911 11.911 0 010-6h5.228a11.807 11.807 0 010 6zm4.556 2a16.337 16.337 0 01-1.95 3.406A16.365 16.365 0 0114.053 49zM7 44a8.936 8.936 0 01.525-3h3.8a13.842 13.842 0 000 6h-3.8A8.936 8.936 0 017 44zm7.053-5a16.32 16.32 0 011.937-3.406A16.265 16.265 0 0117.94 39zm6.616 2h3.806a8.834 8.834 0 010 6H20.669a13.761 13.761 0 000-6zm2.809-2H20.1a17.65 17.65 0 00-1.868-3.709A9.021 9.021 0 0123.478 39zm-9.727-3.7A17.67 17.67 0 0011.9 39H8.522a9.025 9.025 0 015.229-3.7zM8.522 49H11.9a17.645 17.645 0 001.853 3.7A9.025 9.025 0 018.522 49zm9.706 3.709A17.6 17.6 0 0020.1 49h3.382A9.021 9.021 0 0118.228 52.709z" class="color5e6f27 svgShape"/><path fill="#ffaa17" d="M31 49h2v2H31zM35 49h2v2H35z" class="color5e6f27 svgShape"/></g></svg></svg>