<svg xmlns="http://www.w3.org/2000/svg" xmlns:svgjs="http://svgjs.com/svgjs" xmlns:xlink="http://www.w3.org/1999/xlink" width="288" height="288"><svg xmlns="http://www.w3.org/2000/svg" width="288" height="288" viewBox="0 0 63.387 55.475"><path fill="#ffaa17" d="M60.415-.001H2.971A2.975 2.975 0 0 0 0 2.97v51.506a.99.99 0 0 0 .99.99h7.885c.014 0 .025.008.039.008h7.925c.014 0 .025-.007.039-.008h10.814c.014 0 .025.008.039.008h7.925c.014 0 .025-.007.039-.008h10.814c.014 0 .025.008.039.008h7.925c.014 0 .025-.007.039-.008H62.4a.99.99 0 0 0 .99-.99V2.97a2.975 2.975 0 0 0-2.971-2.971ZM47.538 53.485v-2.961h5.944v2.961Zm1.982-4.942a.99.99 0 1 1 1.981 0Zm4.953 0h-.991a2.971 2.971 0 0 0-5.942 0h-.991a.99.99 0 0 0-.99.99v3.952h-1.98V44.58h13.864v8.905h-1.98v-3.951a.99.99 0 0 0-.99-.991Zm3.961-5.944H42.587a.99.99 0 0 0-.99.99v9.9h-.989v-9.9a.99.99 0 0 0-.99-.99H23.77a.99.99 0 0 0-.99.99v9.9h-.99v-9.9a.99.99 0 0 0-.99-.99H4.953a.99.99 0 0 0-.99.99v9.9H1.981V5.941h59.425v47.544h-1.982v-9.9a.99.99 0 0 0-.99-.986ZM28.721 53.485v-2.961h5.944v2.961Zm1.979-4.942a.99.99 0 0 1 1.981 0Zm4.953 0h-.991a2.971 2.971 0 1 0-5.942 0h-.991a.99.99 0 0 0-.99.99v3.952H24.76V44.58h13.866v8.905h-1.98v-3.951a.99.99 0 0 0-.99-.991ZM9.9 53.485v-2.961h5.944v2.961Zm1.981-4.942a.99.99 0 1 1 1.981 0Zm4.954 0h-.992a2.971 2.971 0 1 0-5.942 0h-.99a.99.99 0 0 0-.99.99v3.952H5.943V44.58h13.866v8.905h-1.98v-3.951a.99.99 0 0 0-.99-.991ZM2.971 1.98h1.01a1 1 0 1 0 .011 0h2.96a1 1 0 1 0 .011 0h2.963a1 1 0 1 0 .011 0h50.478a.991.991 0 0 1 .99.99v.99H1.981v-.99a.991.991 0 0 1 .99-.99Z" class="color85985a svgShape"/><path fill="#ffaa17" d="M39.617 7.922H4.953a.99.99 0 0 0-.99.99v30.7a.99.99 0 0 0 .99.99h34.664a.99.99 0 0 0 .99-.99v-30.7a.99.99 0 0 0-.99-.99Zm-.99 30.7H5.944V9.903h32.683ZM42.587 18.821h15.846a.99.99 0 1 0 0-1.981H42.587a.99.99 0 0 0 0 1.981ZM42.587 15.85h15.846a.99.99 0 1 0 0-1.981H42.587a.99.99 0 0 0 0 1.981ZM42.587 21.792h7.91a.99.99 0 0 0 0-1.979h-7.91a.99.99 0 0 0 0 1.981ZM42.587 26.742h7.91a.99.99 0 0 0 0-1.977h-7.91a.99.99 0 0 0 0 1.981ZM59.424 30.701a.99.99 0 0 0-.99-.99H42.587a.99.99 0 0 0-.99.99v2.971a.99.99 0 0 0 .99.99h15.847a.99.99 0 0 0 .99-.99Zm-1.981 1.981H43.578v-.99h13.866ZM55.463 24.763a.99.99 0 0 0-.99-.99h-.989a.3.3 0 0 0-.032.002.941.941 0 0 0-.186.038.976.976 0 0 0-.2.052c-.009 0-.02 0-.029.008a.878.878 0 0 0-.111.087.916.916 0 0 0-.168.132.973.973 0 0 0-.1.155 1.018 1.018 0 0 0-.092.163 1 1 0 0 0-.043.21.929.929 0 0 0-.028.139c0 .011.006.02.006.03a.965.965 0 0 0 .04.194.91.91 0 0 0 .051.188.261.261 0 0 0 .008.03l.359.719a.974.974 0 0 0-.464.817.99.99 0 0 0 .99.99h.994a.982.982 0 0 0 .409-.1c.009 0 .019 0 .027-.007a.966.966 0 0 0 .112-.087.944.944 0 0 0 .167-.132.973.973 0 0 0 .1-.155 1.067 1.067 0 0 0 .093-.164 1.042 1.042 0 0 0 .042-.209.929.929 0 0 0 .028-.139c0-.011-.006-.02-.006-.03a3.171 3.171 0 0 0-.091-.383c0-.009 0-.02-.008-.029l-.359-.719a.97.97 0 0 0 .465-.817Z" class="color85985a svgShape"/><path fill="#ffaa17" d="M10.894 36.644h22.779a.99.99 0 0 0 .99-.99V18.817a.99.99 0 0 0-.99-.99h-2.969v-.01a5.929 5.929 0 0 0-8.421-5.394 5.93 5.93 0 0 0-8.422 5.394v.012h-2.967a.99.99 0 0 0-.99.99v16.835a.99.99 0 0 0 .99.99Zm21.788-1.981h-2.971V19.807h2.971Zm-3.957-16.854v.019h-2.973v-.025a5.912 5.912 0 0 0-1.479-3.9 3.867 3.867 0 0 1 .494-.051 3.965 3.965 0 0 1 3.961 3.956Zm-7.922.006a3.942 3.942 0 0 1 1.484-3.066 3.943 3.943 0 0 1 1.483 3.066s0 .006 0 .01h-2.966v-.012Zm-1-3.962a3.7 3.7 0 0 1 .494.051 5.913 5.913 0 0 0-1.474 3.886V17.827h-2.977v-.012a3.966 3.966 0 0 1 3.958-3.962Zm-7.922 5.954H27.73v14.856H11.885Z" class="color85985a svgShape"/></svg></svg>