<svg xmlns="http://www.w3.org/2000/svg" xmlns:svgjs="http://svgjs.com/svgjs" xmlns:xlink="http://www.w3.org/1999/xlink" width="288" height="288"><svg xmlns="http://www.w3.org/2000/svg" width="288" height="288" viewBox="0 0 56 56"><path fill="#ffaa17" d="M52.509 18.882A3.5 3.5 0 0 0 56 15.391V6.9a3.5 3.5 0 0 0-3.491-3.5h-.123A3.572 3.572 0 0 0 48.822 0H7.178a3.572 3.572 0 0 0-3.563 3.4h-.123A3.5 3.5 0 0 0 0 6.9v8.5a3.5 3.5 0 0 0 3.491 3.491h.119v1.379h-.118A3.5 3.5 0 0 0 0 23.753v8.5a3.5 3.5 0 0 0 3.492 3.487h.119v1.378h-.119A3.5 3.5 0 0 0 0 40.61v8.5a3.5 3.5 0 0 0 3.492 3.49h.123A3.571 3.571 0 0 0 7.178 56h41.644a3.571 3.571 0 0 0 3.563-3.4h.123A3.5 3.5 0 0 0 56 49.106v-8.5a3.5 3.5 0 0 0-3.491-3.492h-.119V35.74h.119A3.5 3.5 0 0 0 56 32.248v-8.5a3.5 3.5 0 0 0-3.491-3.491h-.119v-1.375ZM7.178 1.641h41.644A1.929 1.929 0 0 1 50.741 3.4H5.26a1.928 1.928 0 0 1 1.918-1.759ZM54.36 40.61v8.5a1.853 1.853 0 0 1-1.851 1.851H13.892a.821.821 0 0 0 0 1.641h36.849a1.928 1.928 0 0 1-1.918 1.763H7.178A1.928 1.928 0 0 1 5.26 52.6h3.71a.821.821 0 0 0 0-1.641H3.492a1.853 1.853 0 0 1-1.851-1.851v-8.5a1.853 1.853 0 0 1 1.851-1.851h49.017a1.853 1.853 0 0 1 1.851 1.853Zm0-16.858v8.5a1.853 1.853 0 0 1-1.851 1.848h-7.447a.821.821 0 0 0 0 1.641h5.687v1.378H5.251V35.74h34.342a.821.821 0 0 0 0-1.641H3.491a1.853 1.853 0 0 1-1.851-1.851v-8.5A1.853 1.853 0 0 1 3.491 21.9h49.018a1.852 1.852 0 0 1 1.851 1.851Zm-3.611-3.491H5.251v-1.379h3.61a.821.821 0 0 0 0-1.641H3.492a1.853 1.853 0 0 1-1.851-1.851V6.9a1.853 1.853 0 0 1 1.851-1.856h49.017A1.853 1.853 0 0 1 54.36 6.9v8.5a1.853 1.853 0 0 1-1.851 1.851h-.742a.8.8 0 0 0-.395 0H14.767a.821.821 0 0 0 0 1.641h35.982Zm0 0" class="color85985a svgShape"/><path fill="#ffaa17" d="M6.455 41.835a.821.821 0 0 0 0 1.641.821.821 0 0 0 0-1.641ZM11.158 41.835a.821.821 0 0 0 0 1.641.821.821 0 0 0 0-1.641ZM6.455 46.101a.821.821 0 0 0 0 1.641.821.821 0 0 0 0-1.641ZM11.158 46.101a.821.821 0 0 0 0 1.641.821.821 0 0 0 0-1.641ZM15.86 41.835a.821.821 0 0 0 0 1.641.821.821 0 0 0 0-1.641ZM15.86 46.101a.821.821 0 0 0 0 1.641.821.821 0 0 0 0-1.641ZM6.455 25.208a.821.821 0 0 0 0 1.64.821.821 0 0 0 0-1.64ZM11.158 25.208a.821.821 0 0 0 0 1.64.821.821 0 0 0 0-1.64ZM6.455 29.477a.821.821 0 0 0 0 1.641.821.821 0 0 0 0-1.641ZM11.158 29.477a.821.821 0 0 0 0 1.641.821.821 0 0 0 0-1.641ZM15.86 25.208a.821.821 0 0 0 0 1.64.821.821 0 0 0 0-1.64ZM15.86 29.477a.821.821 0 0 0 0 1.641.821.821 0 0 0 0-1.641ZM6.455 8.26a.821.821 0 0 0 0 1.641.821.821 0 0 0 0-1.641ZM11.158 8.26a.821.821 0 0 0 0 1.641.821.821 0 0 0 0-1.641ZM6.455 12.525a.821.821 0 0 0 0 1.641.821.821 0 0 0 0-1.641ZM11.158 12.525a.821.821 0 0 0 0 1.641.821.821 0 0 0 0-1.641ZM15.86 9.9a.821.821 0 0 0 0-1.641.821.821 0 0 0 0 1.641ZM15.86 14.166a.821.821 0 0 0 0-1.641.821.821 0 0 0 0 1.641ZM37.461 14.439a3.226 3.226 0 1 0-3.223-3.227 3.23 3.23 0 0 0 3.223 3.227Zm0-4.812a1.586 1.586 0 1 1-1.586 1.586 1.588 1.588 0 0 1 1.586-1.586ZM47.195 14.439a3.226 3.226 0 1 0-3.227-3.227 3.23 3.23 0 0 0 3.227 3.227Zm0-4.812a1.586 1.586 0 1 1-1.586 1.586 1.587 1.587 0 0 1 1.586-1.586ZM37.461 24.934a3.226 3.226 0 1 0 3.226 3.226 3.23 3.23 0 0 0-3.226-3.226Zm0 4.812a1.586 1.586 0 1 1 1.586-1.586 1.588 1.588 0 0 1-1.586 1.59ZM47.195 24.934a3.226 3.226 0 1 0 3.226 3.226 3.23 3.23 0 0 0-3.226-3.226Zm0 4.812a1.586 1.586 0 1 1 1.586-1.586 1.588 1.588 0 0 1-1.586 1.59ZM37.461 41.562a3.227 3.227 0 1 0 3.226 3.227 3.23 3.23 0 0 0-3.226-3.227Zm0 4.813a1.586 1.586 0 1 1 1.586-1.586 1.588 1.588 0 0 1-1.586 1.581ZM47.195 41.562a3.227 3.227 0 1 0 3.226 3.227 3.23 3.23 0 0 0-3.226-3.227Zm0 4.813a1.586 1.586 0 1 1 1.586-1.586 1.588 1.588 0 0 1-1.586 1.581Zm0 0" class="color85985a svgShape"/></svg></svg>