<svg xmlns="http://www.w3.org/2000/svg" xmlns:svgjs="http://svgjs.com/svgjs" xmlns:xlink="http://www.w3.org/1999/xlink" width="288" height="288"><svg xmlns="http://www.w3.org/2000/svg" width="288" height="288" viewBox="0 0 68.001 68"><g class="color000 svgShape" transform="translate(-227.674 -220.757)"><path fill="#ffaa17" d="M294.644,248.96h-7.208V229.383a1.03,1.03,0,1,0-2.06,0V248.96H279.2V226.636a1.031,1.031,0,1,0-2.061,0V248.96h-6.182V232.132a1.031,1.031,0,1,0-2.063,0V248.96h-6.181V237.627a1.03,1.03,0,0,0-2.06,0V248.96h-6.184V232.132a1.031,1.031,0,1,0-2.061,0V248.96h-6.182V239a1.031,1.031,0,0,0-2.061,0v9.961h-6.181V244.5a1.031,1.031,0,0,0-2.061,0v4.464H228.7a1.031,1.031,0,0,0,0,2.061h3.345l2.536,8.868a1.031,1.031,0,0,0,.99.747h3.343l2.534,8.87a1.031,1.031,0,0,0,.99.747h6.124l5.26,15.78a1.032,1.032,0,0,0,.979.7,1.058,1.058,0,0,0,.326-.052l15.454-5.15a1.035,1.035,0,0,0,.652-.652l3.545-10.631h6.124a1.032,1.032,0,0,0,.99-.747l2.533-8.87h3.346a1.033,1.033,0,0,0,.99-.747l2.533-8.868h3.345a1.031,1.031,0,1,0,0-2.061Zm-25.2,30.781L255.458,284.4l-4.717-14.15h21.868Zm10.684-11.55H243.219l-2.159-7.555h41.228ZM287,258.575H236.351l-2.16-7.554h54.966Z" class="color85985a svgShape" transform="translate(0 2.02)"/><path fill="#ffaa17" d="M234.523,242.051a1.036,1.036,0,0,0,.66-.238l15.895-13.246,7.6,5.069a1.032,1.032,0,0,0,1.145,0l15.987-10.66,7.708,3.855a1.03,1.03,0,1,0,.922-1.843l-8.242-4.122a1.033,1.033,0,0,0-1.033.065l-15.915,10.609-7.673-5.114a1.03,1.03,0,0,0-1.231.067l-16.487,13.737a1.031,1.031,0,0,0,.66,1.822Z" class="color85985a svgShape" transform="translate(2.424)"/></g></svg></svg>