<svg xmlns="http://www.w3.org/2000/svg" xmlns:svgjs="http://svgjs.com/svgjs" xmlns:xlink="http://www.w3.org/1999/xlink" width="288" height="288"><svg xmlns="http://www.w3.org/2000/svg" width="288" height="288" viewBox="0 0 73.318 63"><g class="color000 svgShape" transform="translate(-2754.268 -2295.508)"><path fill="#ffaa17" d="M2822.9,2295.508h-63.939a4.7,4.7,0,0,0-4.69,4.69v53.62a4.7,4.7,0,0,0,4.69,4.69H2822.9a4.7,4.7,0,0,0,4.69-4.69V2300.2A4.7,4.7,0,0,0,2822.9,2295.508Zm2.467,58.31a2.47,2.47,0,0,1-2.467,2.467h-63.939a2.47,2.47,0,0,1-2.467-2.467V2300.2a2.47,2.47,0,0,1,2.467-2.467H2822.9a2.47,2.47,0,0,1,2.467,2.467Z" class="color738942 svgShape"/><path fill="#ffaa17" d="M2772.064,2323.861h59.113a1.111,1.111,0,0,0,0-2.223h-59.113a1.111,1.111,0,1,0,0,2.223Z" class="color738942 svgShape" transform="translate(-10.693 -16.747)"/><path fill="#ffaa17" d="M2775.25,2311.346a1.2,1.2,0,1,0-1.2-1.2A1.2,1.2,0,0,0,2775.25,2311.346Z" class="color738942 svgShape" transform="translate(-12.677 -8.609)"/><path fill="#ffaa17" d="M2786.082,2311.346a1.2,1.2,0,1,0-1.2-1.2A1.2,1.2,0,0,0,2786.082,2311.346Z" class="color738942 svgShape" transform="translate(-19.619 -8.609)"/><path fill="#ffaa17" d="M2796.913,2311.346a1.2,1.2,0,1,0-1.2-1.2A1.2,1.2,0,0,0,2796.913,2311.346Z" class="color738942 svgShape" transform="translate(-26.56 -8.609)"/><g class="color000 svgShape" transform="translate(2774.967 2314.792)"><path fill="#ffaa17" d="M2833.026,2412.561a.836.836,0,0,1-.594-.246l-4.416-4.416a.84.84,0,0,1,1.188-1.187l4.415,4.416a.84.84,0,0,1-.593,1.433Z" class="color738942 svgShape" transform="translate(-2822.074 -2385.906)"/><path fill="#ffaa17" d="M2841.7,2375.6a13.135,13.135,0,0,1-6.662-1.811.84.84,0,0,1,.85-1.448,11.514,11.514,0,1,0-4.116-4.116.84.84,0,0,1-1.448.85,13.191,13.191,0,1,1,11.377,6.526Z" class="color738942 svgShape" transform="translate(-2822.551 -2349.209)"/><path fill="#ffaa17" d="M2815.868,2388.96a3.96,3.96,0,0,1-2.8-6.762l7.616-7.615a3.9,3.9,0,0,1,2.121-1.1,9.042,9.042,0,1,1,4.58,4.58,3.91,3.91,0,0,1-1.1,2.12l-7.615,7.615A3.948,3.948,0,0,1,2815.868,2388.96Zm7.6-13.85a2.241,2.241,0,0,0-1.594.66l-7.616,7.615a2.283,2.283,0,0,0,3.229,3.228L2825.1,2379a2.26,2.26,0,0,0,.587-2.174.839.839,0,0,1,1.282-.9,7.371,7.371,0,1,0-2.021-2.021.84.84,0,0,1-.9,1.282A2.38,2.38,0,0,0,2823.464,2375.111Z" class="color738942 svgShape" transform="translate(-2811.908 -2356.608)"/></g></g></svg></svg>