<svg xmlns="http://www.w3.org/2000/svg" xmlns:svgjs="http://svgjs.com/svgjs" xmlns:xlink="http://www.w3.org/1999/xlink" width="288" height="288"><svg xmlns="http://www.w3.org/2000/svg" width="288" height="288" viewBox="0 0 61.67 65.791"><path fill="#ffaa17" d="M77.157,14.516,47.286.1a.964.964,0,0,0-.838,0L16.577,14.516a.964.964,0,0,0-.545.868V50.405a.964.964,0,0,0,.545.868L46.448,65.694a.964.964,0,0,0,.838,0L77.157,51.273a.964.964,0,0,0,.545-.868V15.384A.964.964,0,0,0,77.157,14.516ZM46.867,2.033l27.655,13.35L66.5,19.254a.956.956,0,0,0-.163-.1L38.875,5.891ZM36.7,6.981,64.313,20.312l-5.656,2.73L31.054,9.717ZM64.959,22.14V32.233l-5.283,2.55V24.691ZM75.774,49.8,47.831,63.29V30.409L54.5,27.191a.964.964,0,1,0-.838-1.736l-6.791,3.279-2.672-1.29a.964.964,0,0,0-.838,1.736L45.9,30.409V63.29L17.959,49.8V16.919L39.238,27.192a.964.964,0,0,0,.838-1.736L19.212,15.384l9.574-4.622L57.735,24.738l.013.017V36.319a.964.964,0,0,0,1.383.868l7.21-3.481a.964.964,0,0,0,.545-.868V21.21l8.888-4.291V49.8Z" class="color556c26 svgShape" transform="translate(-16.032 .001)"/><path fill="#ffaa17" d="M53.815,343.474l-4.384-2.116a.964.964,0,0,0-.838,1.736l4.384,2.116a.964.964,0,0,0,.838-1.736Z" class="color556c26 svgShape" transform="translate(-43.934 -297.41)"/><path fill="#ffaa17" d="M57.891,309.847l-8.412-4.061a.964.964,0,0,0-.838,1.736l8.412,4.061a.964.964,0,0,0,.838-1.736Z" class="color556c26 svgShape" transform="translate(-43.976 -266.41)"/></svg></svg>