<svg xmlns="http://www.w3.org/2000/svg" xmlns:svgjs="http://svgjs.com/svgjs" xmlns:xlink="http://www.w3.org/1999/xlink" width="288" height="288"><svg xmlns="http://www.w3.org/2000/svg" width="288" height="288" viewBox="0 0 59 59"><g class="color000 svgShape" transform="translate(-64.87 -51.995)"><path fill="#ffaa17" d="M119.413,51.995H69.327a4.442,4.442,0,0,0-4.457,4.457v39.46a4.448,4.448,0,0,0,4.457,4.484H87.752v4.756H86.5a4.953,4.953,0,0,0-4.946,4.973.882.882,0,0,0,.9.87h23.834a.9.9,0,0,0,.9-.87,4.97,4.97,0,0,0-4.946-4.973H100.96V100.4h18.453a4.465,4.465,0,0,0,4.457-4.484V56.452A4.46,4.46,0,0,0,119.413,51.995ZM66.636,56.452a2.673,2.673,0,0,1,2.69-2.663h50.086a2.668,2.668,0,0,1,2.663,2.663V91.917H66.636Zm38.618,52.777h-21.8a3.163,3.163,0,0,1,3.044-2.256h15.735A3.155,3.155,0,0,1,105.254,109.229Zm-6.088-4.077h-9.62V100.4h9.62Zm22.91-9.24a2.7,2.7,0,0,1-2.663,2.718H69.327a2.7,2.7,0,0,1-2.69-2.718V93.684h55.44Z" class="color85985a svgShape"/><path fill="#ffaa17" d="M91.586,62.941l-3.859-.625-.109-.217,2.31-3.152a.942.942,0,0,0,0-1.06,14.448,14.448,0,0,0-3.152-3.152.9.9,0,0,0-1.06.027l-3.152,2.283-.218-.082-.625-3.886a.932.932,0,0,0-.707-.734,13.63,13.63,0,0,0-4.457,0,.961.961,0,0,0-.761.734l-.6,3.886-.244.082L71.8,54.761a.856.856,0,0,0-1.032-.027,14.449,14.449,0,0,0-3.153,3.152.943.943,0,0,0,0,1.06L69.9,62.1l-.081.217-3.859.625a.865.865,0,0,0-.734.734,12.139,12.139,0,0,0-.19,2.229,12.347,12.347,0,0,0,.19,2.229.836.836,0,0,0,.734.706l3.859.652.081.217-2.283,3.153a.9.9,0,0,0,0,1.033,13.353,13.353,0,0,0,3.153,3.153.818.818,0,0,0,1.032,0l3.153-2.283.244.081.6,3.859a.956.956,0,0,0,.761.761,14.842,14.842,0,0,0,2.229.163,15.388,15.388,0,0,0,2.229-.163.93.93,0,0,0,.707-.761l.625-3.859.218-.109,3.152,2.31a.857.857,0,0,0,1.06,0,13.877,13.877,0,0,0,3.152-3.153.9.9,0,0,0,0-1.033l-2.31-3.153.109-.217,3.832-.652a.866.866,0,0,0,.761-.706,15.946,15.946,0,0,0,.163-2.229,15.654,15.654,0,0,0-.163-2.229A.928.928,0,0,0,91.586,62.941Zm-.951,4.267-3.723.571a.846.846,0,0,0-.679.625,7.7,7.7,0,0,1-.435.978.863.863,0,0,0,.082.951l2.2,3.017a12.07,12.07,0,0,1-1.848,1.875L83.188,73a.873.873,0,0,0-.924-.054,6.48,6.48,0,0,1-1.006.408.935.935,0,0,0-.6.707l-.6,3.723a13.954,13.954,0,0,1-2.609,0l-.571-3.723a.919.919,0,0,0-.625-.707,6.169,6.169,0,0,1-.978-.408.869.869,0,0,0-.924.054l-3.071,2.229a10.8,10.8,0,0,1-1.821-1.875l2.2-3.017a.989.989,0,0,0,.081-.951,6.313,6.313,0,0,1-.435-.978.88.88,0,0,0-.707-.625l-3.7-.571a10.51,10.51,0,0,1-.081-1.3,10.188,10.188,0,0,1,.081-1.3l3.7-.571a.924.924,0,0,0,.707-.625,10.261,10.261,0,0,1,.435-1.006.937.937,0,0,0-.081-.924l-2.2-3.044a10.652,10.652,0,0,1,1.821-1.848l3.071,2.2a.777.777,0,0,0,.9.081,9.778,9.778,0,0,1,1.005-.408.916.916,0,0,0,.625-.734l.571-3.669a10.477,10.477,0,0,1,2.609,0l.6,3.669a.932.932,0,0,0,.6.734,7.816,7.816,0,0,1,1.006.408.824.824,0,0,0,.924-.081l3.044-2.2A11.9,11.9,0,0,1,88.08,58.43l-2.2,3.044a.823.823,0,0,0-.082.924,10.239,10.239,0,0,1,.435,1.006.887.887,0,0,0,.679.625l3.723.571a10.5,10.5,0,0,1,.081,1.3A10.843,10.843,0,0,1,90.634,67.208Z" class="color85985a svgShape" transform="translate(4.293 4.3)"/><path fill="#ffaa17" d="M69.65,52.509a4.24,4.24,0,1,0,4.212,4.24A4.251,4.251,0,0,0,69.65,52.509Zm0,6.713A2.473,2.473,0,1,1,72.1,56.749,2.482,2.482,0,0,1,69.65,59.222Z" class="color85985a svgShape" transform="translate(13.429 13.455)"/><path fill="#ffaa17" d="M84.878,60.087l-2.391-.38L83.9,57.749a.857.857,0,0,0,0-1.06,9.739,9.739,0,0,0-2.228-2.256.942.942,0,0,0-1.06,0l-1.984,1.44-.38-2.419a.866.866,0,0,0-.707-.734,10.571,10.571,0,0,0-3.207,0,.865.865,0,0,0-.734.734l-.38,2.419-1.984-1.44a.943.943,0,0,0-1.06,0A10.448,10.448,0,0,0,67.92,56.69a.942.942,0,0,0,0,1.06l1.44,1.957-2.392.38a.961.961,0,0,0-.761.734,10.606,10.606,0,0,0-.109,1.6,10.847,10.847,0,0,0,.109,1.6.961.961,0,0,0,.761.734l2.392.38L67.92,67.1a.942.942,0,0,0,0,1.06,9.362,9.362,0,0,0,2.256,2.256.857.857,0,0,0,1.06,0l1.984-1.44.38,2.419a.9.9,0,0,0,.734.734,10.294,10.294,0,0,0,1.576.136,10.706,10.706,0,0,0,1.631-.136.9.9,0,0,0,.707-.734l.38-2.419,1.984,1.44a.857.857,0,0,0,1.06,0A8.786,8.786,0,0,0,83.9,68.158a.857.857,0,0,0,0-1.06l-1.413-1.957,2.391-.38a.96.96,0,0,0,.761-.734,10.953,10.953,0,0,0,.136-1.6,10.648,10.648,0,0,0-.136-1.6A.96.96,0,0,0,84.878,60.087ZM83.954,63.1l-2.391.38a.9.9,0,0,0-.707.571l-.272.707a.829.829,0,0,0,.081.9l1.413,1.957c-.3.326-.6.652-.951.978l-1.957-1.44a.938.938,0,0,0-.924-.081,3.478,3.478,0,0,1-.652.3.886.886,0,0,0-.625.679l-.38,2.392a5.46,5.46,0,0,1-1.332,0l-.38-2.392a.815.815,0,0,0-.6-.679,2.4,2.4,0,0,1-.652-.3.99.99,0,0,0-.951.081l-1.93,1.44q-.53-.489-.978-.978l1.44-1.957a.938.938,0,0,0,.081-.924,3.042,3.042,0,0,1-.3-.679.9.9,0,0,0-.707-.571l-2.391-.38V61.744l2.391-.38a.886.886,0,0,0,.707-.6,4.5,4.5,0,0,1,.3-.652.938.938,0,0,0-.081-.924l-1.44-1.957a11.1,11.1,0,0,1,.978-.978l1.93,1.44a.938.938,0,0,0,.924.082,5.13,5.13,0,0,1,.679-.3.85.85,0,0,0,.6-.679l.38-2.392a10.91,10.91,0,0,1,1.332,0l.38,2.392a.929.929,0,0,0,.625.679l.652.3a.938.938,0,0,0,.924-.082l1.957-1.44a10.688,10.688,0,0,1,.951.978L80.666,59.19a.871.871,0,0,0-.081.924l.272.652a.886.886,0,0,0,.707.6l2.391.38.027.679Z" class="color85985a svgShape" transform="translate(32.171 15.823)"/><path fill="#ffaa17" d="M69.549,52.842a3.234,3.234,0,1,0,3.261,3.234A3.236,3.236,0,0,0,69.549,52.842Zm0,4.674a1.441,1.441,0,0,1,0-2.881,1.441,1.441,0,1,1,0,2.881Z" class="color85985a svgShape" transform="translate(38.532 22.171)"/></g></svg></svg>