<svg xmlns="http://www.w3.org/2000/svg" xmlns:svgjs="http://svgjs.com/svgjs" xmlns:xlink="http://www.w3.org/1999/xlink" width="288" height="288"><svg xmlns="http://www.w3.org/2000/svg" width="288" height="288" viewBox="0 0 49.799 49.988"><g class="color000 svgShape" transform="translate(-201 -1244.436)"><path fill="#ffaa17" d="M228.259,1273.365h9.328a.777.777,0,1,0,0-1.554h-9.328a1.344,1.344,0,0,1-1.342-1.342v-23.137a1.344,1.344,0,0,1,1.342-1.342h32.764a1.344,1.344,0,0,1,1.342,1.342v23.137a1.344,1.344,0,0,1-1.342,1.342h-9.1a.777.777,0,1,0,0,1.554h9.1a2.9,2.9,0,0,0,2.9-2.9v-23.137a2.9,2.9,0,0,0-2.9-2.9H228.259a2.9,2.9,0,0,0-2.9,2.9v23.137A2.9,2.9,0,0,0,228.259,1273.365Z" class="color85985a svgShape" transform="translate(-18.449)"/><path fill="#ffaa17" d="M326.739,1372.8a7.476,7.476,0,0,0-6.848-6.333,4.379,4.379,0,0,0-8.2-.231,3.016,3.016,0,0,0-1.336.56,2.062,2.062,0,0,1-.522-1.371v-10.213a.777.777,0,0,0-1.554,0v10.213a3.609,3.609,0,0,0,1.1,2.589c-.007.015-.015.028-.022.043a4.371,4.371,0,0,0-2.468,5.411,4.451,4.451,0,0,0-2.414,2.481.777.777,0,1,0,1.45.559,2.893,2.893,0,0,1,2.684-1.841,2.862,2.862,0,0,1,2.574,1.593.777.777,0,1,0,1.39-.694,4.406,4.406,0,0,0-3.964-2.453c-.065,0-.129,0-.194.007a2.82,2.82,0,0,1,1.788-3.72.777.777,0,0,0,.52-.545,1.473,1.473,0,0,1,1.414-1.1,1.21,1.21,0,0,1,.672.427l-.009-.015,1.329-.8a2.569,2.569,0,0,0-.871-.813,2.823,2.823,0,0,1,5.22.613,2.725,2.725,0,0,1-.064,1.2.777.777,0,0,0,1.434.6,3.024,3.024,0,0,0,.2-.911,5.906,5.906,0,0,1,4.985,4.229,5.124,5.124,0,0,0-1.9.117.777.777,0,0,0,.391,1.5,3.757,3.757,0,0,1,2.184.125h0l0,0a3.208,3.208,0,0,1,1.847,2.918.777.777,0,0,0,1.554,0A4.774,4.774,0,0,0,326.739,1372.8Z" class="color85985a svgShape" transform="translate(-78.316 -83.293)"/><path fill="#ffaa17" d="M296.327,1373.5a.777.777,0,0,0-.777.777v4.441a.777.777,0,1,0,1.554,0v-4.441A.777.777,0,0,0,296.327,1373.5Z" class="color85985a svgShape" transform="translate(-71.597 -97.733)"/><path fill="#ffaa17" d="M309.781,1386.084a.777.777,0,0,0-1.554,0v3.486a.777.777,0,0,0,1.554,0Z" class="color85985a svgShape" transform="translate(-81.197 -106.674)"/><path fill="#ffaa17" d="M309,1408.971a.777.777,0,0,0-.777.777v.336a.777.777,0,0,0,1.554,0v-.336A.777.777,0,0,0,309,1408.971Z" class="color85985a svgShape" transform="translate(-81.197 -124.593)"/><path fill="#ffaa17" d="M222.5,1369.672a4.383,4.383,0,0,0-1.565-.283,2.2,2.2,0,0,0-.034-.925v-.007c0-.011-.007-.021-.01-.032a3.64,3.64,0,0,0,1.61-3.006v-10.213a.777.777,0,0,0-1.554,0v10.213a2.072,2.072,0,0,1-.844,1.657,3.028,3.028,0,0,0-1.674-.845,4.379,4.379,0,0,0-8.2.231,7.476,7.476,0,0,0-6.848,6.333A4.774,4.774,0,0,0,201,1376.94a.777.777,0,0,0,1.554,0,3.208,3.208,0,0,1,1.847-2.918l0,0h0a3.756,3.756,0,0,1,2.184-.126.777.777,0,1,0,.391-1.5,5.125,5.125,0,0,0-1.9-.117,5.92,5.92,0,0,1,5.69-4.276h.058a.777.777,0,0,0,.764-.636,2.824,2.824,0,0,1,5.267-.816,2.572,2.572,0,0,0-.872.813.777.777,0,1,0,1.33.8,1.241,1.241,0,0,1,.662-.412,1.474,1.474,0,0,1,1.414,1.1.931.931,0,0,1-.291.821l.072.083a4.4,4.4,0,0,0-1.546,1.1.777.777,0,0,0,1.157,1.038,2.894,2.894,0,0,1,3.162-.768,2.862,2.862,0,0,1,1.841,2.4.777.777,0,0,0,1.546-.155A4.407,4.407,0,0,0,222.5,1369.672Z" class="color85985a svgShape" transform="translate(0 -83.293)"/><path fill="#ffaa17" d="M274.209,1272.277v-8.852a.777.777,0,0,0-.777-.777H246.488a.777.777,0,0,0-.777.777v8.852a.777.777,0,0,0,.777.777h26.944A.777.777,0,0,0,274.209,1272.277Zm-1.554-.777h-25.39v-7.3h25.39Z" class="color85985a svgShape" transform="translate(-33.857 -13.792)"/><path fill="#ffaa17" d="M300.936,1318.8a.777.777,0,0,0,0-1.554h-3.419a.777.777,0,0,0,0,1.554Z" class="color85985a svgShape" transform="translate(-72.499 -55.134)"/><path fill="#ffaa17" d="M257.032,1318.021a.777.777,0,0,0-.777-.777h-9.945a.777.777,0,1,0,0,1.554h9.945A.777.777,0,0,0,257.032,1318.021Z" class="color85985a svgShape" transform="translate(-33.723 -55.134)"/><path fill="#ffaa17" d="M344.759,1333.887h-4.143a.777.777,0,1,0,0,1.554h4.143a.777.777,0,1,0,0-1.554Z" class="color85985a svgShape" transform="translate(-105.135 -67.737)"/><path fill="#ffaa17" d="M326.108,1335.441h1.243a.777.777,0,1,0,0-1.554h-1.243a.777.777,0,1,0,0,1.554Z" class="color85985a svgShape" transform="translate(-94.149 -67.737)"/><path fill="#ffaa17" d="M288.544,1334.664a.777.777,0,0,0-.777-.777h-8.6a.777.777,0,1,0,0,1.554h8.6A.777.777,0,0,0,288.544,1334.664Z" class="color85985a svgShape" transform="translate(-58.604 -67.737)"/><path fill="#ffaa17" d="M246.311,1333.887a.777.777,0,1,0,0,1.554h5.49a.777.777,0,1,0,0-1.554Z" class="color85985a svgShape" transform="translate(-33.723 -67.737)"/></g></svg></svg>