<svg xmlns="http://www.w3.org/2000/svg" xmlns:svgjs="http://svgjs.com/svgjs" xmlns:xlink="http://www.w3.org/1999/xlink" width="288" height="288"><svg xmlns="http://www.w3.org/2000/svg" width="288" height="288" viewBox="0 0 78.824 55"><g class="color000 svgShape" transform="translate(-897.689 -78.321)"><path fill="#ffaa17" d="M973.143,121.6a1.484,1.484,0,0,1-1.485-1.485V85a3.53,3.53,0,0,0-3.3-3.712h-60.3A3.53,3.53,0,0,0,904.75,85v34.922a1.485,1.485,0,1,1-2.969,0V85a6.493,6.493,0,0,1,6.271-6.68h60.3A6.493,6.493,0,0,1,974.628,85V120.12A1.485,1.485,0,0,1,973.143,121.6Z" class="color85985a svgShape" transform="translate(-1.104)"/><path fill="#ffaa17" d="M970.031,122.141a1.485,1.485,0,0,1-1.485-1.485V89.023c0-.088,0-.18,0-.268H911.5c0,.088,0,.18,0,.268v31.484a1.484,1.484,0,1,1-2.969,0V89.037c-.006-1.119-.009-1.926.648-2.587s1.56-.667,2.686-.667h56.318c1.179,0,2.022,0,2.682.667s.653,1.468.648,2.587v31.619A1.484,1.484,0,0,1,970.031,122.141Z" class="color85985a svgShape" transform="translate(-2.926 -2.013)"/><path fill="#ffaa17" d="M967.678,149.8H906.524a8.846,8.846,0,0,1-8.835-8.835,1.55,1.55,0,0,1,1.485-1.559h75.854a1.485,1.485,0,0,1,1.485,1.485A8.862,8.862,0,0,1,967.678,149.8Zm-66.837-7.425a5.867,5.867,0,0,0,5.683,4.456h61.154a5.876,5.876,0,0,0,5.695-4.456Z" class="color85985a svgShape" transform="translate(0 -16.476)"/><path fill="#ffaa17" d="M959.2,116.589l-3.878-3.878a10.675,10.675,0,1,0-5.008,4.991l3.886,3.886a3.536,3.536,0,0,0,5-5Zm-18.846-3.048a7.635,7.635,0,1,1,11.867-1.336,7.116,7.116,0,0,1-1.063,1.336,7.274,7.274,0,0,1-1.358,1.079,7.64,7.64,0,0,1-9.447-1.079Zm16.717,5.948a.545.545,0,0,1-.772,0l-3.456-3.455q.212-.191.415-.394c.134-.134.263-.269.387-.406l3.455,3.454A.556.556,0,0,1,957.075,119.489Z" class="color85985a svgShape" transform="translate(-10.106 -5.183)"/></g></svg></svg>