<svg xmlns="http://www.w3.org/2000/svg" xmlns:svgjs="http://svgjs.com/svgjs" xmlns:xlink="http://www.w3.org/1999/xlink" width="288" height="288"><svg xmlns="http://www.w3.org/2000/svg" width="288" height="288" viewBox="0 0 53 53.678"><g class="color000 svgShape" transform="translate(-5307.127 -1249.794)"><path fill="#ffaa17" fill-rule="evenodd" d="M5374.31,1293.469a3.842,3.842,0,0,0-3.841-3.842h-4.637a10.249,10.249,0,0,0,2.155-4.559,30.215,30.215,0,0,0,.342-3.284,3.3,3.3,0,0,0-6.554-.743c-.48,2.7-1.307,4.593-2.327,5.317-.559.4-1.023.665-1.4.88-.789.454-1.469.847-1.689,1.844-.491,2.225-1.453,3.257-2.351,3.726a1.932,1.932,0,0,0-.269-.37,1.794,1.794,0,0,0-1.325-.568l-3.358.06a1.79,1.79,0,0,0-1.3.6,1.945,1.945,0,0,0-.487,1.325l.081,6.843a.879.879,0,0,0,.879.869h.011a.878.878,0,0,0,.868-.889l-.081-6.845a.167.167,0,0,1,.063-.149l3.354-.061a.167.167,0,0,1,.066.146l.163,13.775a.878.878,0,0,0,.878.869h.011a.878.878,0,0,0,.793-.526,15.244,15.244,0,0,1,3.714.028,16.733,16.733,0,0,0,2.875.243h7.487a.916.916,0,0,0,.153.015.929.929,0,0,0,.15-.015h1.735a3.846,3.846,0,0,0,3.841-3.842Zm-1.758,10.849a2.086,2.086,0,0,1-2.083,2.084h-1.8a3.135,3.135,0,0,1-2.142-2.965v-4.8a.879.879,0,1,0-1.757,0v4.8a4.876,4.876,0,0,0,1.008,2.965h-4.839a14.927,14.927,0,0,1-2.572-.217,16.416,16.416,0,0,0-3.959-.068l-.136-11.507c1.879-.707,3.221-2.512,3.8-5.15.045-.2.112-.274.851-.7a17.9,17.9,0,0,0,1.535-.969c1.794-1.272,2.644-4.206,3.042-6.443a1.547,1.547,0,0,1,1.523-1.281,1.548,1.548,0,0,1,1.544,1.629,28.531,28.531,0,0,1-.322,3.093,10,10,0,0,1-3,5.054.878.878,0,0,0-.279.864v4.632a5.485,5.485,0,0,1-3.392,5.081l-.837.347a.879.879,0,1,0,.673,1.624l.838-.347a7.239,7.239,0,0,0,4.477-6.7v-3.953h5.743a2.084,2.084,0,0,1,2.083,2.084Z" class="color85985a svgShape" transform="translate(-29.117 -20.683)"/><path fill="#ffaa17" fill-rule="evenodd" d="M5454.808,1384.192h-1.413a4.9,4.9,0,0,0,.645-1.7,15.254,15.254,0,0,0,.173-1.653,2.064,2.064,0,0,0-4.094-.464,3.875,3.875,0,0,1-.954,2.309c-.256.181-.463.3-.646.407a1.785,1.785,0,0,0-1.04,1.193,2.614,2.614,0,0,1-.644,1.316,1.3,1.3,0,0,0-.833-.307h-.019l-1.638.029a1.324,1.324,0,0,0-.968.446,1.4,1.4,0,0,0-.352.951l.079,6.729a1.4,1.4,0,0,0,.378.943,1.327,1.327,0,0,0,.962.419h.021l1.638-.029a1.326,1.326,0,0,0,.968-.446,1.386,1.386,0,0,0,.219-.347,6.325,6.325,0,0,1,1.383.035,8.619,8.619,0,0,0,1.481.125h4.651a2.329,2.329,0,0,0,2.327-2.326v-5.3a2.327,2.327,0,0,0-2.326-2.326Zm-9.948,8.847-.071-5.973.8-.014.071,5.973Zm10.516-1.223a.568.568,0,0,1-.568.568h-4.651a6.819,6.819,0,0,1-1.178-.1,7.509,7.509,0,0,0-1.568-.07l-.057-4.848a3.748,3.748,0,0,0,1.824-2.629c.057-.037.146-.088.22-.13.194-.113.462-.267.786-.5a5.191,5.191,0,0,0,1.667-3.435.306.306,0,0,1,.3-.255.3.3,0,0,1,.221.095.31.31,0,0,1,.085.229,13.7,13.7,0,0,1-.151,1.462,4.422,4.422,0,0,1-1.319,2.2.878.878,0,0,0-.292.794v2.23a2.231,2.231,0,0,1-1.379,2.066l-.409.17a.879.879,0,1,0,.675,1.624l.408-.17a3.983,3.983,0,0,0,2.464-3.69v-1.481h2.354a.567.567,0,0,1,.568.568Z" class="color85985a svgShape" transform="translate(-98.574 -93.475)"/><path fill="#ffaa17" fill-rule="evenodd" d="M5309.3,1268.954a1.36,1.36,0,0,0,.987.431h.021l1.773-.032a1.375,1.375,0,0,0,1.24-.855,7,7,0,0,1,1.554.036,9.242,9.242,0,0,0,1.591.135h5.036a2.448,2.448,0,0,0,2.445-2.445v-5.735a2.446,2.446,0,0,0-2.445-2.445h-1.658a5.335,5.335,0,0,0,.755-1.93,16.219,16.219,0,0,0,.185-1.782,2.161,2.161,0,0,0-4.286-.486,4.362,4.362,0,0,1-1.062,2.545,8.228,8.228,0,0,1-.706.444,1.874,1.874,0,0,0-1.09,1.244,2.826,2.826,0,0,1-.762,1.507,1.346,1.346,0,0,0-.908-.358h-.019l-1.774.032a1.4,1.4,0,0,0-1.355,1.439l.085,7.283A1.445,1.445,0,0,0,5309.3,1268.954Zm6.045-10.437c.063-.042.173-.106.266-.159.209-.121.5-.287.843-.533.854-.605,1.451-1.84,1.776-3.672a.405.405,0,0,1,.4-.336.4.4,0,0,1,.291.125.4.4,0,0,1,.111.3,14.415,14.415,0,0,1-.166,1.59,4.862,4.862,0,0,1-1.45,2.425.871.871,0,0,0-.29.8v2.416a2.488,2.488,0,0,1-1.539,2.3l-.443.184a.879.879,0,0,0,.337,1.691.868.868,0,0,0,.336-.068l.443-.183a4.24,4.24,0,0,0,2.622-3.927V1259.8h2.621a.686.686,0,0,1,.688.687v5.735a.688.688,0,0,1-.687.688h-5.036a7.474,7.474,0,0,1-1.288-.109,8.178,8.178,0,0,0-1.755-.072l-.063-5.369A3.979,3.979,0,0,0,5315.348,1258.517Zm-3.747,2.475.078,6.61-1.012.018-.078-6.61Z" class="color85985a svgShape" transform="translate(-1.234 -1.644)"/><path fill="#ffaa17" fill-rule="evenodd" d="M5328.6,1373.636h-1.658a5.324,5.324,0,0,0,.755-1.93,16.226,16.226,0,0,0,.185-1.781,2.161,2.161,0,0,0-4.286-.486,4.363,4.363,0,0,1-1.062,2.545,8.268,8.268,0,0,1-.706.444,1.874,1.874,0,0,0-1.09,1.244,2.833,2.833,0,0,1-.762,1.507,1.355,1.355,0,0,0-.908-.359h-.019l-1.774.032a1.4,1.4,0,0,0-1.355,1.439l.086,7.284a1.4,1.4,0,0,0,1.376,1.4h.022l1.774-.032a1.376,1.376,0,0,0,1.24-.856,7,7,0,0,1,1.554.036,9.242,9.242,0,0,0,1.591.135h5.035a2.448,2.448,0,0,0,2.446-2.445v-5.735a2.446,2.446,0,0,0-2.445-2.445Zm-10.838,9.577-.079-6.61,1.011-.018.078,6.61Zm11.525-1.4a.688.688,0,0,1-.688.688h-5.035a7.477,7.477,0,0,1-1.288-.109,8.2,8.2,0,0,0-1.755-.071l-.064-5.369a3.978,3.978,0,0,0,1.984-2.845c.063-.042.173-.106.266-.16a9.933,9.933,0,0,0,.844-.533c.854-.605,1.45-1.84,1.775-3.672a.4.4,0,0,1,.4-.335.4.4,0,0,1,.292.125.406.406,0,0,1,.111.3,14.536,14.536,0,0,1-.166,1.589,4.849,4.849,0,0,1-1.451,2.424.878.878,0,0,0-.289.8v2.416a2.487,2.487,0,0,1-1.539,2.3l-.442.184a.879.879,0,1,0,.673,1.624l.443-.184a4.24,4.24,0,0,0,2.622-3.927v-1.675h2.621a.688.688,0,0,1,.688.687Z" class="color85985a svgShape" transform="translate(-6.383 -85.489)"/><path fill="#ffaa17" fill-rule="evenodd" d="M5449.132,1253.193a.878.878,0,0,0,.878-.879v-1.641a.879.879,0,1,0-1.758,0v1.641A.879.879,0,0,0,5449.132,1253.193Z" class="color85985a svgShape" transform="translate(-102.364)"/><path fill="#ffaa17" fill-rule="evenodd" d="M5449.132,1275.81a.878.878,0,0,0,.878-.879v-1.641a.879.879,0,0,0-1.758,0v1.641A.879.879,0,0,0,5449.132,1275.81Z" class="color85985a svgShape" transform="translate(-102.364 -16.405)"/><path fill="#ffaa17" fill-rule="evenodd" d="M5434.836,1265.848h1.641a.879.879,0,1,0,0-1.758h-1.641a.879.879,0,1,0,0,1.758Z" class="color85985a svgShape" transform="translate(-91.995 -10.37)"/><path fill="#ffaa17" fill-rule="evenodd" d="M5457.451,1265.848h1.641a.879.879,0,1,0,0-1.758h-1.641a.879.879,0,1,0,0,1.758Z" class="color85985a svgShape" transform="translate(-108.4 -10.37)"/><path fill="#ffaa17" fill-rule="evenodd" d="M5480.281,1289.465a.879.879,0,0,0,.879-.879v-1.641a.879.879,0,1,0-1.757,0v1.641A.879.879,0,0,0,5480.281,1289.465Z" class="color85985a svgShape" transform="translate(-124.959 -26.31)"/><path fill="#ffaa17" fill-rule="evenodd" d="M5480.281,1312.081a.879.879,0,0,0,.879-.879v-1.641a.879.879,0,1,0-1.757,0v1.641A.879.879,0,0,0,5480.281,1312.081Z" class="color85985a svgShape" transform="translate(-124.959 -42.714)"/><path fill="#ffaa17" fill-rule="evenodd" d="M5465.107,1301.24a.879.879,0,0,0,.879.879h1.641a.879.879,0,0,0,0-1.758h-1.641A.879.879,0,0,0,5465.107,1301.24Z" class="color85985a svgShape" transform="translate(-114.591 -36.679)"/><path fill="#ffaa17" fill-rule="evenodd" d="M5490.243,1300.361H5488.6a.879.879,0,0,0,0,1.758h1.641a.879.879,0,1,0,0-1.758Z" class="color85985a svgShape" transform="translate(-130.995 -36.679)"/><path fill="#ffaa17" fill-rule="evenodd" d="M5399.631,1410.241a.879.879,0,0,0-.879.879v1.641a.879.879,0,0,0,1.759,0v-1.641A.879.879,0,0,0,5399.631,1410.241Z" class="color85985a svgShape" transform="translate(-66.46 -116.38)"/><path fill="#ffaa17" fill-rule="evenodd" d="M5399.631,1432.857a.879.879,0,0,0-.879.879v1.641a.879.879,0,0,0,1.759,0v-1.641A.879.879,0,0,0,5399.631,1432.857Z" class="color85985a svgShape" transform="translate(-66.46 -132.784)"/><path fill="#ffaa17" fill-rule="evenodd" d="M5386.977,1424.536h-1.64a.879.879,0,1,0,0,1.758h1.64a.879.879,0,0,0,0-1.758Z" class="color85985a svgShape" transform="translate(-56.091 -126.749)"/><path fill="#ffaa17" fill-rule="evenodd" d="M5409.593,1424.536h-1.641a.879.879,0,0,0,0,1.758h1.641a.879.879,0,0,0,0-1.758Z" class="color85985a svgShape" transform="translate(-72.496 -126.749)"/><path fill="#ffaa17" fill-rule="evenodd" d="M5308.473,1358.132a1.346,1.346,0,1,0,1.347,1.346A1.346,1.346,0,0,0,5308.473,1358.132Z" class="color85985a svgShape" transform="translate(0 -78.583)"/><path fill="#ffaa17" fill-rule="evenodd" d="M5469.187,1332.652a1.346,1.346,0,1,0,1.346,1.346A1.346,1.346,0,0,0,5469.187,1332.652Z" class="color85985a svgShape" transform="translate(-116.572 -60.101)"/><path fill="#ffaa17" fill-rule="evenodd" d="M5383.293,1257.193a1.346,1.346,0,1,0-1.347-1.346A1.346,1.346,0,0,0,5383.293,1257.193Z" class="color85985a svgShape" transform="translate(-54.27 -3.414)"/></g></svg></svg>