<svg xmlns="http://www.w3.org/2000/svg" xmlns:svgjs="http://svgjs.com/svgjs" xmlns:xlink="http://www.w3.org/1999/xlink" width="288" height="288"><svg xmlns="http://www.w3.org/2000/svg" width="288" height="288" viewBox="0 0 48 43.125"><g class="color000 svgShape" transform="translate(-503.175 -833.537)"><path fill="#ffaa17" d="M523.522,863.112h-18.04a.413.413,0,0,1-.412-.412V840.569h32.556v8.519a.947.947,0,1,0,1.895,0V835.844a2.31,2.31,0,0,0-2.307-2.307H505.482a2.31,2.31,0,0,0-2.307,2.307V862.7a2.31,2.31,0,0,0,2.307,2.307h18.04a.947.947,0,0,0,0-1.895Zm-18.04-27.68h31.731a.413.413,0,0,1,.412.412v2.83H505.07v-2.83A.413.413,0,0,1,505.482,835.432Z" class="color85985a svgShape"/><path fill="#ffaa17" d="M571.888,841.022h.316a.947.947,0,0,0,0-1.895h-.316a.947.947,0,0,0,0,1.895Z" class="color85985a svgShape" transform="translate(-36.186 -2.985)"/><path fill="#ffaa17" d="M565,841.022h.316a.947.947,0,1,0,0-1.895H565a.947.947,0,0,0,0,1.895Z" class="color85985a svgShape" transform="translate(-32.506 -2.985)"/><path fill="#ffaa17" d="M558.105,841.022h.316a.947.947,0,1,0,0-1.895h-.316a.947.947,0,0,0,0,1.895Z" class="color85985a svgShape" transform="translate(-28.826 -2.985)"/><path fill="#ffaa17" d="M554.436,861.736a12.5,12.5,0,0,0-8.209,3.054l-2.5-2.5v-5.055a.947.947,0,0,0-1.895,0V860.4l-1.61-1.61v-5.055a.947.947,0,0,0-1.895,0v4.5h-4.5a.947.947,0,0,0,0,1.895h5.055l1.61,1.611h-3.161a.947.947,0,1,0,0,1.894h5.056L549,870.237h0l2.887,2.887h0l1.884,1.884a.947.947,0,0,0,1.339-1.339l-1.012-1.012a1.715,1.715,0,1,1-1.234,2.357.947.947,0,0,0-1.741.747,3.634,3.634,0,1,0,1.534-4.546l-1.589-1.589a5.766,5.766,0,1,1-2.207,3.129.947.947,0,0,0-1.823-.517,7.719,7.719,0,1,0,2.678-3.965l-2.144-2.144a10.662,10.662,0,1,1-2.708,3.416.947.947,0,1,0-1.694-.849,12.476,12.476,0,0,0-1.33,5.641,12.6,12.6,0,1,0,12.6-12.6Z" class="color85985a svgShape" transform="translate(-15.863 -10.278)"/></g></svg></svg>