<svg xmlns="http://www.w3.org/2000/svg" xmlns:svgjs="http://svgjs.com/svgjs" xmlns:xlink="http://www.w3.org/1999/xlink" width="288" height="288"><svg xmlns="http://www.w3.org/2000/svg" width="288" height="288" viewBox="0 0 60 46.126"><g class="color000 svgShape" transform="translate(-696.939 -264.711)"><path fill="#ffaa17" d="M785.336,290.6a5.384,5.384,0,1,0,5.385,5.384A5.39,5.39,0,0,0,785.336,290.6Zm0,8.848a3.464,3.464,0,1,1,3.465-3.464A3.468,3.468,0,0,1,785.336,299.447Z" class="color85985a svgShape" transform="translate(-43.818 -13.665)"/><path fill="#ffaa17" d="M786.958,280.378h-1.734c-.057-.146-.115-.289-.177-.431l1.224-1.224a2.554,2.554,0,0,0,0-3.608l-2.566-2.566a2.613,2.613,0,0,0-3.608,0l-1.233,1.232c-.141-.062-.282-.12-.426-.176v-1.744a2.554,2.554,0,0,0-2.551-2.552H772.26a2.555,2.555,0,0,0-2.552,2.552v1.754q-.209.082-.417.175l-1.241-1.241a2.612,2.612,0,0,0-3.608,0l-2.566,2.566a2.55,2.55,0,0,0,0,3.608l1.245,1.246c-.06.136-.117.272-.17.409h-1.759a2.554,2.554,0,0,0-2.551,2.551v3.631a2.554,2.554,0,0,0,2.551,2.551h1.758c.054.139.111.276.171.413l-1.245,1.246a2.55,2.55,0,0,0,0,3.608l2.566,2.566a2.551,2.551,0,0,0,3.608,0l1.241-1.241q.209.092.417.174v1.75a2.554,2.554,0,0,0,2.552,2.551h3.627a2.553,2.553,0,0,0,2.551-2.551v-1.739c.144-.056.286-.115.426-.176l1.233,1.232a2.551,2.551,0,0,0,3.608,0l2.566-2.566a2.554,2.554,0,0,0,0-3.608l-1.225-1.224c.063-.145.124-.289.18-.434h1.732a2.554,2.554,0,0,0,2.551-2.551v-3.631A2.554,2.554,0,0,0,786.958,280.378Zm.631,6.182a.632.632,0,0,1-.631.631h-2.4c-.013,0-.024,0-.036,0a.974.974,0,0,0-.119.012c-.024,0-.048.008-.071.014a1.052,1.052,0,0,0-.107.033c-.024.009-.047.018-.07.029a.884.884,0,0,0-.094.051c-.023.014-.044.027-.066.042a1,1,0,0,0-.081.067c-.02.018-.039.036-.058.056a.855.855,0,0,0-.064.078c-.018.024-.034.047-.05.072s-.031.054-.045.082-.027.06-.039.091c-.005.015-.013.027-.018.042a9.275,9.275,0,0,1-.6,1.449c-.01.019-.015.038-.023.058s-.012.03-.018.046a.934.934,0,0,0-.062.316c0,.014,0,.027,0,.041a.955.955,0,0,0,.062.319l.017.039a.951.951,0,0,0,.187.281c0,.005.006.011.01.017l1.7,1.7a.631.631,0,0,1,0,.893l-2.566,2.566a.646.646,0,0,1-.893,0l-1.707-1.706c-.005-.005-.012-.007-.018-.012a.939.939,0,0,0-.28-.186l-.04-.017a.963.963,0,0,0-.318-.062h-.041a.939.939,0,0,0-.316.061l-.046.018c-.02.008-.04.014-.06.024a9.608,9.608,0,0,1-1.446.6c-.013,0-.024.011-.036.016a.949.949,0,0,0-.093.041c-.027.014-.055.027-.08.043a.9.9,0,0,0-.074.052.84.84,0,0,0-.075.061c-.021.02-.041.042-.06.063s-.042.048-.06.073-.034.051-.049.077a.874.874,0,0,0-.044.08.928.928,0,0,0-.034.087c-.01.029-.02.059-.028.09a.83.83,0,0,0-.016.087.929.929,0,0,0-.01.1c0,.013,0,.025,0,.038v2.408a.632.632,0,0,1-.631.632H772.26a.633.633,0,0,1-.632-.632v-2.42c0-.014,0-.028,0-.042a.9.9,0,0,0-.01-.1.87.87,0,0,0-.017-.088.851.851,0,0,0-.028-.089.875.875,0,0,0-.035-.086.853.853,0,0,0-.043-.08.9.9,0,0,0-.05-.077,1.155,1.155,0,0,0-.121-.136.926.926,0,0,0-.074-.061c-.025-.018-.049-.036-.075-.052a.885.885,0,0,0-.08-.043.91.91,0,0,0-.094-.04c-.013-.005-.025-.013-.039-.017a9.317,9.317,0,0,1-1.434-.594c-.018-.009-.038-.014-.057-.023l-.046-.018a.942.942,0,0,0-.316-.062h-.041a.959.959,0,0,0-.318.062l-.041.018a.955.955,0,0,0-.279.186c-.005,0-.012.006-.017.012l-1.714,1.714a.647.647,0,0,1-.893,0l-2.566-2.566a.631.631,0,0,1,0-.893l1.718-1.719c.005-.005.007-.013.012-.018a.949.949,0,0,0,.185-.279c.007-.014.013-.027.018-.042a.957.957,0,0,0,.062-.317c0-.014,0-.028,0-.042a.947.947,0,0,0-.061-.315c-.006-.016-.011-.031-.018-.047s-.013-.038-.022-.057a9.349,9.349,0,0,1-.591-1.432c0-.014-.012-.025-.017-.039a.97.97,0,0,0-.04-.091.794.794,0,0,0-.044-.082c-.016-.025-.033-.05-.051-.073a.9.9,0,0,0-.063-.077c-.018-.02-.038-.038-.059-.056a.956.956,0,0,0-.08-.066c-.022-.016-.044-.029-.067-.043a.991.991,0,0,0-.093-.051c-.023-.01-.047-.019-.071-.028a.878.878,0,0,0-.107-.033c-.023-.006-.047-.01-.071-.014a.973.973,0,0,0-.119-.012c-.012,0-.023,0-.035,0h-2.429a.632.632,0,0,1-.631-.631v-3.631a.633.633,0,0,1,.631-.632h2.434a.951.951,0,0,0,.26-.041l.054-.017a.953.953,0,0,0,.231-.117c.01-.008.019-.017.029-.025a.946.946,0,0,0,.171-.169c.009-.013.02-.023.03-.036a.957.957,0,0,0,.121-.239c0-.009.009-.016.012-.025a9.343,9.343,0,0,1,.591-1.428c.009-.018.014-.038.022-.057s.013-.031.018-.047a.947.947,0,0,0,.061-.315c0-.014,0-.028,0-.042a.952.952,0,0,0-.062-.317c-.005-.014-.011-.027-.018-.042a.951.951,0,0,0-.185-.279c-.005-.005-.007-.012-.012-.017l-1.718-1.719a.631.631,0,0,1,0-.893l2.566-2.566a.647.647,0,0,1,.893,0l1.714,1.714c.008.008.019.01.027.018a.968.968,0,0,0,.25.166c.027.012.052.024.08.034a.852.852,0,0,0,.642,0c.022-.008.043-.014.064-.024s.035-.011.052-.019a9.272,9.272,0,0,1,1.434-.595c.014,0,.026-.012.039-.017a.914.914,0,0,0,.094-.04c.027-.014.054-.028.08-.043s.052-.034.076-.052a.841.841,0,0,0,.074-.061c.022-.02.042-.042.061-.063a.875.875,0,0,0,.06-.073.826.826,0,0,0,.05-.077.853.853,0,0,0,.043-.08.923.923,0,0,0,.035-.086.84.84,0,0,0,.045-.177.917.917,0,0,0,.01-.1c0-.014,0-.027,0-.042v-2.425a.633.633,0,0,1,.632-.632h3.627a.632.632,0,0,1,.631.632v2.412c0,.013,0,.026,0,.038a.935.935,0,0,0,.01.1.844.844,0,0,0,.016.086c.008.031.017.06.028.09a.923.923,0,0,0,.034.086.825.825,0,0,0,.044.08.853.853,0,0,0,.049.077.9.9,0,0,0,.06.073c.019.022.039.043.06.064s.049.042.075.061.048.036.074.052.053.03.08.043a.931.931,0,0,0,.093.041c.013,0,.024.012.036.016a9.557,9.557,0,0,1,1.446.6c.018.009.037.012.055.02s.043.016.065.024a.852.852,0,0,0,.642,0c.027-.01.053-.022.08-.034a.936.936,0,0,0,.25-.166c.009-.008.019-.01.027-.018l1.707-1.706a.647.647,0,0,1,.893,0l2.566,2.566a.632.632,0,0,1,0,.893l-1.7,1.7s-.006.012-.011.017a.951.951,0,0,0-.186.28L783,279.4a.957.957,0,0,0-.062.318c0,.014,0,.027,0,.042a.952.952,0,0,0,.061.317c.006.016.011.03.018.045s.014.041.024.06a9.462,9.462,0,0,1,.6,1.449c0,.008.008.014.011.021a.949.949,0,0,0,.123.242c.009.012.019.022.028.034a.942.942,0,0,0,.173.171c.009.008.017.016.027.023a.951.951,0,0,0,.231.117c.018.007.036.012.054.017a.946.946,0,0,0,.26.041h2.409a.632.632,0,0,1,.631.632Z" class="color85985a svgShape" transform="translate(-32.57 -2.428)"/><path fill="#ffaa17" d="M721.641,314.542a7.167,7.167,0,1,0,7.167,7.167A7.175,7.175,0,0,0,721.641,314.542Zm0,12.414a5.247,5.247,0,1,1,5.247-5.247A5.254,5.254,0,0,1,721.641,326.956Z" class="color85985a svgShape" transform="translate(-9.256 -26.303)"/><path fill="#ffaa17" d="M725.255,308.1h-1.734q-.085-.218-.178-.43l1.224-1.224a2.554,2.554,0,0,0,0-3.608L722,300.27a2.613,2.613,0,0,0-3.608,0l-1.233,1.232c-.14-.061-.282-.12-.426-.176v-1.744a2.554,2.554,0,0,0-2.551-2.551h-3.627a2.554,2.554,0,0,0-2.551,2.551v1.755c-.14.054-.278.113-.418.174l-1.241-1.241a2.555,2.555,0,0,0-3.608,0l-2.565,2.565a2.551,2.551,0,0,0,0,3.608l1.246,1.246c-.06.136-.117.272-.17.409H699.49a2.554,2.554,0,0,0-2.551,2.551v3.631a2.554,2.554,0,0,0,2.551,2.551h1.759c.054.139.111.276.171.413l-1.246,1.245a2.551,2.551,0,0,0,0,3.608l2.565,2.566a2.556,2.556,0,0,0,3.608,0l1.241-1.241c.14.061.278.12.418.175v1.75a2.554,2.554,0,0,0,2.551,2.551h3.627a2.554,2.554,0,0,0,2.551-2.551v-1.74c.144-.056.286-.115.426-.176l1.232,1.232a2.551,2.551,0,0,0,3.608,0l2.566-2.566a2.554,2.554,0,0,0,0-3.608l-1.225-1.225c.064-.145.124-.289.18-.434h1.732a2.554,2.554,0,0,0,2.551-2.551v-3.631A2.554,2.554,0,0,0,725.255,308.1Zm.631,6.182a.632.632,0,0,1-.631.631h-2.4c-.013,0-.025,0-.038,0a.975.975,0,0,0-.118.012c-.024,0-.047.008-.07.014a.967.967,0,0,0-.11.034c-.023.008-.044.017-.066.027a1,1,0,0,0-.1.054c-.021.013-.041.026-.06.039a1.022,1.022,0,0,0-.085.07c-.019.017-.037.035-.055.053a1,1,0,0,0-.066.079c-.018.024-.034.048-.05.073s-.03.052-.043.08a.866.866,0,0,0-.041.1c-.005.013-.013.025-.017.039a9.154,9.154,0,0,1-.6,1.448c-.01.019-.015.039-.023.058s-.012.03-.018.045a.953.953,0,0,0-.061.317c0,.014,0,.027,0,.041a.948.948,0,0,0,.062.318c.005.014.011.026.017.04a.956.956,0,0,0,.187.281c0,.005.006.012.011.016l1.7,1.7a.633.633,0,0,1,0,.893l-2.566,2.565a.646.646,0,0,1-.893,0l-1.706-1.706c-.006-.006-.014-.007-.019-.013a.946.946,0,0,0-.277-.184l-.043-.018a.963.963,0,0,0-.315-.061h-.044a.945.945,0,0,0-.315.061l-.046.018c-.02.008-.041.014-.06.024a9.455,9.455,0,0,1-1.445.6c-.013,0-.024.011-.036.016a.911.911,0,0,0-.093.041c-.027.014-.054.028-.08.044s-.05.034-.074.052a.937.937,0,0,0-.074.061c-.022.02-.041.042-.06.064a.854.854,0,0,0-.06.073.825.825,0,0,0-.049.077c-.015.026-.03.052-.043.08a.924.924,0,0,0-.034.086.83.83,0,0,0-.028.09c-.007.028-.012.057-.017.086a.951.951,0,0,0-.01.1c0,.013,0,.025,0,.038v2.408a.632.632,0,0,1-.631.631h-3.627a.633.633,0,0,1-.632-.631v-2.421c0-.014,0-.027,0-.042,0-.035-.005-.069-.01-.1a.886.886,0,0,0-.017-.087c-.008-.031-.017-.06-.027-.09s-.022-.058-.035-.086a.848.848,0,0,0-.043-.08c-.016-.026-.032-.052-.05-.077s-.039-.05-.06-.073-.039-.043-.061-.063a.933.933,0,0,0-.074-.061c-.024-.018-.049-.036-.075-.052s-.052-.03-.08-.044-.061-.028-.093-.04c-.014,0-.026-.012-.04-.017a9.277,9.277,0,0,1-1.434-.595c-.018-.009-.038-.014-.057-.022l-.047-.018a.947.947,0,0,0-.316-.061h-.041a.962.962,0,0,0-.319.062l-.04.017a.957.957,0,0,0-.28.186c-.005.005-.012.006-.017.011l-1.714,1.714a.632.632,0,0,1-.893,0l-2.565-2.566a.631.631,0,0,1,0-.893l1.719-1.719c.005-.005.007-.012.012-.018a.949.949,0,0,0,.185-.279c.007-.014.013-.027.018-.042a.961.961,0,0,0,.061-.317c0-.015,0-.028,0-.042a.94.94,0,0,0-.061-.316c-.006-.016-.011-.031-.018-.047s-.013-.038-.023-.057a9.425,9.425,0,0,1-.591-1.432c0-.014-.012-.026-.016-.039a.908.908,0,0,0-.04-.092c-.014-.028-.028-.055-.044-.081s-.033-.05-.052-.074a.947.947,0,0,0-.062-.076c-.019-.021-.04-.04-.062-.06a.934.934,0,0,0-.075-.061.885.885,0,0,0-.075-.049c-.027-.016-.054-.031-.083-.045s-.055-.023-.083-.034-.061-.021-.093-.029-.056-.012-.085-.016-.07-.009-.105-.011c-.014,0-.026,0-.04,0H699.49a.633.633,0,0,1-.632-.631v-3.631a.633.633,0,0,1,.632-.631h2.434a.953.953,0,0,0,.261-.042l.054-.017a.927.927,0,0,0,.231-.117c.01-.007.019-.017.03-.024a.976.976,0,0,0,.17-.169c.01-.012.021-.023.03-.036a.976.976,0,0,0,.121-.239c0-.009.009-.016.012-.025a9.338,9.338,0,0,1,.591-1.427c.01-.019.015-.039.023-.058s.012-.03.018-.046a.942.942,0,0,0,.062-.316c0-.014,0-.027,0-.041a.955.955,0,0,0-.062-.319l-.017-.039a.947.947,0,0,0-.187-.281c0-.005-.006-.012-.01-.017l-1.719-1.719a.631.631,0,0,1,0-.893l2.565-2.565a.633.633,0,0,1,.893,0l1.714,1.714c.008.008.019.011.028.018a.944.944,0,0,0,.25.166c.027.012.052.024.08.034a.854.854,0,0,0,.643,0c.022-.008.042-.014.064-.024s.035-.01.052-.019a9.271,9.271,0,0,1,1.434-.594c.014,0,.026-.012.04-.017a.906.906,0,0,0,.093-.04c.028-.014.054-.028.08-.043s.051-.034.076-.052.05-.039.074-.061.042-.042.061-.063.041-.047.06-.073.034-.051.05-.077a.848.848,0,0,0,.043-.08.863.863,0,0,0,.035-.086c.01-.03.02-.059.027-.09a.883.883,0,0,0,.017-.087c.005-.034.009-.068.01-.1,0-.014,0-.027,0-.042v-2.425a.632.632,0,0,1,.632-.631h3.627a.632.632,0,0,1,.631.631v2.413c0,.013,0,.025,0,.038a.954.954,0,0,0,.01.1c0,.029.009.058.017.087a.86.86,0,0,0,.028.09c.01.029.021.059.034.087s.028.053.043.08a.9.9,0,0,0,.049.077c.018.025.039.049.06.073s.039.043.061.064a.852.852,0,0,0,.074.061c.024.018.048.036.074.052s.053.03.08.043a.911.911,0,0,0,.093.041c.012,0,.023.012.036.016a9.5,9.5,0,0,1,1.445.6c.018.009.038.013.056.021s.042.016.063.024a.856.856,0,0,0,.643,0c.027-.01.053-.022.08-.034a.947.947,0,0,0,.249-.165c.009-.008.02-.01.029-.019l1.706-1.706a.647.647,0,0,1,.893,0l2.566,2.566a.633.633,0,0,1,0,.893l-1.7,1.7c-.005.005-.007.012-.012.018a.953.953,0,0,0-.186.279c-.006.014-.012.027-.018.042a.956.956,0,0,0-.061.316c0,.015,0,.029,0,.044a.951.951,0,0,0,.061.314c.006.017.012.033.019.049s.014.04.024.059a9.457,9.457,0,0,1,.6,1.447c0,.009.009.015.012.024a.941.941,0,0,0,.122.239c.009.013.019.023.029.035a.948.948,0,0,0,.172.17c.009.008.017.016.028.023a.952.952,0,0,0,.231.117l.054.017a.947.947,0,0,0,.26.042h2.409a.632.632,0,0,1,.631.631Z" class="color85985a svgShape" transform="translate(0 -17.06)"/><path fill="#ffaa17" d="M728.58,277.562a.96.96,0,0,0,.96-.96V272a1.532,1.532,0,0,1,1.53-1.53h9.816l-2.124,2.219a.96.96,0,1,0,1.386,1.328l3.68-3.842a.906.906,0,0,0,.091-.143.943.943,0,0,0,.1-.162.925.925,0,0,0,.039-.179.537.537,0,0,0,0-.36.925.925,0,0,0-.039-.179.941.941,0,0,0-.1-.162.908.908,0,0,0-.091-.143l-3.68-3.842a.96.96,0,1,0-1.386,1.328l2.124,2.219H731.07a3.454,3.454,0,0,0-3.45,3.45v4.6A.96.96,0,0,0,728.58,277.562Z" class="color85985a svgShape" transform="translate(-16.195)"/></g></svg></svg>