<svg xmlns="http://www.w3.org/2000/svg" xmlns:svgjs="http://svgjs.com/svgjs" xmlns:xlink="http://www.w3.org/1999/xlink" width="288" height="288"><svg xmlns="http://www.w3.org/2000/svg" width="288" height="288" viewBox="0 0 56.923 58"><g class="color000 svgShape" transform="translate(-785.487 -1775.635)"><path fill="#ffaa17" d="M812.854,1823.052H789.336a1.786,1.786,0,0,1-1.784-1.784v-41.784a1.786,1.786,0,0,1,1.784-1.784H838.39a1.786,1.786,0,0,1,1.784,1.784v35.05a1.033,1.033,0,0,0,2.065,0v-35.05a3.854,3.854,0,0,0-3.849-3.849H789.336a3.853,3.853,0,0,0-3.849,3.849v41.784a3.853,3.853,0,0,0,3.849,3.849h23.518a1.032,1.032,0,1,0,0-2.065Z" class="color85985a svgShape"/><path fill="#ffaa17" d="M849.219,1809.4V1794.88a1.033,1.033,0,0,0-1.033-1.033H806.868a1.033,1.033,0,0,0-1.033,1.033V1809.4a1.033,1.033,0,0,0,1.033,1.033h41.319A1.033,1.033,0,0,0,849.219,1809.4Zm-2.065-1.032H807.9v-12.454h39.254Z" class="color85985a svgShape" transform="translate(-13.783 -12.336)"/><path fill="#ffaa17" d="M879.509,1859.043a1.033,1.033,0,0,0,0-2.065h-4.544a1.033,1.033,0,0,0,0,2.065Z" class="color85985a svgShape" transform="translate(-59.908 -55.097)"/><path fill="#ffaa17" d="M806.69,1859.043h18.725a1.033,1.033,0,0,0,0-2.065H806.69a1.033,1.033,0,1,0,0,2.065Z" class="color85985a svgShape" transform="translate(-13.662 -55.097)"/><path fill="#ffaa17" d="M903.556,1875.327a1.033,1.033,0,0,0,0,2.065h1.652a1.033,1.033,0,0,0,0-2.065Z" class="color85985a svgShape" transform="translate(-79.274 -67.526)"/><path fill="#ffaa17" d="M869.077,1876.36a1.033,1.033,0,0,0-1.032-1.033H856.617a1.033,1.033,0,0,0,0,2.065h11.428A1.033,1.033,0,0,0,869.077,1876.36Z" class="color85985a svgShape" transform="translate(-47.48 -67.526)"/><path fill="#ffaa17" d="M806.69,1877.392h12.8a1.033,1.033,0,0,0,0-2.065h-12.8a1.033,1.033,0,1,0,0,2.065Z" class="color85985a svgShape" transform="translate(-13.662 -67.526)"/><path fill="#ffaa17" d="M885.25,1895.989a1.033,1.033,0,0,0-1.033-1.033h-8.4a1.033,1.033,0,0,0,0,2.065h8.4A1.033,1.033,0,0,0,885.25,1895.989Z" class="color85985a svgShape" transform="translate(-60.486 -80.821)"/><path fill="#ffaa17" d="M806.69,1897.021h19a1.033,1.033,0,0,0,0-2.065h-19a1.033,1.033,0,1,0,0,2.065Z" class="color85985a svgShape" transform="translate(-13.662 -80.821)"/><path fill="#ffaa17" d="M905.381,1888.155a3.335,3.335,0,0,0-2.374-.984h-2.964a7.941,7.941,0,0,0,1.354-3.181,24.057,24.057,0,0,0,.272-2.616,2.956,2.956,0,0,0-.806-2.176,2.935,2.935,0,0,0-5.018,1.516c-.356,2-.971,3.446-1.688,3.954a12.372,12.372,0,0,1-1.069.673,2.5,2.5,0,0,0-1.489,1.67,4.178,4.178,0,0,1-1.419,2.542c-.019-.022-.034-.048-.054-.069a1.735,1.735,0,0,0-1.3-.554l-2.636.047a1.745,1.745,0,0,0-1.276.59,1.846,1.846,0,0,0-.384.707h-3.6a1.033,1.033,0,0,0,0,2.065h3.53l.092,7.572H880.94a1.033,1.033,0,0,0,0,2.065H884.7a1.845,1.845,0,0,0,.385.634,1.748,1.748,0,0,0,1.268.554h.027l2.636-.047a1.744,1.744,0,0,0,1.275-.59,1.841,1.841,0,0,0,.34-.563,21.481,21.481,0,0,1,2.584.244,13.467,13.467,0,0,0,2.316.2h7.477a3.363,3.363,0,0,0,3.359-3.359v-8.516A3.336,3.336,0,0,0,905.381,1888.155Zm-18.74,12.94-.122-10.057,2.05-.036.122,10.057Zm6.929-.92a23.409,23.409,0,0,0-2.828-.272l-.1-8.245a5.615,5.615,0,0,0,2.974-4.2l0-.01a4.052,4.052,0,0,1,.5-.316c.307-.177.728-.42,1.232-.778,1.206-.856,2.056-2.631,2.526-5.278a.872.872,0,0,1,.858-.723.86.86,0,0,1,.63.27.87.87,0,0,1,.24.649,21.988,21.988,0,0,1-.248,2.39,7.494,7.494,0,0,1-2.246,3.763,1.031,1.031,0,0,0-.337.973v4.815a3.963,3.963,0,0,1-2.452,3.672l-.657.273a1.033,1.033,0,1,0,.792,1.907l.657-.272a6.026,6.026,0,0,0,2.772-2.322v2.345a3.661,3.661,0,0,0,.335,1.524h-2.693A11.39,11.39,0,0,1,893.57,1900.174Zm10.73-1.128a1.3,1.3,0,0,1-1.293,1.293h-1.969a1.624,1.624,0,0,1-1.084-1.524v-3.183a1.021,1.021,0,0,0-1.282-1,6.071,6.071,0,0,0,.17-1.421v-3.975h4.166a1.293,1.293,0,0,1,1.293,1.293Z" class="color85985a svgShape" transform="translate(-63.955 -69.53)"/></g></svg></svg>