<svg xmlns="http://www.w3.org/2000/svg" xmlns:svgjs="http://svgjs.com/svgjs" xmlns:xlink="http://www.w3.org/1999/xlink" width="288" height="288"><svg xmlns="http://www.w3.org/2000/svg" width="288" height="288" viewBox="0 0 63.676 59"><g class="color000 svgShape" transform="translate(-491.826 -645.56)"><path fill="#ffaa18" d="M533.1,687.48a1.16,1.16,0,0,0,.466-.1l5.145-2.25c.5.831.917,1.505,1.1,1.8a1.162,1.162,0,0,0,.954.548h.034a1.166,1.166,0,0,0,.95-.491c.048-.068.552-.784,1.2-1.815l5.085,2.209a1.162,1.162,0,0,0,.463.1h.016a1.164,1.164,0,0,0,1.034-1.7c-.375-1.132-1.706-4.953-2.964-6.21a7.234,7.234,0,0,0-.569-.505c1.317-3.806,8.143-25.382-3.436-32.986a3.314,3.314,0,0,0-3.563,0c-11.574,7.606-4.744,29.188-3.429,32.988a7.051,7.051,0,0,0-.569.5c-1.335,1.334-2.756,5.552-3.028,6.385a1.164,1.164,0,0,0,1.107,1.525Zm7.7-22.159a23.65,23.65,0,0,0,5.931-.788c-.026.326-.058.65-.091.973a19.606,19.606,0,0,1-11.686,0c-.033-.322-.06-.646-.086-.971A23.651,23.651,0,0,0,540.8,665.321Zm0,3.4a22.689,22.689,0,0,0,5.518-.71,64.346,64.346,0,0,1-2.458,10.143,10.234,10.234,0,0,1-6.118,0,64.4,64.4,0,0,1-2.464-10.143A22.741,22.741,0,0,0,540.8,668.725ZM538.906,680.8a11.762,11.762,0,0,0,3.749.006c-.525,1.045-1.058,2.08-1.177,2.311-.223.372-.44.722-.639,1.034C540.163,683.031,539.445,681.8,538.906,680.8Zm5.243,2.355c.322-.578.636-1.18.92-1.783a13.759,13.759,0,0,1,1.4,2.792Zm-3.854-35.13a.947.947,0,0,1,1.006,0c4.412,2.9,5.648,8.452,5.554,14.051a20.469,20.469,0,0,1-12.109,0C534.65,656.478,535.882,650.926,540.295,648.026Zm-3.736,33.315c.281.545.615,1.154.965,1.768l-2.392,1.046A13.283,13.283,0,0,1,536.559,681.341Z" class="color85985a svgShape" transform="translate(-17.134)"/><path fill="#ffaa18" d="M541.007,660.252a1.124,1.124,0,0,0,.189.015,1.165,1.165,0,0,0,1.148-.977c0-.03.553-3.089,2.579-4.5a1.165,1.165,0,0,0-1.328-1.914c-2.862,1.987-3.523,5.87-3.549,6.034A1.164,1.164,0,0,0,541.007,660.252Z" class="color85985a svgShape" transform="translate(-20.594 -3.039)"/><path fill="#ffaa18" d="M584.468,715.756c-.588-3.9-4.16-7.835-10.813-7.835-6.122,0-11.185,5.963-13.881,11.544a1.164,1.164,0,0,0,2.1,1.013c2.389-4.944,6.739-10.228,11.784-10.228,6.02,0,8.182,3.679,8.51,5.853a1.164,1.164,0,1,0,2.3-.347Z" class="color85985a svgShape" transform="translate(-28.979 -26.642)"/><path fill="#ffaa18" d="M505.012,711.891a8.357,8.357,0,0,1,6.035,7.835,1.163,1.163,0,0,0,.685,1.037c.361.163,1,.368,1.8.628a21.489,21.489,0,0,1,3.4,1.278,1.164,1.164,0,0,0,1.581-1.71c-.636-.588-2.1-1.089-4.267-1.785-.32-.1-.645-.207-.922-.3a10.665,10.665,0,0,0-7.623-9.2c-6.946-2.17-11.97,4.04-13.62,6.081a1.164,1.164,0,1,0,1.81,1.465C497.717,712.49,501.35,710.749,505.012,711.891Z" class="color85985a svgShape" transform="translate(0 -27.195)"/><path fill="#ffaa18" d="M547.933,731.6a11.42,11.42,0,0,0-14.671,6.715c-.045.123-.081.248-.124.372H520.092a11.481,11.481,0,0,0-10.8-7.792c-.17,0-.338.007-.5.014s-.331.015-.51.03c-.157.014-.32.036-.485.057l-.08.011c-.188.027-.381.055-.521.085a4.258,4.258,0,0,0-.443.093c-.29.065-.573.144-.913.247l-.42.145a12.332,12.332,0,0,0-1.331.588c-.131.069-.263.139-.394.214l-.06.034-.11.065c-.094.056-.187.111-.247.152-.143.088-.285.183-.389.26-.143.094-.278.19-.375.268-.129.091-.258.195-.4.314l-.072.061c-.121.1-.241.206-.367.319-.188.174-.377.355-.536.522-.044.044-.1.1-.142.149s-.111.117-.166.179l-.087.1a10.179,10.179,0,0,0-.684.867,3.5,3.5,0,0,0-.262.378,10.59,10.59,0,0,0-.614,1.034c-.065.122-.123.245-.19.385s-.126.271-.182.414a1.164,1.164,0,1,0,2.169.848c.037-.093.078-.183.127-.286s.085-.18.137-.278a8.38,8.38,0,0,1,.5-.843c.019-.028.037-.057.053-.085a1.054,1.054,0,0,1,.1-.145l.049-.066a7.77,7.77,0,0,1,.524-.67l.088-.1c.036-.039.07-.08.107-.116.015-.015.056-.061.07-.076l.055-.056c.147-.154.3-.3.443-.433.1-.089.205-.179.367-.317.084-.068.167-.138.3-.23.095-.074.183-.136.316-.225.094-.069.188-.131.316-.211.06-.04.119-.074.178-.109l.107-.064.02-.011h0c.112-.064.225-.124.321-.174a9.952,9.952,0,0,1,1.05-.466l.349-.122c.237-.071.467-.136.749-.2a3.083,3.083,0,0,1,.3-.064c.146-.03.292-.05.485-.078.136-.017.273-.036.392-.047s.262-.017.4-.022a9.182,9.182,0,0,1,9.22,6.909c0,.011.01.019.014.03a1.173,1.173,0,0,0,.146.324l0,.005a1.151,1.151,0,0,0,.232.246l.045.037a1.161,1.161,0,0,0,.288.153c.019.008.038.013.058.018a1.137,1.137,0,0,0,.338.056h14.765a1.14,1.14,0,0,0,.358-.062c.017-.005.034-.009.05-.015a1.155,1.155,0,0,0,.3-.167l.046-.039a1.158,1.158,0,0,0,.227-.258c.009-.014.015-.029.023-.043a1.151,1.151,0,0,0,.136-.348h0c.006-.033.017-.068.029-.108.084-.29.181-.573.277-.833a9.092,9.092,0,0,1,11.7-5.35,8.7,8.7,0,0,1,5.118,4.945,1.164,1.164,0,1,0,2.154-.885A11,11,0,0,0,547.933,731.6Z" class="color85985a svgShape" transform="translate(-2.947 -36.457)"/><path fill="#ffaa18" d="M545.777,720.557a1.158,1.158,0,0,0-.108-.068c-.033-.017-.066-.03-.1-.044a1.049,1.049,0,0,0-.108-.04c-.036-.011-.072-.018-.109-.025a1.058,1.058,0,0,0-.112-.018,1.651,1.651,0,0,0-.225,0,.926.926,0,0,0-.1.015,1.221,1.221,0,0,0-.121.028c-.034.01-.066.024-.1.037a.864.864,0,0,0-.213.113c-.022.014-.045.025-.065.041a6.388,6.388,0,0,0-2.351,4.688c0,2.53,1.834,5.925,2.043,6.3.007.013.019.022.026.035a1.178,1.178,0,0,0,.137.183c.019.022.039.043.06.063a1.177,1.177,0,0,0,.172.132c.018.012.034.026.053.037l.01.007a1.165,1.165,0,0,0,.152.06c.039.014.075.035.115.045a1.149,1.149,0,0,0,.294.039h0a.866.866,0,0,0,.4-.083,1.277,1.277,0,0,0,.157-.062l.011-.008c.016-.009.03-.022.046-.031a1.139,1.139,0,0,0,.178-.137c.021-.019.04-.04.059-.061a1.18,1.18,0,0,0,.137-.183c.007-.013.019-.022.027-.036.209-.379,2.042-3.775,2.042-6.3a6.387,6.387,0,0,0-2.351-4.688A.733.733,0,0,0,545.777,720.557Zm-1.381,4.728a3.548,3.548,0,0,1,.735-2.069,3.55,3.55,0,0,1,.731,2.069,9.082,9.082,0,0,1-.733,2.969A9.079,9.079,0,0,1,544.4,725.284Z" class="color85985a svgShape" transform="translate(-21.464 -31.955)"/></g></svg></svg>