<svg xmlns="http://www.w3.org/2000/svg" xmlns:svgjs="http://svgjs.com/svgjs" xmlns:xlink="http://www.w3.org/1999/xlink" width="288" height="288"><svg xmlns="http://www.w3.org/2000/svg" width="288" height="288" viewBox="0 0 50.009 39.001"><g class="color000 svgShape" transform="translate(-95.968 -85.587)"><path fill="#ffaa17" d="M99.854,120.639a2.712,2.712,0,1,1,2.713-2.712A2.716,2.716,0,0,1,99.854,120.639Zm0-3.371a.659.659,0,1,0,.659.659A.66.66,0,0,0,99.854,117.267Z" class="color85985a svgShape" transform="translate(-.58 -14.66)"/><path fill="#ffaa17" d="M99.854,138.765a2.712,2.712,0,1,1,2.713-2.713A2.716,2.716,0,0,1,99.854,138.765Zm0-3.371a.659.659,0,1,0,.659.659A.66.66,0,0,0,99.854,135.393Z" class="color85985a svgShape" transform="translate(-.58 -23.63)"/><path fill="#ffaa17" d="M99.854,156.89a2.712,2.712,0,1,1,2.713-2.712A2.715,2.715,0,0,1,99.854,156.89Zm0-3.371a.659.659,0,1,0,.659.659A.659.659,0,0,0,99.854,153.519Z" class="color85985a svgShape" transform="translate(-.58 -32.599)"/><path fill="#ffaa17" d="M136.157,90.92H121.235a1.027,1.027,0,0,1,0-2.054h14.922a1.027,1.027,0,1,1,0,2.054Z" class="color85985a svgShape" transform="translate(-11.995 -1.622)"/><path fill="#ffaa17" d="M156.945,99.79h-35.71a1.027,1.027,0,0,1,0-2.054h35.71a1.027,1.027,0,0,1,0,2.054Z" class="color85985a svgShape" transform="translate(-11.995 -6.012)"/><path fill="#ffaa17" d="M129.475,116.17h-8.24a1.027,1.027,0,0,1,0-2.054h8.24a1.027,1.027,0,1,1,0,2.054Z" class="color85985a svgShape" transform="translate(-11.995 -14.117)"/><path fill="#ffaa17" d="M143.892,125.04H121.235a1.027,1.027,0,1,1,0-2.054h22.657a1.027,1.027,0,0,1,0,2.054Z" class="color85985a svgShape" transform="translate(-11.995 -18.506)"/><path fill="#ffaa17" d="M129.475,134.038h-8.24a1.027,1.027,0,1,1,0-2.054h8.24a1.027,1.027,0,1,1,0,2.054Z" class="color85985a svgShape" transform="translate(-11.995 -22.959)"/><path fill="#ffaa17" d="M143.892,142.908H121.235a1.027,1.027,0,1,1,0-2.053h22.657a1.027,1.027,0,1,1,0,2.053Z" class="color85985a svgShape" transform="translate(-11.995 -27.348)"/><path fill="#ffaa17" d="M129.475,151.907h-8.24a1.027,1.027,0,1,1,0-2.054h8.24a1.027,1.027,0,1,1,0,2.054Z" class="color85985a svgShape" transform="translate(-11.995 -31.801)"/><path fill="#ffaa17" d="M143.892,160.777H121.235a1.027,1.027,0,1,1,0-2.054h22.657a1.027,1.027,0,1,1,0,2.054Z" class="color85985a svgShape" transform="translate(-11.995 -36.19)"/><path fill="#ffaa17" d="M99.876,94.85a1.027,1.027,0,0,1-1.027-1.027v-4.7l-1.123,1.139a1.027,1.027,0,1,1-1.462-1.442l2.881-2.922a1.027,1.027,0,0,1,1.758.721v7.208A1.027,1.027,0,0,1,99.876,94.85Z" class="color85985a svgShape"/></g></svg></svg>