<svg xmlns="http://www.w3.org/2000/svg" xmlns:svgjs="http://svgjs.com/svgjs" xmlns:xlink="http://www.w3.org/1999/xlink" width="288" height="288"><svg xmlns="http://www.w3.org/2000/svg" width="288" height="288" viewBox="0 0 55.17 55"><g class="color000 svgShape" transform="translate(-5027.847 -2808.791)"><path fill="#ffaa17" d="M5078.694,2808.791h-46.5a4.329,4.329,0,0,0-4.324,4.324v33.135a.835.835,0,0,0,0,.376v2.5a4.329,4.329,0,0,0,4.324,4.324h17.672v3.239a5.375,5.375,0,0,1-5.369,5.369h-4.254a.865.865,0,1,0,0,1.729H5070.8a.865.865,0,0,0,0-1.729h-4.062a5.375,5.375,0,0,1-5.369-5.369v-3.239h17.327a4.328,4.328,0,0,0,4.324-4.324v-36.015A4.328,4.328,0,0,0,5078.694,2808.791Zm-46.5,1.729h46.5a2.6,2.6,0,0,1,2.594,2.594v32.458H5029.6v-32.458A2.6,2.6,0,0,1,5032.193,2810.521Zm29.907,51.541h-12.968a7.082,7.082,0,0,0,2.463-5.369v-3.239h8.042v3.239A7.082,7.082,0,0,0,5062.1,2862.062Zm16.593-10.338h-46.5a2.6,2.6,0,0,1-2.594-2.594V2847.3h51.689v1.827A2.6,2.6,0,0,1,5078.694,2851.724Z" class="color85985a svgShape"/><path fill="#ffaa17" d="M5159.061,2851.753a.864.864,0,0,0-.22.75l1.566,8.474a.864.864,0,0,0,1.479.435l1.79-1.9,3.76,3.488a.865.865,0,0,0,1.218-.041l2.258-2.4a.865.865,0,0,0-.042-1.227l-3.751-3.479,1.755-1.865a.865.865,0,0,0-.524-1.451l-8.554-1.049A.867.867,0,0,0,5159.061,2851.753Zm7.384,2.292-1.182,1.256a.866.866,0,0,0,.042,1.227l3.751,3.479-1.072,1.139-3.76-3.487a.865.865,0,0,0-1.218.041l-1.208,1.284-1.041-5.637Z" class="color85985a svgShape" transform="translate(-92.368 -30.106)"/><path fill="#ffaa17" d="M5072.25,2835.185h5.358a.865.865,0,0,0,.865-.865v-.862a.865.865,0,0,0-1.73,0h-3.628v-3.628h1.514a.865.865,0,0,0,0-1.73h-2.379a.865.865,0,0,0-.865.865v5.358A.865.865,0,0,0,5072.25,2835.185Z" class="color85985a svgShape" transform="translate(-30.703 -13.615)"/><path fill="#ffaa17" d="M5081.406,2829.332a.865.865,0,0,0-1.108,1.328l.7.584a.865.865,0,0,0,1.166-.052l3.681-3.681a.865.865,0,0,0-1.223-1.223l-3.122,3.122Z" class="color85985a svgShape" transform="translate(-36.77 -12.16)"/><path fill="#ffaa17" d="M5110.07,2830.078H5126.1a.865.865,0,1,0,0-1.73H5110.07a.865.865,0,0,0,0,1.73Z" class="color85985a svgShape" transform="translate(-57.375 -13.792)"/><path fill="#ffaa17" d="M5110.07,2842.986h11.185a.865.865,0,0,0,0-1.729H5110.07a.865.865,0,1,0,0,1.729Z" class="color85985a svgShape" transform="translate(-57.375 -22.895)"/><path fill="#ffaa17" d="M5072.25,2904.862h5.358a.865.865,0,0,0,.865-.865v-5.358a.865.865,0,0,0-.865-.865h-5.358a.865.865,0,0,0-.865.865V2904A.865.865,0,0,0,5072.25,2904.862Zm.865-5.358h3.628v3.628h-3.628Z" class="color85985a svgShape" transform="translate(-30.703 -62.752)"/><path fill="#ffaa17" d="M5110.07,2900.093H5126.1a.865.865,0,1,0,0-1.73H5110.07a.865.865,0,0,0,0,1.73Z" class="color85985a svgShape" transform="translate(-57.375 -63.167)"/><path fill="#ffaa17" d="M5110.07,2913h11.185a.865.865,0,0,0,0-1.729H5110.07a.865.865,0,1,0,0,1.729Z" class="color85985a svgShape" transform="translate(-57.375 -72.27)"/><path fill="#ffaa17" d="M5072.25,2870.107h5.358a.865.865,0,0,0,.865-.865v-5.358a.865.865,0,0,0-.865-.865h-5.358a.865.865,0,0,0-.865.865v5.358A.865.865,0,0,0,5072.25,2870.107Zm.865-5.358h3.628v3.629h-3.628Z" class="color85985a svgShape" transform="translate(-30.703 -38.242)"/><path fill="#ffaa17" d="M5110.07,2865.281h11.185a.865.865,0,0,0,0-1.729H5110.07a.865.865,0,0,0,0,1.729Z" class="color85985a svgShape" transform="translate(-57.375 -38.618)"/><path fill="#ffaa17" d="M5110.07,2878.188h11.185a.865.865,0,0,0,0-1.729H5110.07a.865.865,0,1,0,0,1.729Z" class="color85985a svgShape" transform="translate(-57.375 -47.72)"/></g></svg></svg>