<svg xmlns="http://www.w3.org/2000/svg" xmlns:svgjs="http://svgjs.com/svgjs" xmlns:xlink="http://www.w3.org/1999/xlink" width="288" height="288"><svg xmlns="http://www.w3.org/2000/svg" width="288" height="288" viewBox="0 0 66.837 53"><g class="color000 svgShape" transform="translate(-3878 -1788.36)"><path fill="#ffaa17" d="M3944.666,1835.018l-9.934-15V1789.39a1.03,1.03,0,0,0-1.03-1.03h-44.567a1.03,1.03,0,0,0-1.03,1.03v30.623l-9.934,15a1.03,1.03,0,0,0,.859,1.6h37.989a1.03,1.03,0,1,0,0-2.061h-36.071l8.74-13.2h43.46l9.8,14.8a1.03,1.03,0,1,0,1.718-1.137Zm-54.5-15.724V1790.42h42.506v28.873Z" class="color85985a svgShape"/><path fill="#ffaa17" d="M4024.178,1913.351a1.029,1.029,0,0,0-1.048-.581l-14.172,1.627a1.03,1.03,0,0,0-.913,1.024v8.571a1.03,1.03,0,0,0,1.03,1.03,1.049,1.049,0,0,0,.115-.006l18.049-2.034a1.03,1.03,0,0,0,.815-1.465Zm-1.545,1.549.583,1.228-13.11,1.63v-1.421Zm-12.527,7.937v-3l14.041-1.746,1.427,3.005Z" class="color85985a svgShape" transform="translate(-87.456 -83.661)"/><path fill="#ffaa17" d="M3940.753,1919.286h17.523a1.03,1.03,0,1,0,0-2.06h-17.523a1.03,1.03,0,0,0,0,2.06Z" class="color85985a svgShape" transform="translate(-41.509 -86.663)"/><path fill="#ffaa17" d="M3927.121,1919.286h1.265a1.03,1.03,0,1,0,0-2.06h-1.265a1.03,1.03,0,1,0,0,2.06Z" class="color85985a svgShape" transform="translate(-32.341 -86.663)"/><path fill="#ffaa17" d="M3913.582,1919.286h1.266a1.03,1.03,0,1,0,0-2.06h-1.266a1.03,1.03,0,0,0,0,2.06Z" class="color85985a svgShape" transform="translate(-23.237 -86.663)"/><path fill="#ffaa17" d="M3900.043,1917.226a1.03,1.03,0,1,0,0,2.06h1.265a1.03,1.03,0,0,0,0-2.06Z" class="color85985a svgShape" transform="translate(-14.131 -86.663)"/><path fill="#ffaa17" d="M3936.513,1906.918a1.03,1.03,0,0,0,0-2.06h-1.266a1.03,1.03,0,0,0,0,2.06Z" class="color85985a svgShape" transform="translate(-37.807 -78.345)"/><path fill="#ffaa17" d="M3922.993,1906.918a1.03,1.03,0,0,0,0-2.06h-1.265a1.03,1.03,0,1,0,0,2.06Z" class="color85985a svgShape" transform="translate(-28.714 -78.345)"/><path fill="#ffaa17" d="M3909.473,1906.918a1.03,1.03,0,1,0,0-2.06h-1.265a1.03,1.03,0,1,0,0,2.06Z" class="color85985a svgShape" transform="translate(-19.622 -78.345)"/><path fill="#ffaa17" d="M3974.778,1905.888a1.03,1.03,0,0,0,1.03,1.03h1.266a1.03,1.03,0,0,0,0-2.06h-1.266A1.03,1.03,0,0,0,3974.778,1905.888Z" class="color85985a svgShape" transform="translate(-65.084 -78.345)"/><path fill="#ffaa17" d="M3961.258,1905.888a1.03,1.03,0,0,0,1.03,1.03h1.266a1.03,1.03,0,0,0,0-2.06h-1.266A1.03,1.03,0,0,0,3961.258,1905.888Z" class="color85985a svgShape" transform="translate(-55.992 -78.345)"/><path fill="#ffaa17" d="M3947.737,1905.888a1.03,1.03,0,0,0,1.03,1.03h1.265a1.03,1.03,0,1,0,0-2.06h-1.265A1.03,1.03,0,0,0,3947.737,1905.888Z" class="color85985a svgShape" transform="translate(-46.898 -78.345)"/><path fill="#ffaa17" d="M4015.338,1905.888a1.03,1.03,0,0,0,1.03,1.03h1.265a1.03,1.03,0,1,0,0-2.06h-1.265A1.03,1.03,0,0,0,4015.338,1905.888Z" class="color85985a svgShape" transform="translate(-92.36 -78.345)"/><path fill="#ffaa17" d="M4005.144,1905.888a1.03,1.03,0,0,0-1.03-1.03h-1.265a1.03,1.03,0,0,0,0,2.06h1.265A1.03,1.03,0,0,0,4005.144,1905.888Z" class="color85985a svgShape" transform="translate(-83.268 -78.345)"/><path fill="#ffaa17" d="M3988.3,1905.888a1.03,1.03,0,0,0,1.03,1.03h1.265a1.03,1.03,0,1,0,0-2.06h-1.265A1.03,1.03,0,0,0,3988.3,1905.888Z" class="color85985a svgShape" transform="translate(-74.176 -78.345)"/><path fill="#ffaa17" d="M3943.224,1893.836h-1.265a1.03,1.03,0,1,0,0,2.06h1.265a1.03,1.03,0,1,0,0-2.06Z" class="color85985a svgShape" transform="translate(-42.32 -70.933)"/><path fill="#ffaa17" d="M3928.438,1895.9h1.265a1.03,1.03,0,1,0,0-2.06h-1.265a1.03,1.03,0,1,0,0,2.06Z" class="color85985a svgShape" transform="translate(-33.227 -70.933)"/><path fill="#ffaa17" d="M3914.918,1895.9h1.266a1.03,1.03,0,0,0,0-2.06h-1.266a1.03,1.03,0,0,0,0,2.06Z" class="color85985a svgShape" transform="translate(-24.135 -70.933)"/><path fill="#ffaa17" d="M3983.784,1893.836h-1.265a1.03,1.03,0,1,0,0,2.06h1.265a1.03,1.03,0,0,0,0-2.06Z" class="color85985a svgShape" transform="translate(-69.596 -70.933)"/><path fill="#ffaa17" d="M3970.264,1893.836H3969a1.03,1.03,0,1,0,0,2.06h1.265a1.03,1.03,0,1,0,0-2.06Z" class="color85985a svgShape" transform="translate(-60.504 -70.933)"/><path fill="#ffaa17" d="M3956.744,1893.836h-1.266a1.03,1.03,0,0,0,0,2.06h1.266a1.03,1.03,0,1,0,0-2.06Z" class="color85985a svgShape" transform="translate(-51.412 -70.933)"/><path fill="#ffaa17" d="M4023.079,1895.9h1.265a1.03,1.03,0,1,0,0-2.06h-1.265a1.03,1.03,0,0,0,0,2.06Z" class="color85985a svgShape" transform="translate(-96.874 -70.933)"/><path fill="#ffaa17" d="M4010.824,1893.836h-1.265a1.03,1.03,0,0,0,0,2.06h1.265a1.03,1.03,0,1,0,0-2.06Z" class="color85985a svgShape" transform="translate(-87.781 -70.933)"/><path fill="#ffaa17" d="M3998.334,1894.866a1.03,1.03,0,0,0-1.03-1.03h-1.265a1.03,1.03,0,1,0,0,2.06h1.265A1.03,1.03,0,0,0,3998.334,1894.866Z" class="color85985a svgShape" transform="translate(-78.689 -70.933)"/><path fill="#ffaa17" d="M4037.864,1895.9a1.03,1.03,0,1,0,0-2.06H4036.6a1.03,1.03,0,1,0,0,2.06Z" class="color85985a svgShape" transform="translate(-105.965 -70.933)"/><path fill="#ffaa17" d="M3961.026,1809.376H3943.07l-1.073-3.943a1.03,1.03,0,0,0-.994-.759h-3.487a1.03,1.03,0,0,0,0,2.06h2.7l4.292,15.77a1.03,1.03,0,0,0,.994.76h1.924a1.9,1.9,0,1,0,1.612,0h6.2a1.9,1.9,0,1,0,1.612,0h1.6a1.03,1.03,0,1,0,0-2.06h-12.161l-.549-2.017h13.379a1.031,1.031,0,0,0,1-.784l1.907-7.751a1.03,1.03,0,0,0-1-1.276Zm-1.314,2.06-.447,1.815h-15.14l-.494-1.815Zm-14.533,5.691-.494-1.815h14.073l-.447,1.815Z" class="color85985a svgShape" transform="translate(-39.332 -10.971)"/></g></svg></svg>