<svg xmlns="http://www.w3.org/2000/svg" xmlns:svgjs="http://svgjs.com/svgjs" xmlns:xlink="http://www.w3.org/1999/xlink" width="288" height="288"><svg xmlns="http://www.w3.org/2000/svg" width="288" height="288" viewBox="0 0 55.11 55"><g class="color000 svgShape" transform="translate(-696.208 -812.285)"><path fill="#ffaa17" d="M710.552,854.35a1.051,1.051,0,0,0,.863-.451c.454-.653,11.142-16.048,12.526-20.86a24.541,24.541,0,0,0,.941-4.887c.015-.243.015-.368.015-.368,0-8.547-6.435-15.5-14.344-15.5s-14.344,6.953-14.344,15.5c0,0,0,.076.008.185a23.538,23.538,0,0,0,.961,5.1c1.389,4.813,12.059,20.179,12.513,20.83A1.05,1.05,0,0,0,710.552,854.35Zm-12.237-26.484c0-.008,0-.073,0-.081,0-7.388,5.492-13.4,12.242-13.4s12.242,6.01,12.242,13.394c0,.016,0,.1-.009.228a22.418,22.418,0,0,1-.864,4.447c-1.072,3.73-8.76,15.169-11.369,18.987-2.606-3.813-10.279-15.227-11.356-18.957A21.351,21.351,0,0,1,698.315,827.866Z" class="color85985a svgShape"/><path fill="#ffaa17" d="M724.449,832.716a7.544,7.544,0,1,0-7.545,7.545A7.553,7.553,0,0,0,724.449,832.716Zm-12.987,0a5.443,5.443,0,1,1,5.443,5.443A5.449,5.449,0,0,1,711.462,832.716Z" class="color85985a svgShape" transform="translate(-6.352 -6.224)"/><path fill="#ffaa17" d="M758.952,872.96a1.051,1.051,0,0,0-1.051,1.051V892.4a2.1,2.1,0,0,1-2.093,2.093H725.349a2.1,2.1,0,0,1-2.093-2.093v-6.131a1.051,1.051,0,0,0-2.1,0V892.4a4.2,4.2,0,0,0,4.2,4.2h30.459a4.2,4.2,0,0,0,4.2-4.2V874.011A1.051,1.051,0,0,0,758.952,872.96Z" class="color85985a svgShape" transform="translate(-12.048 -29.305)"/><path fill="#ffaa17" d="M775.066,839.921a1.074,1.074,0,0,0-.041-.135l-.149-.352a1.059,1.059,0,0,0-.051-.1h0c-.016-.033-.025-.067-.042-.1l-.018-.044a1.025,1.025,0,0,0-.176-.274l-3.948-7a5.1,5.1,0,0,0-4.687-3.083H750.2a1.051,1.051,0,0,0,0,2.1h15.75a3,3,0,0,1,2.773,1.851,1.123,1.123,0,0,0,.054.112l4.185,7.416.053.126c.016.042.032.08.049.13a5.948,5.948,0,0,1-2.388,7.162,6.828,6.828,0,0,1-2.186.363,6.752,6.752,0,0,1-6.6-5.211,1.264,1.264,0,0,0-1.233-.98h0a1.267,1.267,0,0,0-1.235.978,6.753,6.753,0,0,1-6.594,5.213,8.9,8.9,0,0,1-1.244-.122l-.187-.027a7.6,7.6,0,0,1-3.275-1.48,1.051,1.051,0,0,0-1.345,1.616,9.693,9.693,0,0,0,4.324,1.946l.182.026a10.525,10.525,0,0,0,1.545.144,8.846,8.846,0,0,0,7.829-4.679,8.892,8.892,0,0,0,10.767,4.18l.01,0c.02-.007.041-.011.06-.019a1.042,1.042,0,0,0,.2-.1l0,0a8.048,8.048,0,0,0,3.357-9.654Z" class="color85985a svgShape" transform="translate(-24.245 -7.993)"/><path fill="#ffaa17" d="M744.393,890.211v.78a1.051,1.051,0,0,0,2.1,0v-.78a4.681,4.681,0,0,1,4.676-4.676h1.563a4.681,4.681,0,0,1,4.675,4.676v.78a1.051,1.051,0,0,0,2.1,0v-.78a6.784,6.784,0,0,0-4.97-6.526,4.808,4.808,0,1,0-5.234.015A6.785,6.785,0,0,0,744.393,890.211Zm7.519-13.25a2.7,2.7,0,1,1-2.7,2.7A2.707,2.707,0,0,1,751.912,876.961Z" class="color85985a svgShape" transform="translate(-23.273 -30.223)"/></g></svg></svg>