<svg xmlns="http://www.w3.org/2000/svg" xmlns:svgjs="http://svgjs.com/svgjs" xmlns:xlink="http://www.w3.org/1999/xlink" width="288" height="288"><svg xmlns="http://www.w3.org/2000/svg" width="288" height="288" viewBox="0 0 58.487 57"><g class="color000 svgShape" transform="translate(-2748.277 -3318.202)"><path fill="#ffaa17" d="M2799.822,3455.772l-9.494,3.07-11.512-3.431a9.355,9.355,0,0,0-3.02-.544H2773a8.286,8.286,0,0,0-8.277,8.277v8.954a.927.927,0,1,0,1.853,0v-8.954a6.431,6.431,0,0,1,6.423-6.423h2.795a7.483,7.483,0,0,1,2.368.426.837.837,0,0,0,.083.029l11.829,3.525a.929.929,0,0,0,.55-.006l9.767-3.158a2.426,2.426,0,0,1,2.907,3.412,2.4,2.4,0,0,1-1.412,1.2l-10.747,3.477a2.36,2.36,0,0,1-.737.117,1.93,1.93,0,0,1-.605-.1l-7.027-2.095a.927.927,0,0,0-1.192.888v7.657a.927.927,0,1,0,1.854,0v-6.414l5.839,1.74a3.761,3.761,0,0,0,1.132.174,4.245,4.245,0,0,0,1.308-.208l10.747-3.476a4.279,4.279,0,0,0-2.636-8.142Z" class="color85985a svgShape" transform="translate(-11.772 -97.822)"/><path fill="#ffaa17" d="M2791.833,3318.2h-28.625a14.948,14.948,0,0,0-14.931,14.931v2.329a14.907,14.907,0,0,0,7.16,12.748,7.685,7.685,0,0,0,14.656,2.1.918.918,0,0,0,.325.062h3.214v3.28a.927.927,0,0,0,1.454.762l5.821-4.026h10.926a14.948,14.948,0,0,0,14.931-14.931v-2.329A14.948,14.948,0,0,0,2791.833,3318.2Zm-28.773,34.849a5.834,5.834,0,1,1,5.834-5.835A5.841,5.841,0,0,1,2763.059,3353.051Zm41.851-17.589a13.092,13.092,0,0,1-13.077,13.077h-11.216a.924.924,0,0,0-.527.165l-4.6,3.185v-2.44a.927.927,0,0,0-.927-.927h-3.925a7.687,7.687,0,1,0-15.165-2.526,13.027,13.027,0,0,1-5.339-10.535v-2.329a13.092,13.092,0,0,1,13.077-13.077h28.625a13.092,13.092,0,0,1,13.077,13.077Z" class="color85985a svgShape"/><path fill="#ffaa17" d="M2822.95,3345.889h-3.892a.927.927,0,0,0,0,1.854h1.67l-8.532,8.28-5.883-6.617a.927.927,0,0,0-1.465.1l-4.347,6.56-5.982-4.05a.927.927,0,0,0-1.018-.014l-4.333,2.765a.927.927,0,0,0,1,1.562l3.82-2.437,6.253,4.233a.927.927,0,0,0,1.292-.255l4.2-6.337,5.726,6.44a.927.927,0,0,0,1.338.049l9.23-8.958v1.763a.927.927,0,0,0,1.854,0v-4.016A.927.927,0,0,0,2822.95,3345.889Z" class="color85985a svgShape" transform="translate(-28.963 -19.818)"/></g></svg></svg>