<svg xmlns="http://www.w3.org/2000/svg" xmlns:svgjs="http://svgjs.com/svgjs" xmlns:xlink="http://www.w3.org/1999/xlink" width="288" height="288"><svg xmlns="http://www.w3.org/2000/svg" width="288" height="288" viewBox="0 0 63.951 61"><g class="color000 svgShape" transform="translate(-486.736 -1248.797)"><path fill="#ffaa17" d="M628.442,1337.41l-17.029-5.474-.57-6.628s0-.008,0-.012c1.122-1.357,2.671-3.754,2.9-5.578l.162-1.267a7.269,7.269,0,0,1,.936-2.757,9.294,9.294,0,0,0,1.265-4.678v-6.762a.99.99,0,0,0-1.98,0v6.762a7.311,7.311,0,0,1-.995,3.681,9.229,9.229,0,0,0-1.19,3.5l-.162,1.267a11.959,11.959,0,0,1-2.667,4.8,4.127,4.127,0,0,0-.243,1.206l.626,7.284a.99.99,0,0,0,.684.858l17.659,5.677a7.45,7.45,0,0,1,5.219,7.129.99.99,0,1,0,1.98,0A9.422,9.422,0,0,0,628.442,1337.41Z" class="color85985a svgShape" transform="translate(-84.353 -37.618)"/><path fill="#ffaa17" d="M641.166,1335.215l-.222-2.586a6.525,6.525,0,0,0,1.352-2.732l.076-.6a2.92,2.92,0,0,1,.376-1.106,4.914,4.914,0,0,0,.669-2.474v-2.884a6.4,6.4,0,1,0-12.809,0v3.019a4.935,4.935,0,0,0,.518,2.2l.09.18a2.924,2.924,0,0,1,.286.94l.093.729a6.451,6.451,0,0,0,1.255,2.6l-.234,2.717L624.9,1337.7a.99.99,0,1,0,.606,1.885l8.346-2.683a.99.99,0,0,0,.683-.858l.3-3.443a2.7,2.7,0,0,0-.191-1.025,5.408,5.408,0,0,1-1.078-1.926l-.093-.728a4.9,4.9,0,0,0-.479-1.575l-.09-.18a2.949,2.949,0,0,1-.309-1.311v-3.019a4.425,4.425,0,1,1,8.849,0v2.884a2.935,2.935,0,0,1-.4,1.477,4.888,4.888,0,0,0-.629,1.854l-.076.6a5.266,5.266,0,0,1-1.135,1.993.985.985,0,0,0-.238.753.968.968,0,0,0,0,.206l.3,3.443a.989.989,0,0,0,.683.858l4.025,1.294a.99.99,0,0,0,.606-1.885Z" class="color85985a svgShape" transform="translate(-94.948 -46.71)"/><path fill="#ffaa17" d="M488.029,1338.365l4.564-1.467a.989.989,0,0,0,.683-.858l.3-3.443a1,1,0,0,0,0-.129.988.988,0,0,0-.19-.9,5.409,5.409,0,0,1-1.078-1.926l-.093-.728a4.9,4.9,0,0,0-.479-1.575l-.09-.18a2.948,2.948,0,0,1-.309-1.311v-3.019a4.425,4.425,0,1,1,8.849,0v2.884a2.935,2.935,0,0,1-.4,1.477,4.882,4.882,0,0,0-.629,1.854l-.076.6a5.266,5.266,0,0,1-1.135,1.993.984.984,0,0,0-.238.752.974.974,0,0,0,0,.207l.3,3.443a.989.989,0,0,0,.683.858l8.346,2.683a.99.99,0,1,0,.606-1.885l-7.719-2.481-.222-2.586a6.525,6.525,0,0,0,1.352-2.732l.076-.6a2.919,2.919,0,0,1,.376-1.106,4.915,4.915,0,0,0,.669-2.474v-2.884a6.4,6.4,0,1,0-12.809,0v3.019a4.935,4.935,0,0,0,.518,2.2l.09.18a2.924,2.924,0,0,1,.286.94l.093.729a6.457,6.457,0,0,0,1.255,2.6l-.234,2.717-3.936,1.266a.99.99,0,1,0,.606,1.885Z" class="color85985a svgShape" transform="translate(0 -46.71)"/><path fill="#ffaa17" d="M529.514,1269.92a12.115,12.115,0,0,0-.083-1.416.99.99,0,0,0-1.966.232,10.133,10.133,0,0,1,.069,1.184c0,4.531-3,8.218-6.693,8.218s-6.693-3.686-6.693-8.218,3-8.218,6.693-8.218a6.471,6.471,0,0,1,5.53,3.6l-2.712,1.692a3.59,3.59,0,0,0-2.818-1.437,4.4,4.4,0,0,0,0,8.724,3.757,3.757,0,0,0,3.322-2.23.99.99,0,1,0-1.78-.867,1.8,1.8,0,0,1-1.542,1.118,2.468,2.468,0,0,1,0-4.765,1.578,1.578,0,0,1,1.121.516l-1.645,1.027a.99.99,0,1,0,1.048,1.68l19.891-12.412,2.732,1.382a.991.991,0,0,0,.968-.042l5.919-3.663a.99.99,0,0,0-.074-1.725l-2.573-1.3v-3.211a.99.99,0,0,0-1.506-.845l-5.94,3.628a.99.99,0,0,0-.474.845v3.189L532,1261.788a12.446,12.446,0,0,0-23.606,5.508v6.386a9.333,9.333,0,0,0,.98,4.152l.191.381a7.286,7.286,0,0,1,.712,2.343l.2,1.541c.227,1.781,1.723,4.075,2.726,5.354a.976.976,0,0,0-.053.236l-.57,6.628-17.025,5.472a9.423,9.423,0,0,0-6.6,9.016.99.99,0,1,0,1.98,0,7.452,7.452,0,0,1,5.223-7.13L513.811,1296a.99.99,0,0,0,.683-.858l.626-7.284a.976.976,0,0,0-.028-.315.988.988,0,0,0-.128-1.056,12.022,12.022,0,0,1-2.526-4.639l-.2-1.541a9.253,9.253,0,0,0-.906-2.978l-.19-.381a7.342,7.342,0,0,1-.771-3.267V1267.3a10.464,10.464,0,0,1,19.935-4.452l-2.26,1.41a8.4,8.4,0,0,0-7.21-4.531c-4.783,0-8.673,4.574-8.673,10.2s3.891,10.2,8.673,10.2S529.514,1275.542,529.514,1269.92Zm14.873-12.208-1.167-.59,3.928-2.451,1.185.6Zm-2.1-3.741,3.96-2.419v1.346l-3.96,2.471Z" class="color85985a svgShape" transform="translate(-1.531)"/></g></svg></svg>