<svg xmlns="http://www.w3.org/2000/svg" xmlns:svgjs="http://svgjs.com/svgjs" xmlns:xlink="http://www.w3.org/1999/xlink" width="288" height="288"><svg xmlns="http://www.w3.org/2000/svg" width="288" height="288" viewBox="0 0 65.743 65.733"><g class="color000 svgShape" transform="translate(0 -.038)"><path fill="#ffaa17" d="M147.072,123.046a1.283,1.283,0,1,0,.376.908A1.294,1.294,0,0,0,147.072,123.046Z" class="color556c26 svgShape" transform="translate(-126.277 -106.885)"/><path fill="#ffaa17" d="M65.368,5.407,63.78,3.818,65.367,2.23A1.284,1.284,0,0,0,63.551.414L61.965,2,60.4.434a1.284,1.284,0,0,0-.908-.377L37.76.046h0a6.383,6.383,0,0,0-4.543,1.882L22.368,12.772a1.284,1.284,0,0,0,1.816,1.816L35.029,3.743a3.831,3.831,0,0,1,2.727-1.13h0l21.2.012,1.19,1.191L55.385,8.581A5.26,5.26,0,1,0,57.2,10.4l4.765-4.765,1.211,1.212-.012,21.172a3.832,3.832,0,0,1-1.13,2.725L30.7,62.077a3.857,3.857,0,0,1-5.454,0L3.7,40.529a3.856,3.856,0,0,1,0-5.454L17.539,21.233a1.284,1.284,0,0,0-1.816-1.816L1.882,33.259a6.425,6.425,0,0,0,0,9.086L23.43,63.893a6.432,6.432,0,0,0,9.086,0L63.849,32.559a6.384,6.384,0,0,0,1.882-4.54l.012-21.7A1.284,1.284,0,0,0,65.368,5.407ZM54.585,15a2.692,2.692,0,1,1-1.9-4.594,2.707,2.707,0,0,1,.77.112L51.97,12a1.284,1.284,0,1,0,1.816,1.816l1.478-1.478A2.694,2.694,0,0,1,54.585,15Z" class="color556c26 svgShape"/><path fill="#ffaa17" d="M105.93,89.7,90.966,74.732a5.09,5.09,0,0,0-7.19,0L60.1,98.413a5.084,5.084,0,0,0,0,7.19l14.964,14.964a5.084,5.084,0,0,0,7.19,0L105.93,96.886a5.084,5.084,0,0,0,0-7.19Zm-1.816,5.374L80.433,118.751a2.516,2.516,0,0,1-3.558,0L61.911,103.787a2.516,2.516,0,0,1,0-3.558L85.592,76.548a2.519,2.519,0,0,1,3.558,0l14.964,14.964a2.516,2.516,0,0,1,0,3.558Z" class="color556c26 svgShape" transform="translate(-51.081 -63.807)"/><path fill="#ffaa17" d="M220.784,185.2a1.284,1.284,0,1,0-1.816-1.816l-.739.739a4.943,4.943,0,0,0-6.109.545,4.659,4.659,0,0,0-1.345,3.57,5.4,5.4,0,0,0,1.6,3.552h0a2.311,2.311,0,1,1-3.491-.258,1.284,1.284,0,1,0-1.816-1.816,4.943,4.943,0,0,0-.545,6.109l-.877.877a1.284,1.284,0,0,0,1.817,1.816l.878-.878a5.312,5.312,0,0,0,2.783.8,4.661,4.661,0,0,0,3.325-1.347,5.052,5.052,0,0,0-.256-7.121h0a2.838,2.838,0,0,1-.853-1.861,2.121,2.121,0,0,1,.6-1.63,2.491,2.491,0,0,1,3.49.257h0a2.491,2.491,0,0,1,.257,3.49,1.284,1.284,0,1,0,1.816,1.816,4.943,4.943,0,0,0,.545-6.109Z" class="color556c26 svgShape" transform="translate(-178.914 -159.477)"/><path fill="#ffaa17" d="M165.221,318.549l-6.6-6.6a1.284,1.284,0,1,0-1.816,1.816l6.6,6.6a1.284,1.284,0,0,0,1.816-1.816Z" class="color556c26 svgShape" transform="translate(-136.347 -271.537)"/><path fill="#ffaa17" d="M131.232,284.556a1.282,1.282,0,1,0,.378.909A1.292,1.292,0,0,0,131.232,284.556Z" class="color556c26 svgShape" transform="translate(-112.471 -247.657)"/></g></svg></svg>