<svg xmlns="http://www.w3.org/2000/svg" xmlns:svgjs="http://svgjs.com/svgjs" xmlns:xlink="http://www.w3.org/1999/xlink" width="288" height="288"><svg xmlns="http://www.w3.org/2000/svg" width="288" height="288" viewBox="0 0 65.502 65.502"><path fill="#ffaa17" d="M301.279,190a1.279,1.279,0,1,0,1.279,1.279A1.28,1.28,0,0,0,301.279,190Z" class="color556c26 svgShape" transform="translate(-261.62 -165.693)"/><path fill="#ffaa17" d="M64,56.767,46.926,39.69a25.357,25.357,0,0,0,4.247-14.1A25.587,25.587,0,1,0,25.587,51.173a25.358,25.358,0,0,0,14.1-4.247l4.72,4.72,0,0L56.766,64A5.117,5.117,0,1,0,64,56.767ZM39.088,44.23h0a23.051,23.051,0,1,1,5.142-5.142A23.14,23.14,0,0,1,39.088,44.23Zm2.684,1.16a25.673,25.673,0,0,0,3.618-3.618l3.63,3.63A31.053,31.053,0,0,1,45.4,49.02Zm20.421,16.8a2.557,2.557,0,0,1-3.618,0l-11.36-11.36a33.617,33.617,0,0,0,3.618-3.618l11.36,11.36a2.556,2.556,0,0,1,0,3.617Z" class="color556c26 svgShape"/><path fill="#ffaa17" d="M60.469,40A20.469,20.469,0,1,0,80.939,60.469,20.492,20.492,0,0,0,60.469,40Zm0,38.38A17.911,17.911,0,1,1,78.38,60.469,17.931,17.931,0,0,1,60.469,78.38Z" class="color556c26 svgShape" transform="translate(-34.883 -34.883)"/><path fill="#ffaa17" d="M205.616,89.86A15.376,15.376,0,0,0,191.279,80a1.279,1.279,0,0,0,0,2.559,12.881,12.881,0,0,1,11.948,8.219,1.279,1.279,0,1,0,2.388-.918Z" class="color556c26 svgShape" transform="translate(-165.693 -69.765)"/></svg></svg>