<svg xmlns="http://www.w3.org/2000/svg" xmlns:svgjs="http://svgjs.com/svgjs" xmlns:xlink="http://www.w3.org/1999/xlink" width="288" height="288"><svg xmlns="http://www.w3.org/2000/svg" width="288" height="288" viewBox="0 0 378 397.198"><g class="color000 svgShape" transform="translate(556.093 205.228)"><path fill="#ffd05b" d="M-516.675,181.944v9.718c0,11.6,21.608,21,48.3,21,1.748,0,3.5-.053,5.19-.132-.026.344-.052.715-.079,1.059a106.647,106.647,0,0,1-16.6,1.271c-26.665,0-48.272-9.427-48.272-21.025,0-4.819,3.733-9.268,10.036-12.817Z" class="colorffd05b svgShape" transform="translate(-4.81 -66.456)"/><path fill="#f7f7f7" d="M-178.093-171.976V65.813A14.566,14.566,0,0,1-192.657,80.35h-33.709V10.894c0-6.33-5.137-12.129-11.439-12.313a11.837,11.837,0,0,0-12.181,11.81V5.307c0-6.3-5.137-12.1-11.44-12.287A11.816,11.816,0,0,0-273.605,4.8V-.757A11.8,11.8,0,0,0-285.76-12.567c-6.329.185-11.466,5.984-11.466,12.313V4.8c0-.423-.026-.873-.053-1.3V-51.228a11.776,11.776,0,0,0-11.783-11.784,11.793,11.793,0,0,0-11.783,11.784V43.491h-4.634a14.522,14.522,0,0,0-14.511,14.537V80.35h-103.8c-8.818-4.952-22.614-8.13-38.105-8.13S-511.184,75.4-520,80.35h-21.555a14.543,14.543,0,0,1-14.537-14.537V-171.976Z" class="colorf7f7f7 svgShape" transform="translate(0 -5.721)"/><path fill="#423e33" d="M-178.1-177.692v-13a14.538,14.538,0,0,0-14.538-14.538h-348.9a14.537,14.537,0,0,0-14.538,14.538v13Z" class="color423e33 svgShape" transform="translate(-.002)"/><path fill="#acb3ba" d="M-268.04-175.2h-78.741l-2.325-6.012,3.686-9.5h71.341Z" class="coloracb3ba svgShape" transform="translate(-35.614 -2.498)"/><path fill="#acb3ba" d="M-363-175.2h-77.351l-3.033-7.826,2.977-7.685h71.369Z" class="coloracb3ba svgShape" transform="translate(-19.392 -2.498)"/><path fill="#e6e9ee" d="M-459.748-175.2l-6.043-15.521h-71.344l-6.043,15.521h-12.9v31.255H-178.1V-175.2Z" class="colore6e9ee svgShape" transform="translate(-.002 -2.497)"/><ellipse cx="6.635" cy="6.55" fill="#f9f9f9" class="colorf9f9f9 svgShape" rx="6.635" ry="6.55" transform="translate(-208.138 -198.269)"/><ellipse cx="7.334" cy="7.24" fill="#e6e9ee" class="colore6e9ee svgShape" rx="7.334" ry="7.24" transform="translate(-230.528 -198.269)"/><ellipse cx="6.635" cy="6.55" fill="#f9f9f9" class="colorf9f9f9 svgShape" rx="6.635" ry="6.55" transform="translate(-251.521 -198.269)"/><rect width="308.716" height="16.145" fill="#fff" class="colorfff svgShape" transform="translate(-496.801 -170.139)"/><path d="M-477.283-154.484a2.133,2.133,0,0,0-1.648.964v3.014a.43.43,0,0,1-.136.322.454.454,0,0,1-.326.13.438.438,0,0,1-.322-.13.438.438,0,0,1-.13-.322v-6.519a.451.451,0,0,1,.13-.332.438.438,0,0,1,.322-.13.454.454,0,0,1,.326.13.443.443,0,0,1,.136.332v2.622a3.4,3.4,0,0,1,.693-.593,2.185,2.185,0,0,1,1.09-.332,2.008,2.008,0,0,1,.849.156,1.661,1.661,0,0,1,.562.427,2.06,2.06,0,0,1,.473,1.386v2.853a.43.43,0,0,1-.136.322.454.454,0,0,1-.327.13.437.437,0,0,1-.321-.13.438.438,0,0,1-.131-.322v-2.752a1.423,1.423,0,0,0-.256-.9A1.014,1.014,0,0,0-477.283-154.484Z" class="ppc-work-2-2-h color000 svgShape" transform="translate(-13.119 -8.214)"/><path fill="#324a5e" d="M-469.536-150.547a1.16,1.16,0,0,0,.382-.045.672.672,0,0,1,.251-.046.361.361,0,0,1,.247.1.39.39,0,0,1,.11.3.3.3,0,0,1-.2.291,1.825,1.825,0,0,1-.739.2,4.754,4.754,0,0,1-.557-.03,1.2,1.2,0,0,1-.482-.171,1.193,1.193,0,0,1-.553-1.126v-3.114h-.713a.169.169,0,0,1-.191-.19.233.233,0,0,1,.09-.171l1.367-1.335a.252.252,0,0,1,.171-.091.176.176,0,0,1,.136.06.2.2,0,0,1,.055.141v.8h1.136a.38.38,0,0,1,.281.11.381.381,0,0,1,.111.281.381.381,0,0,1-.111.281.38.38,0,0,1-.281.11h-1.136v3.034a.559.559,0,0,0,.232.522A.768.768,0,0,0-469.536-150.547Z" class="color324a5e svgShape" transform="translate(-14.472 -8.475)"/><path fill="#324a5e" d="M-463.579-150.547a1.16,1.16,0,0,0,.382-.045.674.674,0,0,1,.252-.046.357.357,0,0,1,.246.1.387.387,0,0,1,.11.3.3.3,0,0,1-.2.291,1.829,1.829,0,0,1-.739.2,4.758,4.758,0,0,1-.558-.03,1.2,1.2,0,0,1-.482-.171,1.193,1.193,0,0,1-.552-1.126v-3.114h-.714a.168.168,0,0,1-.19-.19.23.23,0,0,1,.09-.171l1.366-1.335a.253.253,0,0,1,.171-.091.175.175,0,0,1,.136.06.2.2,0,0,1,.055.141v.8h1.135a.383.383,0,0,1,.281.11.38.38,0,0,1,.11.281.38.38,0,0,1-.11.281.383.383,0,0,1-.281.11h-1.135v3.034a.56.56,0,0,0,.231.522A.77.77,0,0,0-463.579-150.547Z" class="color324a5e svgShape" transform="translate(-15.497 -8.475)"/><path fill="#324a5e" d="M-458.547-154.116a2.329,2.329,0,0,1,1.718-.764,2.272,2.272,0,0,1,1.668.694,2.662,2.662,0,0,1,.763,1.969,2.656,2.656,0,0,1-.763,1.979,2.318,2.318,0,0,1-1.672.683,2.323,2.323,0,0,1-1.713-.763v2.562a.452.452,0,0,1-.131.332.442.442,0,0,1-.326.13.445.445,0,0,1-.327-.13.451.451,0,0,1-.13-.332v-6.62a.437.437,0,0,1,.13-.321.446.446,0,0,1,.327-.131.442.442,0,0,1,.326.131.438.438,0,0,1,.131.321Zm0,2.953a2.087,2.087,0,0,0,1.587.753,1.484,1.484,0,0,0,1.527-1.025,2.347,2.347,0,0,0,.121-.783,1.9,1.9,0,0,0-.462-1.356,1.582,1.582,0,0,0-1.186-.452,2.084,2.084,0,0,0-1.587.753Z" class="color324a5e svgShape" transform="translate(-16.626 -8.663)"/><path fill="#324a5e" d="M-449.029-150.4q1.115,0,1.115-.714a.364.364,0,0,0-.221-.336,2.792,2.792,0,0,0-.557-.206c-.225-.06-.468-.122-.729-.185a3.341,3.341,0,0,1-.729-.267,1.659,1.659,0,0,1-.557-.447,1.05,1.05,0,0,1-.221-.678,1.811,1.811,0,0,1,.12-.693,1.341,1.341,0,0,1,.362-.5,2.212,2.212,0,0,1,1.477-.452,4.3,4.3,0,0,1,1.456.252.426.426,0,0,1,.216.161.425.425,0,0,1,.075.246.369.369,0,0,1-.115.256.322.322,0,0,1-.226.121.921.921,0,0,1-.272-.05,3.53,3.53,0,0,0-1.055-.151,1.551,1.551,0,0,0-.869.2.58.58,0,0,0-.3.483.452.452,0,0,0,.226.416,2.236,2.236,0,0,0,.558.226q.332.091.729.181a3.377,3.377,0,0,1,.728.251,1.317,1.317,0,0,1,.784,1.245,1.294,1.294,0,0,1-.483,1.045,2.186,2.186,0,0,1-1.456.442,3.7,3.7,0,0,1-1.828-.452.357.357,0,0,1-.171-.3.448.448,0,0,1,.111-.306.32.32,0,0,1,.241-.126.8.8,0,0,1,.311.08A3.074,3.074,0,0,0-449.029-150.4Z" class="color324a5e svgShape" transform="translate(-18.087 -8.663)"/><path fill="#324a5e" d="M-443.013-154.795a.545.545,0,0,1,.4.166.545.545,0,0,1,.166.4v.06a.543.543,0,0,1-.166.4.545.545,0,0,1-.4.166h-.1a.542.542,0,0,1-.4-.166.54.54,0,0,1-.166-.4v-.06a.542.542,0,0,1,.166-.4.542.542,0,0,1,.4-.166Zm0,4a.542.542,0,0,1,.4.166.542.542,0,0,1,.166.4v.06a.542.542,0,0,1-.166.4.545.545,0,0,1-.4.166h-.1a.542.542,0,0,1-.4-.166.539.539,0,0,1-.166-.4v-.06a.539.539,0,0,1,.166-.4.539.539,0,0,1,.4-.166Z" class="color324a5e svgShape" transform="translate(-19.342 -8.677)"/><path fill="#324a5e" d="M-436.87-157.559a.381.381,0,0,1,.4-.281.38.38,0,0,1,.286.12.34.34,0,0,1,.115.221.555.555,0,0,1-.03.221l-2.663,7.786a.374.374,0,0,1-.392.282.394.394,0,0,1-.3-.121.345.345,0,0,1-.115-.231.525.525,0,0,1,.03-.211Z" class="color324a5e svgShape" transform="translate(-20.05 -8.153)"/><path fill="#324a5e" d="M-432.077-157.559a.38.38,0,0,1,.4-.281.381.381,0,0,1,.286.12.34.34,0,0,1,.115.221.555.555,0,0,1-.03.221l-2.663,7.786a.374.374,0,0,1-.392.282.394.394,0,0,1-.3-.121.345.345,0,0,1-.115-.231.526.526,0,0,1,.03-.211Z" class="color324a5e svgShape" transform="translate(-20.875 -8.153)"/><path fill="#ddd" d="M-189.021-113.1V-27.01H-294.412V-41.1A11.776,11.776,0,0,0-306.2-52.881,11.793,11.793,0,0,0-317.979-41.1V-27.01H-539.431V-113.1Z" class="colorddd svgShape" transform="translate(-2.867 -15.852)"/><rect width="128.112" height="11.213" fill="#ddd" class="colorddd svgShape" transform="translate(-542.309 -27.836)"/><rect width="221.452" height="11.227" fill="#ddd" class="colorddd svgShape" transform="translate(-542.297 1.121)"/><path fill="#e6e9ee" d="M-186.372,44h.529a12,12,0,0,0-.529,3.549Z" class="colore6e9ee svgShape" transform="translate(-63.613 -42.882)"/><path fill="#e6e9ee" d="M-123.515,44V55.231h-34.477V48.055A11.632,11.632,0,0,0-158.708,44Z" class="colore6e9ee svgShape" transform="translate(-68.373 -42.882)"/><rect width="221.452" height="11.227" fill="#ddd" class="colorddd svgShape" transform="translate(-542.297 21.988)"/><rect width="34.477" height="11.227" fill="#e6e9ee" class="colore6e9ee svgShape" transform="translate(-226.365 21.988)"/><rect width="72.482" height="11.213" fill="#ddd" class="colorddd svgShape" transform="translate(-542.309 42.848)"/><rect width="14.088" height="93.756" fill="#e6e9ee" class="colore6e9ee svgShape" transform="rotate(-90 -97.503 220.563)"/><rect width="68.91" height="112.676" fill="#ffaa17" class="color3d4c19 svgShape" transform="rotate(-90 -67.778 259.748)"/><path fill="#2b350f" d="M-261.223,202.751A10.782,10.782,0,0,0-272,213.532a10.782,10.782,0,0,0,10.781,10.781,10.781,10.781,0,0,0,10.781-10.781A10.781,10.781,0,0,0-261.223,202.751Z" class="color2b350f svgShape" transform="translate(-48.879 -70.196)"/><path fill="#ce916f" d="M-192.894,21.227a11.812,11.812,0,0,0-12.173,11.8v-5.08c0-6.312-5.137-12.11-11.446-12.3a11.811,11.811,0,0,0-12.173,11.806V21.882a11.811,11.811,0,0,0-12.174-11.8c-6.308.19-11.446,5.988-11.446,12.3v5.081a12.033,12.033,0,0,0-.075-1.3V-28.6a11.773,11.773,0,0,0-11.773-11.773A11.773,11.773,0,0,0-275.928-28.6V44.929h0V66.147h-4.65a14.52,14.52,0,0,0-14.52,14.52v23.015a27.3,27.3,0,0,0,17,25.542l.206.08a25.326,25.326,0,0,1,11.248,8.032h82.59l.286-1.279a96.566,96.566,0,0,0,2.326-21.065V33.527C-181.447,27.216-186.584,21.417-192.894,21.227Z" class="colorce916f svgShape" transform="translate(-44.906 -28.365)"/><g class="color000 svgShape" transform="translate(-423.126 70.866)"><path fill="#db8f2c" d="M-340.46,135.844l1.508-7.6-4.126,6.561-1.383-2.067.553,2.425-7.6-1.508,6.561,4.126-2.067,1.383,2.425-.552-1.508,7.6,4.126-6.561,1.383,2.067-.553-2.425,7.6,1.508-6.561-4.126,2.067-1.383Z" class="colordb8f2c svgShape" transform="translate(387.927 -128.242)"/><path fill="#db8f2c" d="M-348.424,166.312l1.8-9.053-4.913,7.813-1.646-2.461.658,2.888-9.053-1.8,7.813,4.913-2.462,1.646,2.887-.658-1.8,9.053,4.913-7.813,1.647,2.462-.658-2.887,9.052,1.8L-348,167.3l2.462-1.647Z" class="colordb8f2c svgShape" transform="translate(389.66 -133.234)"/><path fill="#db8f2c" d="M-377.769,140.572l2.419-12.2-6.618,10.525-2.218-3.316.887,3.89-12.2-2.419,10.525,6.618-3.316,2.218,3.89-.886-2.419,12.195,6.618-10.525,2.218,3.316-.887-3.89,12.195,2.419L-377.2,141.9l3.316-2.218Z" class="colordb8f2c svgShape" transform="translate(395.494 -128.265)"/></g><path fill="#f9b54c" d="M-458.552,238.468a107.3,107.3,0,0,1-12.6.741c-19.737,0-36.666-5.146-44.162-12.514,8.823,4.167,21.426,6.795,35.477,6.795a104.587,104.587,0,0,0,18.536-1.615,41.529,41.529,0,0,1-2.039-12.923q0-1.35.079-2.7a106.13,106.13,0,0,1-16.576,1.271c-26.691,0-48.3-9.426-48.3-21.025v15.967c0,4.465,3.226,8.6,8.686,12.007v9.707c0,11.6,21.608,21,48.3,21a98.836,98.836,0,0,0,24.256-2.86A42.057,42.057,0,0,1-458.552,238.468Z" class="colorf9b54c svgShape" transform="translate(-4.809 -69.119)"/><ellipse cx="48.275" cy="21.018" fill="#ffd05b" class="colorffd05b svgShape" rx="48.275" ry="21.018" transform="translate(-530.164 66.507)"/><path fill="#f9b54c" d="M-435.1,145.051a4.214,4.214,0,0,1-.125,1.1c-1.38-8.312-18.5-14.867-39.456-14.867-20.982,0-38.106,6.556-39.485,14.867a4.178,4.178,0,0,1-.126-1.1c0-8.813,17.72-15.964,39.611-15.964C-452.822,129.087-435.1,136.238-435.1,145.051Z" class="colorf9b54c svgShape" transform="translate(-7.192 -57.521)"/><path fill="#ffd05b" d="M-376.4,212.684a42.119,42.119,0,0,1-42.13,42.13A42.15,42.15,0,0,1-455.894,232.2a107.761,107.761,0,0,1-12.631.741c-19.727,0-36.7-5.137-44.168-12.524,8.818,4.183,21.45,6.8,35.51,6.8a104.3,104.3,0,0,0,18.51-1.615,42.537,42.537,0,0,1-2.014-12.923q0-1.35.079-2.7a41.809,41.809,0,0,1,4.978-17.344c-3.256.291-6.646.45-10.115.45-19.674,0-36.649-5.137-44.142-12.472,8.818,4.157,21.448,6.753,35.482,6.753a98.414,98.414,0,0,0,24.547-2.939c-.238.265,8.821-10.276,22.27-12.922a10.246,10.246,0,0,0,1.456-5.165v-6.275c4.819,3.018,7.891,6.619,8.526,10.486A42.119,42.119,0,0,1-376.4,212.684Z" class="colorffd05b svgShape" transform="translate(-7.467 -62.852)"/><circle cx="32.02" cy="32.02" r="32.02" fill="#f9b54c" class="colorf9b54c svgShape" transform="translate(-458.027 117.802)"/><path fill="#f9b54c" d="M-473.006,145.249c.344-.746,1.336-3.081,2.751-4.027,1.459-1.149,3.542-1.706,6.292-1.706a13.111,13.111,0,0,1,6.277,1.449,8.18,8.18,0,0,1,3.96,4.285h3.787c.325,0,1.047-.057,1.3.628.153.407-.133.613-.861.613h-3.866a10.943,10.943,0,0,1-.681,6.686c-.315.653-1.171,1.515-3.625.594-1.29-.484-.807-1.608-.569-2.053a8.091,8.091,0,0,0,.661-5.227h-11.354a14.49,14.49,0,0,1-2.817,4.6c-3.4,3.319-10.895,4.2-15.222.758a5.141,5.141,0,0,1-1.941-5.359h-3.866c-.33,0-1.157-.132-.911-.613a1.538,1.538,0,0,1,1.353-.628h3.738a12.017,12.017,0,0,1,2.787-4.447,2.474,2.474,0,0,1,1.947-.64c1.378.057,2.2.531,1.144,1.557a8.84,8.84,0,0,0-1.847,3.53Zm-6.71,5.615a6.464,6.464,0,0,0,6.127-4.374h-11.155C-484.811,147.694-484.464,150.864-479.716,150.864Zm21.814-5.615c-.62-1.8-2.167-3.656-5.9-3.674-3.412-.016-4.1,2.389-4.638,3.674Z" class="colorf9b54c svgShape" transform="translate(-10.73 -59.315)"/><path fill="#f9b54c" d="M-476.483,169.388c-26.691,0-48.3-9.427-48.3-21.025V164.33c0,4.465,3.225,8.6,8.685,12.007v9.708c0,11.6,21.608,21,48.3,21,1.748,0,3.5-.053,5.19-.132a41.984,41.984,0,0,1,4.9-16.285c-3.256.291-6.619.45-10.088.45-19.737,0-36.666-5.147-44.163-12.514,8.823,4.166,21.426,6.795,35.477,6.795a98.414,98.414,0,0,0,24.547-2.939,42.432,42.432,0,0,1,22.27-12.922,10.246,10.246,0,0,0,1.456-5.165V148.363C-428.21,159.961-449.818,169.388-476.483,169.388Z" class="colorf9b54c svgShape" transform="translate(-5.387 -60.838)"/><path fill="#ffd05b" d="M-400.619,215.807c1.637.39,7.036,1.575,9.356,3.392a9.51,9.51,0,0,1,4.386,8.421,9.911,9.911,0,0,1-3.742,7.894q-3.743,3.158-10,3.508v4.561c0,.39.124,1.287-1.345,1.287a1.137,1.137,0,0,1-1.287-1.287v-4.561a35.765,35.765,0,0,1-12.514-2.806c-1.091-.506-2.5-1.616-.994-3.976.808-1.267,2.728-.527,3.509-.176a26.6,26.6,0,0,0,10,1.987V220.661a35.163,35.163,0,0,1-8.888-3.274c-5.672-3.517-7.086-11.185-1.345-16.49q3.742-3.449,10.233-3.8v-4.56c0-.391.275-1.424,1.287-1.346a1.317,1.317,0,0,1,1.345,1.346v4.5a33.189,33.189,0,0,1,10.408,1.93,2.183,2.183,0,0,1,1.638,2.34c-.147,1.83-1.36,3.031-3.918,1.93a27.027,27.027,0,0,0-8.128-1.346Zm-11.111-7.192c0,4.964,7.31,6.276,8.479,6.548V202.007C-405.706,202.241-411.729,203.392-411.73,208.616Zm11.111,25.377c4.015-.272,8.437-1.735,8.479-6.519.039-4.378-5.634-5.429-8.479-6.169Z" class="colorffd05b svgShape" transform="translate(-23.861 -68.206)"/></g></svg></svg>