<svg xmlns="http://www.w3.org/2000/svg" xmlns:svgjs="http://svgjs.com/svgjs" xmlns:xlink="http://www.w3.org/1999/xlink" width="288" height="288"><svg xmlns="http://www.w3.org/2000/svg" width="288" height="288" viewBox="0 0 43.815 56"><g class="color000 svgShape" transform="translate(-102.694 -456.769)"><path fill="#ffaa17" d="M146.483,470.782c.141-.9-1.078-1.7-1.641-2.235-.615-.588-1.245-1.164-1.847-1.766-.965-.964-1.887-1.974-2.829-2.96l-4.813-5.036c-.616-.645-1.511-2.017-2.505-2.017H105.929a3,3,0,0,0-3.235,2.953v50.139c0,1.957,1.667,2.907,3.4,2.907h37.429a2.977,2.977,0,0,0,2.981-3.115V471.5a6.479,6.479,0,0,0-.022-.714C146.538,470.429,146.487,470.822,146.483,470.782Zm-13-10.023c3.029,2.895,6.15,5.715,9.045,8.744H133.5C133.471,469.5,133.483,461.594,133.483,460.759ZM143.6,510.551H106.53c-.591,0-1.619.165-1.619-.726V459.678c0-1,1.86-.691,2.469-.691h23.5c.139,0,.388-.079.388.087V467.9c0,1.022-.493,3.821,1.147,3.821h11.236c.094,0,.64-.067.64.048v38.075A.7.7,0,0,1,143.6,510.551Z" class="color85985a svgShape"/><path fill="#ffaa17" d="M121.659,521.83c-1.219,0-1.291-1.335-.651-2.039l1.484-1.635,4.441-4.893L128.078,512c.751-.827,1.575-.215,2.028.506l2.785,4.445,2.366-4.911c.26-.54.531-1.493,1.06-1.849.921-.618,1.952.543,2.632,1.061q1.692-5.22,3.384-10.44l.443-1.367a1.109,1.109,0,0,1,2.1.723l-1.424,4.393-2.406,7.424c-.153.472-.27.981-.466,1.438-.582,1.794-2.481-.035-3.233-.607l-3.325,6.9A1.134,1.134,0,0,1,132,519.7l-1.039-1.659-2.192-3.5-3.291,3.626-2.208,2.432C122.847,521.063,122.351,521.83,121.659,521.83Z" class="color85985a svgShape" transform="translate(-8.146 -19.063)"/><g class="color000 svgShape" transform="translate(111.032 476.115)"><path fill="#ffaa17" d="M122.725,497.116c0,1.683-1.7,2.275-3.13,2.123-.416-.044-1.291-.151-1.508-.574-.115-.224-.234-1.394.232-1.214a4.476,4.476,0,0,0,1.691.541c.511,0,1.432-.461.886-1.094-.406-.472-1.2-.578-1.737-.857a1.9,1.9,0,0,1-1.12-1.547c-.128-1.609,1.4-2.311,2.8-2.208.383.028,1.407.116,1.505.625.055.294.17,1.284-.369.986a2.514,2.514,0,0,0-1.792-.336c-.692.194-.593.938-.028,1.229C121.255,495.356,122.725,495.561,122.725,497.116Z" class="color85985a svgShape" transform="translate(-117.983 -492.258)"/><path fill="#ffaa17" d="M134.459,495.574c0,.913-1.459.625-2.06.625h-2.247a1.622,1.622,0,0,0,1.917,1.726,4.877,4.877,0,0,0,1.416-.285c.514-.178.682-.147.682.441,0,1.043-1.179,1.094-2.035,1.153a3.566,3.566,0,0,1-3.064-.973c-1.33-1.606-.87-4.923,1.144-5.757a3.433,3.433,0,0,1,3.245.325A3.248,3.248,0,0,1,134.459,495.574Zm-1.695-.5c.024-.833-.354-1.577-1.271-1.577-.887,0-1.307.779-1.34,1.577Z" class="color85985a svgShape" transform="translate(-122.68 -492.244)"/><path fill="#ffaa17" d="M148.171,495.706a3.256,3.256,0,0,1-3.157,3.551,3.113,3.113,0,0,1-3.484-3.426,3.262,3.262,0,0,1,3.157-3.551A3.1,3.1,0,0,1,148.171,495.706Zm-1.8.069c0-.9-.232-2-1.3-2.109-1.283-.128-1.745.989-1.745,2.088,0,.9.237,2,1.3,2.1C145.919,497.984,146.372,496.878,146.372,495.775Z" class="color85985a svgShape" transform="translate(-128.689 -492.258)"/></g></g></svg></svg>