<svg xmlns="http://www.w3.org/2000/svg" xmlns:svgjs="http://svgjs.com/svgjs" xmlns:xlink="http://www.w3.org/1999/xlink" width="288" height="288"><svg xmlns="http://www.w3.org/2000/svg" width="288" height="288" viewBox="0 0 64.204 65.585"><g class="color000 svgShape" transform="translate(-5.587)"><path fill="#ffaa17" d="M5.587,61.227l.85,1.914,30.508-12.65,5.315.638,1.913,5.846L41.622,59.42a3.064,3.064,0,0,0-.744,3.508l1.063,2.657,17.645-6.909-.957-2.551a3.005,3.005,0,0,0-2.976-2.019H52.146l-1.913-4.571L54.909,47.2A3.194,3.194,0,0,0,56.5,43.263L50.445,27A3.275,3.275,0,0,0,46.3,25.086a.1.1,0,0,0-.106.106l-4.465,1.913-.638-1.595,2.445-2.87a12.509,12.509,0,0,0,3.083-6.8l3.083-3.72a5.583,5.583,0,0,0-.744-7.867,8.9,8.9,0,0,0-1.275-.85,5.283,5.283,0,0,0-3.614-.319l-.319-.957A3.074,3.074,0,0,0,39.709.212L17.28,8.291a3.111,3.111,0,0,0-1.913,4.039v.106l.531,1.382a5.89,5.89,0,0,0-3.083,7.229,6.046,6.046,0,0,0,4.89,3.933l5,.531a13.843,13.843,0,0,0,6.909,2.657l3.508.319.638,1.594a3.166,3.166,0,0,0-1.488,2.126l-.744,3.614L5.587,46.345l.744,2.02,14.882-5.952,3.614,10.842ZM56.5,56.763l.213.637L43.11,62.822l-.319-.638A1.474,1.474,0,0,1,43,61.015l3.614-3.4,4.571-1.488h4.252A1.066,1.066,0,0,1,56.5,56.763Zm-6.7-2.552L45.98,55.487,44.6,51.448a2.363,2.363,0,0,0,1.7-.319l1.807-.85Zm-2.87-27.425a1.055,1.055,0,0,1,1.382.531l.85,2.232-5.209,1.7.638,2.02,5.209-1.7,1.275,3.4-5,1.7.638,2.02,5.1-1.7,1.276,3.4-4.89,1.594.638,2.02,5-1.7.532,1.382a.938.938,0,0,1-.532,1.276l-8.4,4.145a1.347,1.347,0,0,1-.638.106l-7.228-.851-3.933-11.8.744-3.933a1.125,1.125,0,0,1,.638-.744ZM46.831,5.314a3.522,3.522,0,0,1,1.807,4.571,3.723,3.723,0,0,1-.531.85L46.831,12.33a15.882,15.882,0,0,0-.637-3.083L44.811,5.1A4.249,4.249,0,0,1,46.831,5.314Zm-31.89,15.2a3.662,3.662,0,0,1,1.807-4.571l1.488,3.615a15.4,15.4,0,0,0,2.126,3.614L18.13,22.96A3.555,3.555,0,0,1,14.941,20.515Zm15.095,5.634a11.616,11.616,0,0,1-9.78-7.335L17.493,11.8a1.054,1.054,0,0,1,.531-1.382L40.453,2.338a1.173,1.173,0,0,1,.851,0,1.089,1.089,0,0,1,.532.638l2.338,7.016a11.684,11.684,0,0,1-2.232,11.267l-3.3,3.827.957,2.551-3.827,1.595-1.063-2.657Zm-6.8,15.413,2.445-.957,2.657,8.079,2.02-.638-2.763-8.291,4.252-1.7L35.457,48.79,26.847,52.4Z" class="color556c26 svgShape"/><path fill="#ffaa17" d="M365.674,49.768v1.063H367.8V49.768a5.263,5.263,0,0,1,5.315-5.315V42.327a5.263,5.263,0,0,1-5.315-5.315V35.949h-2.126v1.063a5.263,5.263,0,0,1-5.315,5.315v2.126A5.263,5.263,0,0,1,365.674,49.768Zm1.063-8.929a7.327,7.327,0,0,0,2.551,2.551,7.331,7.331,0,0,0-2.551,2.552,7.331,7.331,0,0,0-2.551-2.552A7.326,7.326,0,0,0,366.737,40.839Z" class="color556c26 svgShape" transform="translate(-307.576 -31.167)"/><path fill="#ffaa17" d="M14.1,209.575v1.063h2.126v-1.063a5.264,5.264,0,0,1,5.315-5.315v-2.126a5.263,5.263,0,0,1-5.315-5.315v-1.063H14.1v1.063a5.263,5.263,0,0,1-5.315,5.315v2.126A5.263,5.263,0,0,1,14.1,209.575Zm1.063-8.929a7.325,7.325,0,0,0,2.551,2.551,7.331,7.331,0,0,0-2.551,2.552,7.331,7.331,0,0,0-2.551-2.552A7.325,7.325,0,0,0,15.16,200.646Z" class="color556c26 svgShape" transform="translate(-2.77 -169.714)"/><path fill="#ffaa17" d="M399.761,196.819v-1.063h-2.126v1.063a5.263,5.263,0,0,1-5.315,5.315v2.126a5.263,5.263,0,0,1,5.315,5.315v1.063h2.126v-1.063a5.264,5.264,0,0,1,5.315-5.315v-2.126A5.263,5.263,0,0,1,399.761,196.819Zm-1.063,8.929a7.332,7.332,0,0,0-2.551-2.552,7.326,7.326,0,0,0,2.551-2.551,7.326,7.326,0,0,0,2.551,2.551A7.332,7.332,0,0,0,398.7,205.749Z" class="color556c26 svgShape" transform="translate(-335.285 -169.714)"/><path fill="#ffaa17" d="M241.516,53.551,243,55.039c5.846-5.846.425-14.775.106-15.095L241.3,41.113C241.409,41.113,246.193,48.873,241.516,53.551Z" class="color556c26 svgShape" transform="translate(-204.358 -34.63)"/></g></svg></svg>