<svg xmlns="http://www.w3.org/2000/svg" xmlns:svgjs="http://svgjs.com/svgjs" xmlns:xlink="http://www.w3.org/1999/xlink" width="288" height="288"><svg xmlns="http://www.w3.org/2000/svg" width="288" height="288" viewBox="0 0 52.753 52.753"><g class="color000 svgShape"><path fill="#ffaa17" d="M5.255,5.256a.907.907,0,0,0-.185.29.909.909,0,0,0,.185.958A.883.883,0,0,0,6.5,5.256.921.921,0,0,0,5.255,5.256Z" class="color94a56e svgShape" transform="translate(-2.362 -2.364)"/><path fill="#ffaa17" d="M8.545,5.071a.82.82,0,0,0-.29.185.892.892,0,0,0,0,1.248.879.879,0,0,0,1.5-.624A.925.925,0,0,0,9.5,5.256.894.894,0,0,0,8.545,5.071Z" class="color94a56e svgShape" transform="translate(-2.725 -2.363)"/><path fill="#ffaa17" d="M11.545,5.071a.907.907,0,0,0-.29.185.892.892,0,0,0,0,1.248,1.016,1.016,0,0,0,.29.185.879.879,0,0,0,.334.07.87.87,0,0,0,.879-.879.925.925,0,0,0-.255-.624A.912.912,0,0,0,11.545,5.071Z" class="color94a56e svgShape" transform="translate(-3.087 -2.363)"/><rect width="12" height="2" fill="#ffaa17" class="color94a56e svgShape" transform="translate(11.274 14.753)"/><rect width="12" height="2" fill="#ffaa17" class="color94a56e svgShape" transform="translate(11.274 20.753)"/><rect width="17" height="2" fill="#ffaa17" class="color94a56e svgShape" transform="translate(11.274 24.753)"/><rect width="11" height="1" fill="#ffaa17" class="color94a56e svgShape" transform="translate(11.274 30.753)"/><rect width="7" height="2" fill="#ffaa17" class="color94a56e svgShape" transform="translate(11.274 35.753)"/><rect width="6" height="2" fill="#ffaa17" class="color94a56e svgShape" transform="translate(11.274 40.753)"/><path fill="#ffaa17" d="M51.386,12.551a3.341,3.341,0,0,0-2.38.986l-3.046,3.046V4.638A2.638,2.638,0,0,0,43.323,2H4.638A2.638,2.638,0,0,0,2,4.638V52.115a2.638,2.638,0,0,0,2.638,2.638H43.323a2.638,2.638,0,0,0,2.638-2.638V26.1L53.766,18.3a3.366,3.366,0,0,0-2.38-5.747ZM3.758,4.638a.879.879,0,0,1,.879-.879H43.323a.879.879,0,0,1,.879.879V7.275H3.758ZM44.2,52.115a.879.879,0,0,1-.879.879H4.638a.879.879,0,0,1-.879-.879V9.034H44.2v9.307l-5.275,5.275V20.979L29.62,11.671H9.034V50.357H38.927V33.136L44.2,27.861ZM23.212,39.331l-2.38,7.14,7.14-2.38L30.5,41.565l6.67-6.67V48.6H10.792V13.43H28.376v8.792h8.792v3.153L25.739,36.8Zm2.527-.04,2.274,2.274-.99.99-3.41,1.137,1.137-3.41Zm4.4-24.618,5.79,5.79h-5.79Zm-.879,25.648-2.274-2.274L47.719,17.311l2.274,2.274ZM52.523,17.054l-1.287,1.287-2.274-2.274,1.287-1.287a1.608,1.608,0,1,1,2.274,2.274Z" class="color94a56e svgShape" transform="translate(-2 -2)"/></g></svg></svg>