<svg xmlns="http://www.w3.org/2000/svg" xmlns:svgjs="http://svgjs.com/svgjs" xmlns:xlink="http://www.w3.org/1999/xlink" width="288" height="288"><svg xmlns="http://www.w3.org/2000/svg" width="288" height="288" viewBox="0 0 50.011 60.078"><g class="color000 svgShape"><path fill="#ffaa17" d="M207.218,464.255a.88.88,0,1,0,0-1.76h-4.149a.88.88,0,1,0,0,1.76Z" class="color556c26 svgShape" transform="translate(-183.498 -408.226)"/><path fill="#ffaa17" d="M189.986,109.286H176.718a.88.88,0,0,0,0,1.76h13.268a.88.88,0,1,0,0-1.76Z" class="color556c26 svgShape" transform="translate(-160.239 -96.462)"/><path fill="#ffaa17" d="M113.732,157.439H90.327a.88.88,0,1,0,0,1.76h23.405a.88.88,0,1,0,0-1.76Z" class="color556c26 svgShape" transform="translate(-83.985 -138.965)"/><path fill="#ffaa17" d="M114.612,206.472a.88.88,0,0,0-.88-.88H90.327a.88.88,0,0,0,0,1.76h23.405A.88.88,0,0,0,114.612,206.472Z" class="color556c26 svgShape" transform="translate(-83.985 -181.468)"/><path fill="#ffaa17" d="M90.327,253.746a.88.88,0,1,0,0,1.76h15.3a.88.88,0,0,0,0-1.76Z" class="color556c26 svgShape" transform="translate(-83.985 -223.971)"/><path fill="#ffaa17" d="M92.38,18.927l-1.688-1.688a1.8,1.8,0,0,0-2.545,0l-1.9,1.9-.058-.008V15.083a.88.88,0,0,0-1.76,0v4.605c-.024.022-.049.042-.072.065L59.775,44.334a6.728,6.728,0,0,0-1.53,2.352l-1.786,4.636A1.422,1.422,0,0,0,58.3,53.16l4.636-1.786a6.728,6.728,0,0,0,2.352-1.53L84.428,30.7V34.17L80.594,38a.88.88,0,0,0,1.245,1.245l2.589-2.589V49.88H67.36a.88.88,0,0,0,0,1.76H84.428v4.016a2.665,2.665,0,0,1-2.662,2.662H47.318a2.665,2.665,0,0,1-2.662-2.662V51.64h8.849a.88.88,0,1,0,0-1.76H44.656V7.5H84.428v3.463a.88.88,0,1,0,1.76,0V4.422A4.427,4.427,0,0,0,81.766,0H47.318A4.427,4.427,0,0,0,42.9,4.422V55.656a4.427,4.427,0,0,0,4.422,4.422H81.766a4.427,4.427,0,0,0,4.422-4.422V34.9l3.678-3.678a2.4,2.4,0,0,0,0-3.4l-1.28-1.28,1.281-1.281a2.189,2.189,0,0,0,.613-1.89l1.9-1.9a1.8,1.8,0,0,0,0-2.545ZM47.318,1.76H81.766a2.665,2.665,0,0,1,2.662,2.662V5.743H44.656V4.422A2.665,2.665,0,0,1,47.318,1.76ZM62.3,49.731l-3.924,1.512,1.512-3.924a4.992,4.992,0,0,1,.565-1.063l2.909,2.909a4.992,4.992,0,0,1-1.063.565ZM88.621,29.069a.642.642,0,0,1,0,.908L86.188,32.41V28.941l1.153-1.153Zm0-5.05L64.662,47.977l-3.021-3.021L85.6,21a.432.432,0,0,1,.612,0l2.409,2.409A.433.433,0,0,1,88.621,24.019Zm2.514-3.791-1.6,1.6-1.744-1.744,1.6-1.6a.039.039,0,0,1,.056,0l1.688,1.688A.039.039,0,0,1,91.135,20.227Z" class="color556c26 svgShape" transform="translate(-42.896)"/></g></svg></svg>