<svg xmlns="http://www.w3.org/2000/svg" xmlns:svgjs="http://svgjs.com/svgjs" xmlns:xlink="http://www.w3.org/1999/xlink" width="288" height="288"><svg xmlns="http://www.w3.org/2000/svg" width="288" height="288" viewBox="0 0 67.959 63"><g class="color000 svgShape" transform="translate(1839.607 -321.171)"><path fill="#ffaa17" d="M-1810.713,321.174h22.046a.973.973,0,0,1,1.073,1.025.984.984,0,0,1-1.046.915c-.322.009-.646.007-.968,0-.168-.005-.234.068-.223.225.018.246.041.491.06.737.07.914.137,1.828.209,2.742.066.845.138,1.689.206,2.533q.093,1.144.184,2.287.119,1.484.236,2.968c.081,1.04.156,2.08.237,3.12.064.832.133,1.664.2,2.5q.133,1.683.265,3.365c.01.136.072.211.216.205.063,0,.126,0,.19,0h13.641c.434,0,.429-.01.359-.443-.117-.723-.211-1.45-.319-2.175-.114-.768-.232-1.536-.349-2.3-.052-.344-.1-.687-.154-1.031-.1-.725-.2-1.452-.306-2.176-.11-.744-.234-1.485-.344-2.229s-.208-1.5-.317-2.252c-.062-.431-.135-.861-.2-1.291-.052-.337-.106-.674-.154-1.012-.105-.738-.2-1.477-.312-2.214-.087-.594-.151-1.193-.282-1.778a2.21,2.21,0,0,0-2.245-1.772c-1.783,0-3.567.007-5.35-.007a1.784,1.784,0,0,1-.74-.176.924.924,0,0,1-.4-1.07.93.93,0,0,1,.781-.675,3.027,3.027,0,0,1,.322-.012c1.79,0,3.58.008,5.369,0a4.134,4.134,0,0,1,3.546,1.8,3.329,3.329,0,0,1,.62,1.449c.179,1.148.349,2.3.524,3.445.161,1.055.332,2.109.488,3.165.153,1.037.29,2.077.442,3.114.1.712.225,1.422.332,2.134.11.731.209,1.463.318,2.194.114.768.233,1.536.349,2.3.058.387.116.775.171,1.163.1.719.176,1.443.308,2.157a6.631,6.631,0,0,1,.041,1.87,8.634,8.634,0,0,1-.507,2.227,9.184,9.184,0,0,1-2.616,3.768,1.126,1.126,0,0,1-.171.148.857.857,0,0,0-.422.867q.019,7.609.009,15.217,0,5.787,0,11.574a4.708,4.708,0,0,1-.242,1.642,4.166,4.166,0,0,1-1.59,2.041,4.36,4.36,0,0,1-2.545.717h-4.307a1.11,1.11,0,0,1-1.012-.438.955.955,0,0,1,.626-1.478,2.222,2.222,0,0,1,.34-.02c1.448,0,2.9,0,4.345,0a2.348,2.348,0,0,0,1.84-.735,2.228,2.228,0,0,0,.587-1.537c0-2.132,0-4.263,0-6.394q0-1.907,0-3.814,0-7.931,0-15.863c0-.319-.04-.324-.341-.227a9.9,9.9,0,0,1-1.529.417,11.887,11.887,0,0,1-1.943.143,8.484,8.484,0,0,1-2.636-.472,9.229,9.229,0,0,1-4.505-3.272c-.249-.331-.45-.7-.676-1.047a1.4,1.4,0,0,0-.124-.147.872.872,0,0,0-.163.15c-.137.211-.258.432-.395.643a9.178,9.178,0,0,1-2.181,2.317,8.477,8.477,0,0,1-2.366,1.286,8.646,8.646,0,0,1-4.212.475,11.964,11.964,0,0,1-1.593-.32,12.058,12.058,0,0,1-1.52-.612,8.308,8.308,0,0,1-2.141-1.474,8.634,8.634,0,0,1-1.55-1.9c-.092-.151-.177-.305-.267-.457-.078-.131-.184-.131-.257,0a9.013,9.013,0,0,1-1.739,2.277,7.8,7.8,0,0,1-1.9,1.389c-.557.276-1.129.528-1.71.748a5.492,5.492,0,0,1-1.1.272,7.984,7.984,0,0,1-2.735.073c-.533-.1-1.073-.177-1.594-.321a8.291,8.291,0,0,1-1.971-.85,9.039,9.039,0,0,1-2.541-2.181c-.336-.422-.6-.9-.908-1.344a1.281,1.281,0,0,0-.183-.179,1.145,1.145,0,0,0-.122.151,9.407,9.407,0,0,1-2.532,2.93,9.183,9.183,0,0,1-1.944,1.122,9.262,9.262,0,0,1-4.138.745,7.564,7.564,0,0,1-1.954-.337c-.276-.088-.55-.179-.825-.269-.171-.056-.236-.006-.236.193,0,.98,0,1.961,0,2.941a1,1,0,0,1-.618.991.966.966,0,0,1-1.25-.532,2.165,2.165,0,0,1-.094-.594q-.012-1.945,0-3.89a.548.548,0,0,0-.234-.479,9.17,9.17,0,0,1-2.487-2.989,8.831,8.831,0,0,1-.875-2.527,7.389,7.389,0,0,1-.067-2.657c.186-1.025.3-2.063.45-3.094.106-.725.228-1.447.336-2.172s.2-1.439.311-2.157c.117-.787.242-1.573.359-2.36.063-.425.118-.851.177-1.277.053-.382.1-.764.162-1.144.062-.406.138-.809.2-1.215.112-.769.211-1.54.325-2.309.153-1.031.313-2.06.472-3.09.044-.287.083-.575.142-.859a3.99,3.99,0,0,1,1.386-2.263,4.052,4.052,0,0,1,1.743-.869,4.219,4.219,0,0,1,.941-.089q10.634-.006,21.268,0Zm-19.535,22.618h4.021c.98,0,1.96,0,2.94,0,.167,0,.259-.048.272-.231.033-.454.083-.906.118-1.36.1-1.361.2-2.723.3-4.084.156-1.972.326-3.943.483-5.915.109-1.38.2-2.761.308-4.141.052-.681.112-1.361.167-2.041.071-.869.143-1.739.209-2.608.021-.27-.012-.3-.277-.3q-5.33,0-10.66,0a2.42,2.42,0,0,0-1.053.192,2.188,2.188,0,0,0-1.294,1.683c-.119.69-.2,1.387-.3,2.081q-.073.507-.149,1.012c-.115.755-.232,1.51-.345,2.266-.062.419-.114.839-.177,1.257-.11.73-.231,1.46-.337,2.19-.153,1.044-.3,2.089-.445,3.133-.047.331-.1.662-.152.992-.071.455-.148.91-.215,1.366-.107.731-.208,1.463-.313,2.195-.05.344-.1.687-.157,1.03s-.112.711-.164,1.067c-.02.135.046.2.18.207.076,0,.152,0,.228,0Zm23.646-10.338v-10c0-.3-.035-.34-.336-.34q-2.078,0-4.155,0l-8.044,0c-.281,0-.294.018-.315.3-.048.643-.1,1.286-.149,1.929s-.1,1.286-.154,1.928c-.069.838-.144,1.675-.211,2.513-.078.97-.152,1.941-.226,2.911-.077,1.009-.151,2.017-.23,3.026-.07.889-.146,1.777-.216,2.665-.061.775-.116,1.551-.176,2.326-.071.914-.147,1.827-.215,2.741-.024.32,0,.335.316.335l13.735,0c.352,0,.377-.025.377-.378Q-1806.6,338.434-1806.6,333.453Zm1.954-.015h0q0,5,0,10c0,.325.031.356.359.356h13.772c.295,0,.323-.02.3-.31q-.089-1.249-.191-2.5c-.062-.775-.135-1.549-.195-2.324-.108-1.4-.2-2.8-.313-4.2-.111-1.418-.238-2.835-.352-4.252-.123-1.525-.239-3.05-.358-4.575-.06-.762-.123-1.525-.177-2.287-.012-.165-.073-.247-.243-.235-.069,0-.139,0-.209,0h-12.027c-.343,0-.371.027-.371.364Zm23.766,12.3h-6.941c-.247,0-.29.038-.257.25a7.366,7.366,0,0,0,1.148,3.032,7.314,7.314,0,0,0,3.109,2.622,7,7,0,0,0,2.294.6,7.129,7.129,0,0,0,3.6-.6,7.315,7.315,0,0,0,2.12-1.43,7.118,7.118,0,0,0,1.7-2.543,7.417,7.417,0,0,0,.417-1.567c.051-.329.036-.361-.3-.361Zm-32.979,0h-4.951c-.67,0-1.34,0-2.011,0-.232,0-.258.043-.24.27a5.77,5.77,0,0,0,.453,1.75,7.226,7.226,0,0,0,1.558,2.349,7.265,7.265,0,0,0,2.4,1.613,7.658,7.658,0,0,0,1.747.474,7.06,7.06,0,0,0,2.616-.1,6.958,6.958,0,0,0,1.935-.738,7.213,7.213,0,0,0,2.482-2.257,5.83,5.83,0,0,0,.828-1.647c.135-.465.259-.934.354-1.408.058-.288.015-.309-.287-.309Zm16.472,0h-6.923c-.251,0-.282.025-.256.271a6.513,6.513,0,0,0,.365,1.483,6.831,6.831,0,0,0,1.035,1.9,7.3,7.3,0,0,0,2.863,2.262,7.234,7.234,0,0,0,2.239.59,7.036,7.036,0,0,0,2.95-.338,7.068,7.068,0,0,0,1.87-.929,7.049,7.049,0,0,0,3.054-4.95c.035-.252,0-.289-.255-.289Zm-32.963,0v0h-6.865c-.069,0-.14,0-.208,0-.131.012-.188.079-.166.217a7.759,7.759,0,0,0,.86,2.565,7.345,7.345,0,0,0,2.089,2.358,7.006,7.006,0,0,0,2.719,1.223,7.007,7.007,0,0,0,2.635.074,7.642,7.642,0,0,0,2.617-.93,7.084,7.084,0,0,0,2.441-2.353,7.29,7.29,0,0,0,1.048-2.816c.05-.313.033-.339-.285-.339Z" class="color556c26 svgShape"/><path fill="#ffaa17" d="M-1601.847,552.777h5.142a1.186,1.186,0,0,1,1.151.654.974.974,0,0,1,.109.435c-.016,1.15,0,2.3-.085,3.449a9.28,9.28,0,0,1-.652,2.638,11.825,11.825,0,0,1-2.018,3.419,11.919,11.919,0,0,1-2.909,2.482,11.835,11.835,0,0,1-2.446,1.137,12.022,12.022,0,0,1-5.015.527,11.434,11.434,0,0,1-2.636-.586,11.841,11.841,0,0,1-4.131-2.459,11.536,11.536,0,0,1-2.328-2.939,12.432,12.432,0,0,1-.933-2.163,11.152,11.152,0,0,1-.52-4.354,15.129,15.129,0,0,1,.31-2.1,10.078,10.078,0,0,1,.718-2.047,11.859,11.859,0,0,1,1.26-2.127,11.889,11.889,0,0,1,2.143-2.208,11.388,11.388,0,0,1,2.219-1.4,10.708,10.708,0,0,1,1.493-.583,14.912,14.912,0,0,1,1.928-.463,9.477,9.477,0,0,1,2.438-.113c.547.055,1.1.105,1.635.2a8.649,8.649,0,0,1,1.313.353c.569.2,1.13.427,1.68.673a9.5,9.5,0,0,1,2.174,1.4,5.9,5.9,0,0,1,.891.842,1.046,1.046,0,0,1-.106,1.462c-.725.755-1.477,1.485-2.222,2.221a3.981,3.981,0,0,1-.6.539,1.155,1.155,0,0,1-1.43-.171,5.626,5.626,0,0,0-1.393-.968,5.978,5.978,0,0,0-2.728-.6,5.625,5.625,0,0,0-2.208.468,5.9,5.9,0,0,0-2.48,2.012,5.667,5.667,0,0,0-1.023,2.575,5.778,5.778,0,0,0,.2,2.476,5.761,5.761,0,0,0,1.787,2.733,5.8,5.8,0,0,0,1.8,1.055,5.669,5.669,0,0,0,2.607.337,5.764,5.764,0,0,0,4.209-2.429,1.727,1.727,0,0,0,.146-.331,2.087,2.087,0,0,0-.357-.063c-1.391-.006-2.783,0-4.174-.008a1.326,1.326,0,0,1-1.121-.438,1.18,1.18,0,0,1-.248-.777c0-1.189,0-2.378,0-3.567a1.161,1.161,0,0,1,1.239-1.194q2.589,0,5.179,0Zm.012,1.96v0h-4.193c-.255,0-.285.028-.286.283,0,.474,0,.949,0,1.423,0,.338.035.373.365.373q2.485,0,4.97,0a3.3,3.3,0,0,1,.472.033.964.964,0,0,1,.728,1.131,7.489,7.489,0,0,1-1.067,2.243,7.756,7.756,0,0,1-3.086,2.6,8.179,8.179,0,0,1-2.728.732,7.637,7.637,0,0,1-3.545-.538A7.527,7.527,0,0,1-1612.01,562a7.87,7.87,0,0,1-2.2-2.565,5.97,5.97,0,0,1-.672-1.777,13.62,13.62,0,0,1-.222-1.4,7.363,7.363,0,0,1,.086-1.756,7.942,7.942,0,0,1,.749-2.289,7.66,7.66,0,0,1,1.656-2.168,6.859,6.859,0,0,1,1.731-1.206,11.44,11.44,0,0,1,1.609-.591,5.855,5.855,0,0,1,1.261-.233,6.932,6.932,0,0,1,2.226.114,10.745,10.745,0,0,1,1.585.487,12.894,12.894,0,0,1,1.508.854c.156.095.257.109.39-.03.314-.329.642-.643.961-.966s.341-.355-.059-.614a15.409,15.409,0,0,0-1.622-.961,10.139,10.139,0,0,0-1.676-.627,14.5,14.5,0,0,0-1.616-.3,7.866,7.866,0,0,0-2.605.074,10.436,10.436,0,0,0-1.748.477,10.843,10.843,0,0,0-1.593.728,9.291,9.291,0,0,0-2.417,1.956,9.042,9.042,0,0,0-1.537,2.3,12.881,12.881,0,0,0-.556,1.443,8.772,8.772,0,0,0-.336,1.454,8.939,8.939,0,0,0,.1,3.205,13.448,13.448,0,0,0,.446,1.62,9.407,9.407,0,0,0,1.148,2.164,9.873,9.873,0,0,0,4.707,3.629,8.279,8.279,0,0,0,2.808.571,16.74,16.74,0,0,0,2.024-.076,7.685,7.685,0,0,0,2.241-.6c.421-.184.847-.362,1.247-.585a9.641,9.641,0,0,0,1.8-1.309,9.817,9.817,0,0,0,1.819-2.239,7.625,7.625,0,0,0,.812-1.762,13.4,13.4,0,0,0,.467-1.868,21.048,21.048,0,0,0,.106-2.138c.009-.265-.023-.286-.3-.286Z" class="color556c26 svgShape" transform="translate(-185.581 -187.539)"/><path fill="#ffaa17" d="M-1790.449,591.007h-15.406q-2.789,0-5.578-.007a4.888,4.888,0,0,1-1.627-.216,4.282,4.282,0,0,1-1.817-1.22,4.134,4.134,0,0,1-1.023-2.819q-.014-5.019-.007-10.037,0-4.335,0-8.671a1.13,1.13,0,0,1,.349-.924.946.946,0,0,1,1-.17.878.878,0,0,1,.608.815c.008.139.008.278.008.417q0,9.269,0,18.538a2.268,2.268,0,0,0,.94,1.928,2.514,2.514,0,0,0,1.564.42c2.934,0,5.869-.01,8.8-.009,3.092,0,6.185.009,9.277.01q6.052,0,12.1,0,6.232,0,12.464,0a.956.956,0,0,1,.969.524.952.952,0,0,1-.627,1.372,2.9,2.9,0,0,1-.6.049Q-1779.749,591.009-1790.449,591.007Z" class="color556c26 svgShape" transform="translate(-19.951 -206.836)"/></g></svg></svg>