<svg xmlns="http://www.w3.org/2000/svg" xmlns:svgjs="http://svgjs.com/svgjs" xmlns:xlink="http://www.w3.org/1999/xlink" width="288" height="288"><svg xmlns="http://www.w3.org/2000/svg" width="288" height="288" viewBox="0 0 54.447 60.34"><g class="color000 svgShape" transform="translate(-25)"><path fill="#ffaa17" d="M78.563,0H32.955a.884.884,0,0,0-.884.884V46.2H25.884a.884.884,0,0,0-.884.884,6.194,6.194,0,0,0,6.187,6.187h.884v6.187a.884.884,0,0,0,.884.884H78.563a.884.884,0,0,0,.884-.884V.884A.884.884,0,0,0,78.563,0ZM44.445,1.768h1.768V7.955a.884.884,0,0,0,.884.884H64.421a.884.884,0,0,0,.884-.884V1.768h1.768V7.955a2.655,2.655,0,0,1-2.652,2.652H47.1a2.655,2.655,0,0,1-2.652-2.652ZM47.981,5.3H63.537V7.071H47.981ZM63.537,3.536H47.981V1.768H63.537Zm-29.7-1.768h8.839V3.536H36.49a.884.884,0,0,0-.884.884V43.546a.884.884,0,0,0,1.768,0V5.3h5.3V7.955A4.424,4.424,0,0,0,47.1,12.374H64.421a4.424,4.424,0,0,0,4.419-4.419V5.3h5.3V47.082a4.419,4.419,0,1,1-8.839,0,.884.884,0,0,0-.884-.884H33.839Zm-6.982,46.2H63.6A6.177,6.177,0,0,0,65.4,51.5H31.187A4.427,4.427,0,0,1,26.857,47.965ZM77.68,58.572H33.839v-5.3H69.725a6.194,6.194,0,0,0,6.187-6.187V4.419a.884.884,0,0,0-.884-.884H68.841V1.768H77.68Z" class="color556c26 svgShape"/><path fill="#ffaa17" d="M206.282,160.456l4.935-4.861a.884.884,0,0,0-.489-1.5l-6.85-1.032-3.1-6.2a.884.884,0,0,0-1.581,0l-3.1,6.2-6.85,1.032a.884.884,0,0,0-.489,1.5l4.935,4.861-1.136,6.833a.884.884,0,0,0,1.279.929l6.148-3.192,6.148,3.192a.884.884,0,0,0,1.279-.929Zm-1.819-.163.921,5.542-4.986-2.588a.885.885,0,0,0-.815,0l-4.986,2.588.921-5.542a.884.884,0,0,0-.252-.775l-4-3.942,5.556-.837a.884.884,0,0,0,.659-.479l2.513-5.025,2.512,5.025a.884.884,0,0,0,.659.479l5.556.837-4,3.942a.883.883,0,0,0-.252.774Z" class="color556c26 svgShape" transform="translate(-144.231 -129.125)"/></g></svg></svg>