<svg xmlns="http://www.w3.org/2000/svg" xmlns:svgjs="http://svgjs.com/svgjs" xmlns:xlink="http://www.w3.org/1999/xlink" width="288" height="288"><svg xmlns="http://www.w3.org/2000/svg" width="288" height="288" viewBox="0 0 55.882 62.922"><path fill="#ffaa17" d="M289.916,39.745a1.016,1.016,0,0,1-1.015-1.017V23.74a1.015,1.015,0,0,1,2.03,0V38.728A1.016,1.016,0,0,1,289.916,39.745Z" class="color556c26 svgShape" transform="translate(-248.423 -9.236)"/><path fill="#ffaa17" d="M277.3,47.763H267.029a1.015,1.015,0,0,1,0-2.03H277.3a1.015,1.015,0,0,1,0,2.03Z" class="color556c26 svgShape" transform="translate(-261.551 3.961)"/><path fill="#ffaa17" d="M269.865,56.245a1.016,1.016,0,0,1-1.015-1.017V20.847a6.7,6.7,0,0,1,6.7-6.694h30.21a1.016,1.016,0,0,1,0,2.032h-30.21a4.668,4.668,0,0,0-4.664,4.663V55.229A1.016,1.016,0,0,1,269.865,56.245Z" class="color556c26 svgShape" transform="translate(-259.925 -14.153)"/><path fill="#ffaa17" d="M298.593,29.672h-8.677a1.015,1.015,0,0,1-1.015-1.015V19.508a5.353,5.353,0,1,1,10.707,0v9.149A1.015,1.015,0,0,1,298.593,29.672Zm-7.662-2.03h6.645V19.508a3.323,3.323,0,1,0-6.645,0Z" class="color556c26 svgShape" transform="translate(-248.423 -14.153)"/><path fill="#ffaa17" d="M294.323,30.289H272.949a1.016,1.016,0,0,1,0-2.032h21.374a1.016,1.016,0,0,1,0,2.032Z" class="color556c26 svgShape" transform="translate(-258.156 -6.063)"/><path fill="#ffaa17" d="M284.984,52.31a9.051,9.051,0,1,1,6.4-2.648A9.026,9.026,0,0,1,284.984,52.31Zm0-16.07a7.02,7.02,0,1,0,4.966,2.054A7,7,0,0,0,284.984,36.24Z" class="color556c26 svgShape" transform="translate(-255.861 -2.648)"/><path fill="#ffaa17" d="M286.563,58.223a13.384,13.384,0,1,1,9.467-3.917A13.349,13.349,0,0,1,286.563,58.223Zm0-24.737a11.354,11.354,0,1,0,8.032,3.322A11.316,11.316,0,0,0,286.563,33.486Z" class="color556c26 svgShape" transform="translate(-257.441 -4.228)"/><path fill="#ffaa17" d="M297.345,60.664a5.03,5.03,0,0,1-3.567-1.476l-9-9a1.016,1.016,0,0,1,.274-1.632,11.175,11.175,0,0,0,5.231-5.231,1.015,1.015,0,0,1,1.632-.272l9,9a5.043,5.043,0,0,1-3.567,8.611ZM287.169,49.707l8.046,8.046a3.089,3.089,0,0,0,4.263,0,3.017,3.017,0,0,0,0-4.263l-8.046-8.046a13.1,13.1,0,0,1-4.263,4.263Z" class="color556c26 svgShape" transform="translate(-250.959 2.255)"/><path fill="#ffaa17" d="M269.29,53.345h-1.267a4.85,4.85,0,0,1-4.845-4.845V37.017A1.014,1.014,0,0,1,264.193,36h8.925a1.016,1.016,0,0,1,1.017,1.015V48.5A4.851,4.851,0,0,1,269.29,53.345Zm-4.082-15.313V48.5a2.819,2.819,0,0,0,2.815,2.815h1.267A2.818,2.818,0,0,0,272.1,48.5V38.032Z" class="color556c26 svgShape" transform="translate(-263.178 -1.62)"/><path fill="#ffaa17" d="M281.942,45.6a1.016,1.016,0,0,1-.735-.315l-2.634-2.766a1.015,1.015,0,0,1,1.47-1.4l1.813,1.9,4.219-5.556a1.015,1.015,0,1,1,1.618,1.227L282.751,45.2a1.009,1.009,0,0,1-.752.4Z" class="color556c26 svgShape" transform="translate(-254.508 -1.011)"/><path fill="#ffaa17" d="M314.372,54.879H270.595a1.016,1.016,0,0,1,0-2.032h43.777a1.016,1.016,0,0,1,0,2.032Z" class="color556c26 svgShape" transform="translate(-259.506 8.042)"/><path fill="#ffaa17" d="M288.049,23.095h-4.162a1.015,1.015,0,1,1,0-2.03h4.162a1.015,1.015,0,1,1,0,2.03Z" class="color556c26 svgShape" transform="translate(-251.882 -10.188)"/><path fill="#ffaa17" d="M288.049,23.095h-4.162a1.015,1.015,0,1,1,0-2.03h4.162a1.015,1.015,0,1,1,0,2.03Z" class="color556c26 svgShape" transform="translate(-254.066 -10.188)"/><path fill="#ffaa17" d="M288.049,23.095h-4.162a1.015,1.015,0,1,1,0-2.03h4.162a1.015,1.015,0,1,1,0,2.03Z" class="color556c26 svgShape" transform="translate(-257.889 -10.188)"/><path fill="#ffaa17" d="M288.049,23.095h-4.162a1.015,1.015,0,1,1,0-2.03h4.162a1.015,1.015,0,1,1,0,2.03Z" class="color556c26 svgShape" transform="translate(-262.258 -10.188)"/><path fill="#ffaa17" d="M288.049,23.095h-4.162a1.015,1.015,0,1,1,0-2.03h4.162a1.015,1.015,0,1,1,0,2.03Z" class="color556c26 svgShape" transform="translate(-266.081 -10.188)"/><path fill="#ffaa17" d="M288.049,23.095h-4.162a1.015,1.015,0,1,1,0-2.03h4.162a1.015,1.015,0,1,1,0,2.03Z" class="color556c26 svgShape" transform="translate(-269.358 -10.188)"/><path fill="#ffaa17" d="M288.049,20.079h-4.162a1.015,1.015,0,1,1,0-2.03h4.162a1.015,1.015,0,1,1,0,2.03Z" class="color556c26 svgShape" transform="translate(-251.882 -11.918)"/><path fill="#ffaa17" d="M288.049,20.079h-4.162a1.015,1.015,0,1,1,0-2.03h4.162a1.015,1.015,0,1,1,0,2.03Z" class="color556c26 svgShape" transform="translate(-254.066 -11.918)"/><path fill="#ffaa17" d="M288.049,20.079h-4.162a1.015,1.015,0,1,1,0-2.03h4.162a1.015,1.015,0,1,1,0,2.03Z" class="color556c26 svgShape" transform="translate(-257.889 -11.918)"/><path fill="#ffaa17" d="M288.049,20.079h-4.162a1.015,1.015,0,1,1,0-2.03h4.162a1.015,1.015,0,1,1,0,2.03Z" class="color556c26 svgShape" transform="translate(-262.258 -11.918)"/><path fill="#ffaa17" d="M288.049,20.079h-4.162a1.015,1.015,0,1,1,0-2.03h4.162a1.015,1.015,0,1,1,0,2.03Z" class="color556c26 svgShape" transform="translate(-266.081 -11.918)"/><path fill="#ffaa17" d="M288.049,20.079h-4.162a1.015,1.015,0,1,1,0-2.03h4.162a1.015,1.015,0,1,1,0,2.03Z" class="color556c26 svgShape" transform="translate(-269.358 -11.918)"/><path fill="#ffaa17" d="M288.049,26.2h-4.162a1.016,1.016,0,0,1,0-2.032h4.162a1.016,1.016,0,0,1,0,2.032Z" class="color556c26 svgShape" transform="translate(-251.882 -8.409)"/><path fill="#ffaa17" d="M288.049,26.2h-4.162a1.016,1.016,0,0,1,0-2.032h4.162a1.016,1.016,0,0,1,0,2.032Z" class="color556c26 svgShape" transform="translate(-254.066 -8.409)"/><path fill="#ffaa17" d="M288.049,26.2h-4.162a1.016,1.016,0,0,1,0-2.032h4.162a1.016,1.016,0,0,1,0,2.032Z" class="color556c26 svgShape" transform="translate(-257.889 -8.409)"/><path fill="#ffaa17" d="M288.049,26.2h-4.162a1.016,1.016,0,0,1,0-2.032h4.162a1.016,1.016,0,0,1,0,2.032Z" class="color556c26 svgShape" transform="translate(-262.258 -8.409)"/><path fill="#ffaa17" d="M288.049,26.2h-4.162a1.016,1.016,0,0,1,0-2.032h4.162a1.016,1.016,0,0,1,0,2.032Z" class="color556c26 svgShape" transform="translate(-266.081 -8.409)"/><path fill="#ffaa17" d="M288.049,26.2h-4.162a1.016,1.016,0,0,1,0-2.032h4.162a1.016,1.016,0,0,1,0,2.032Z" class="color556c26 svgShape" transform="translate(-269.358 -8.409)"/><path fill="#ffaa17" d="M287.807,52.8a1.015,1.015,0,0,1-.718-1.733l5.7-5.7a1.015,1.015,0,0,1,1.435,1.435l-5.7,5.7A1.012,1.012,0,0,1,287.807,52.8Z" class="color556c26 svgShape" transform="translate(-249.633 3.58)"/></svg></svg>