<svg xmlns="http://www.w3.org/2000/svg" xmlns:svgjs="http://svgjs.com/svgjs" xmlns:xlink="http://www.w3.org/1999/xlink" width="288" height="288"><svg xmlns="http://www.w3.org/2000/svg" width="288" height="288" viewBox="0 0 59 59"><g class="color000 svgShape" transform="translate(0 -.001)"><path fill="#ffaa17" d="M253.094,6.3A19.667,19.667,0,0,0,225.3,5.246l1.672,1.8a17.208,17.208,0,1,1,0,25.24l-1.672,1.8A19.667,19.667,0,0,0,253.094,6.3Z" class="color738942 svgShape" transform="translate(-199.339)"/><path fill="#ffaa17" d="M341.333,42.669v2.458a12.292,12.292,0,0,1,0,24.583v2.458a14.75,14.75,0,1,0,0-29.5Z" class="color738942 svgShape" transform="translate(-302 -37.751)"/><path fill="#ffaa17" d="M299.062,384h-9.833A1.229,1.229,0,0,0,288,385.231v7.375a6.146,6.146,0,1,0,12.292,0v-7.375A1.229,1.229,0,0,0,299.062,384Zm-1.229,8.6a3.687,3.687,0,0,1-7.375,0V386.46h7.375Z" class="color738942 svgShape" transform="translate(-254.813 -339.751)"/><rect width="2.458" height="7.375" fill="#ffaa17" class="color738942 svgShape" transform="translate(35.646 38.106)"/><rect width="2.458" height="7.375" fill="#ffaa17" class="color738942 svgShape" transform="translate(40.562 38.106)"/><rect width="31.958" height="2.458" fill="#ffaa17" class="color738942 svgShape" transform="translate(7.375 4.918)"/><rect width="31.958" height="2.458" fill="#ffaa17" class="color738942 svgShape" transform="translate(7.375 31.96)"/><rect width="4.917" height="2.458" fill="#ffaa17" class="color738942 svgShape" transform="translate(0 4.918)"/><rect width="4.917" height="2.458" fill="#ffaa17" class="color738942 svgShape" transform="translate(0 31.96)"/><path fill="#ffaa17" d="M7.375,103.377H4.917a2.458,2.458,0,0,1,0-4.917H7.375a2.458,2.458,0,0,1,2.458,2.458h2.458A4.917,4.917,0,0,0,7.375,96H4.917a4.917,4.917,0,1,0,0,9.833H7.375a2.458,2.458,0,0,1,0,4.917H4.917a2.458,2.458,0,0,1-2.458-2.458H0a4.917,4.917,0,0,0,4.917,4.917H7.375a4.917,4.917,0,1,0,0-9.833Z" class="color738942 svgShape" transform="translate(0 -84.938)"/><path fill="#ffaa17" d="M150.958,98.46V96H139.9a1.229,1.229,0,0,0-1.229,1.229v14.75a1.229,1.229,0,0,0,1.229,1.229h11.062v-2.458h-9.833V98.46Z" class="color738942 svgShape" transform="translate(-122.687 -84.938)"/><rect width="9.833" height="2.458" fill="#ffaa17" class="color738942 svgShape" transform="translate(17.208 18.439)"/><path fill="#ffaa17" d="M262.146,96A6.146,6.146,0,0,0,256,102.148v4.917a6.146,6.146,0,1,0,12.292,0v-4.917A6.146,6.146,0,0,0,262.146,96Zm3.688,11.062a3.688,3.688,0,0,1-7.375,0v-4.917a3.688,3.688,0,0,1,7.375,0Z" class="color738942 svgShape" transform="translate(-226.5 -84.938)"/><rect width="2.458" height="7.375" fill="#ffaa17" class="color738942 svgShape" transform="translate(45.479 15.981)"/></g></svg></svg>