<svg xmlns="http://www.w3.org/2000/svg" xmlns:svgjs="http://svgjs.com/svgjs" xmlns:xlink="http://www.w3.org/1999/xlink" width="288" height="288"><svg xmlns="http://www.w3.org/2000/svg" width="288" height="288" viewBox="0 0 49.893 49.893"><g class="color000 svgShape"><path fill="#ffaa17" d="M44.047,10.914A5.845,5.845,0,0,0,38.2,16.761V18.71H31.153c2.348-4.016,3.539-7.028,3.539-8.965a9.745,9.745,0,1,0-19.49,0c0,1.938,1.19,4.95,3.539,8.965H11.694V16.761A5.847,5.847,0,1,0,0,16.761v5.457a.974.974,0,1,0,1.949,0V16.761a3.9,3.9,0,0,1,7.8,0V39.692a5.834,5.834,0,0,0-7.8,0V30.014a.974.974,0,0,0-1.949,0V44.047a6.007,6.007,0,0,0,6.125,5.847H44.047a5.853,5.853,0,0,0,5.847-5.847V16.761a5.853,5.853,0,0,0-5.847-5.847Zm-3.9,5.847a3.9,3.9,0,1,1,7.8,0v22.9A5.7,5.7,0,0,0,45.588,38.4a5.88,5.88,0,0,0-5.44,1.289V16.761ZM38.2,30.4H25.726L15.495,20.659h4.427c2.127,3.4,4.223,6.207,4.245,6.236a.975.975,0,0,0,1.561,0c.022-.029,2.118-2.837,4.245-6.236H38.2ZM24.947,1.949a7.8,7.8,0,0,1,7.8,7.8c0,3.618-5.708,11.985-7.8,14.908-2.121-2.97-7.8-11.323-7.8-14.908A7.8,7.8,0,0,1,24.947,1.949Zm-23,42.1a3.9,3.9,0,1,1,7.8,0,.974.974,0,0,0,1.949,0V27.805l9.891,9.42L10.33,47.944h-4.2A4.047,4.047,0,0,1,1.949,44.047ZM23.67,37.931a.974.974,0,0,0,0-1.411L11.694,25.114V20.659h.974l12,11.425a.975.975,0,0,0,.672.269H38.2v3.9H30.794a.974.974,0,0,0-.689.285L18.7,47.944h-5.54ZM44.047,47.945H21.453L31.2,38.2h7v5.847a.974.974,0,0,0,1.949,0A3.908,3.908,0,0,1,45.1,40.285a3.838,3.838,0,0,1,2.844,3.761,3.9,3.9,0,0,1-3.9,3.9Zm0,0" class="color85985a svgShape"/><path fill="#ffaa17" d="M210.872,59.745A4.872,4.872,0,1,0,206,54.872,4.878,4.878,0,0,0,210.872,59.745Zm0-7.8a2.923,2.923,0,1,1-2.923,2.923A2.927,2.927,0,0,1,210.872,51.949Zm0,0" class="color85985a svgShape" transform="translate(-185.926 -45.128)"/><path fill="#ffaa17" d="M.974,259.949A.975.975,0,1,0,0,258.974.975.975,0,0,0,.974,259.949Zm0,0" class="color85985a svgShape" transform="translate(0 -232.858)"/></g></svg></svg>