<svg xmlns="http://www.w3.org/2000/svg" xmlns:svgjs="http://svgjs.com/svgjs" xmlns:xlink="http://www.w3.org/1999/xlink" width="288" height="288"><svg xmlns="http://www.w3.org/2000/svg" width="288" height="288" viewBox="0 0 67.732 63.189"><path fill="#ffaa17" d="M214.507,246.7a15.764,15.764,0,0,1-15.746-15.746V219.466a15.746,15.746,0,1,1,31.493,0v11.487A15.764,15.764,0,0,1,214.507,246.7Zm0-40.8a13.581,13.581,0,0,0-13.566,13.566v11.487a13.567,13.567,0,1,0,27.134,0V219.466A13.582,13.582,0,0,0,214.507,205.9Z" class="color556c26 svgShape" transform="translate(-198.761 -183.51)"/><path fill="#ffaa17" d="M209.68,221.251a3.916,3.916,0,0,1-3.911-3.913v-5.249a3.912,3.912,0,1,1,7.824,0v5.249A3.918,3.918,0,0,1,209.68,221.251Zm0-10.894a1.735,1.735,0,0,0-1.733,1.733v5.249a1.733,1.733,0,1,0,3.465,0v-5.249A1.734,1.734,0,0,0,209.68,210.356Z" class="color556c26 svgShape" transform="translate(-193.934 -180.441)"/><path fill="#ffaa17" d="M211.815,215.639H199.85a1.09,1.09,0,0,1,0-2.18h11.965a1.09,1.09,0,1,1,0,2.18Z" class="color556c26 svgShape" transform="translate(-198.761 -176.802)"/><path fill="#ffaa17" d="M222.088,215.639H210.123a1.09,1.09,0,0,1,0-2.18h11.965a1.09,1.09,0,0,1,0,2.18Z" class="color556c26 svgShape" transform="translate(-191.685 -176.802)"/><path fill="#ffaa17" d="M247.959,216.489a1.089,1.089,0,0,1-1.089-1.089V203.3a9.383,9.383,0,0,0-9.371-9.373H218.991a9.383,9.383,0,0,0-9.371,9.373v9.748a1.09,1.09,0,1,1-2.18,0V203.3a11.564,11.564,0,0,1,11.551-11.551H237.5a11.563,11.563,0,0,1,11.55,11.551v12.1A1.088,1.088,0,0,1,247.959,216.489Z" class="color556c26 svgShape" transform="translate(-192.783 -191.753)"/><path fill="#ffaa17" d="M231.877,211.012a1.09,1.09,0,0,1-1.089-1.091V208.7a1.089,1.089,0,1,1,2.179,0v1.216A1.089,1.089,0,0,1,231.877,211.012Z" class="color556c26 svgShape" transform="translate(-176.701 -180.828)"/><path fill="#ffaa17" d="M236.553,230.221a12.555,12.555,0,1,1,12.556-12.554A12.569,12.569,0,0,1,236.553,230.221Zm0-22.932a10.377,10.377,0,1,0,10.376,10.378A10.39,10.39,0,0,0,236.553,207.288Z" class="color556c26 svgShape" transform="translate(-181.377 -182.553)"/><path fill="#ffaa17" d="M233.193,222.553a4.216,4.216,0,0,1-4.315-4.1,1.089,1.089,0,1,1,2.179,0,2.148,2.148,0,1,0,2.136-1.92,4.105,4.105,0,1,1,4.317-4.1,1.09,1.09,0,0,1-2.18,0,2.149,2.149,0,1,0-2.136,1.918,4.1,4.1,0,1,1,0,8.2Z" class="color556c26 svgShape" transform="translate(-178.017 -180.331)"/><path fill="#ffaa17" d="M231.877,219.023a1.09,1.09,0,0,1-1.089-1.089v-1.38a1.089,1.089,0,1,1,2.179,0v1.38A1.089,1.089,0,0,1,231.877,219.023Z" class="color556c26 svgShape" transform="translate(-176.701 -175.422)"/><path fill="#ffaa17" d="M237.923,199.1H212.75a1.09,1.09,0,0,1,0-2.18h25.173a1.09,1.09,0,1,1,0,2.18Z" class="color556c26 svgShape" transform="translate(-189.876 -188.197)"/><path fill="#ffaa17" d="M253.982,230.059H200.368a1.089,1.089,0,1,1,0-2.179h53.614a1.089,1.089,0,1,1,0,2.179Z" class="color556c26 svgShape" transform="translate(-198.406 -166.869)"/><path fill="#ffaa17" d="M229.164,219.227H199.85a1.09,1.09,0,0,1,0-2.18h29.314a1.09,1.09,0,0,1,0,2.18Z" class="color556c26 svgShape" transform="translate(-198.761 -174.331)"/></svg></svg>