<svg xmlns="http://www.w3.org/2000/svg" xmlns:svgjs="http://svgjs.com/svgjs" xmlns:xlink="http://www.w3.org/1999/xlink" width="288" height="288"><svg xmlns="http://www.w3.org/2000/svg" width="288" height="288" viewBox="0 0 59.576 59.579"><path fill="#ffaa17" d="M29.788 11.919a3.969 3.969 0 0 0-3.42 5.987l-2.041 2.041-1.78-1.78-1.4 1.4 1.78 1.78-1.574 1.574-1.78-1.78-1.4 1.4 1.78 1.78-.787.787 1.4 1.4 7.211-7.211a3.971 3.971 0 1 0 2.011-7.378Zm0 5.957a1.986 1.986 0 1 1 1.986-1.986 1.986 1.986 0 0 1-1.986 1.986Z" class="color85985a svgShape"/><path fill="#ffaa17" d="M55.604 13.905a3.959 3.959 0 0 0-1.045.141L50.43 6.82a3.972 3.972 0 1 0-6.189-.828l-3.854 3.854a16.876 16.876 0 1 0-19.252 25.913L14.81 47.77a3.953 3.953 0 0 0-2.339.159L7.01 40.284a3.97 3.97 0 1 0-1.615 1.155l5.461 7.645a3.972 3.972 0 1 0 5.711-.389l6.511-12.37a16.909 16.909 0 0 0 6.015.261l1.789 3.578a.993.993 0 0 0 1.332.444l1.1-.549 9.487 18.972a.992.992 0 0 0 1.332.444l3.972-1.986a.993.993 0 0 0 .444-1.332l-9.485-18.97 1.1-.549a.993.993 0 0 0 .444-1.332l-1.798-3.589a16.849 16.849 0 0 0 2.682-20.171l4.151-4.151a3.959 3.959 0 0 0 3.061.411l4.131 7.225a3.969 3.969 0 1 0 2.769-1.128ZM1.987 37.731a1.986 1.986 0 1 1 1.986 1.986 1.986 1.986 0 0 1-1.986-1.986Zm11.915 15.89a1.986 1.986 0 1 1 1.985-1.99 1.986 1.986 0 0 1-1.985 1.99Zm17.214-17.437a16.84 16.84 0 0 0 6.163-3.091l1.106 2.212-6.167 3.084Zm15.212 19.971-2.2 1.1-9.036-18.084 2.2-1.1Zm-19.518-21.4a14.894 14.894 0 1 1 14.893-14.893A14.894 14.894 0 0 1 26.81 34.755Zm18.865-30.78a1.986 1.986 0 1 1 1.985 1.986 1.986 1.986 0 0 1-1.985-1.986Zm9.929 15.886a1.986 1.986 0 1 1 1.986-1.986 1.986 1.986 0 0 1-1.986 1.987Z" class="color85985a svgShape"/><path fill="#ffaa17" d="M26.81 6.954a12.908 12.908 0 1 0 12.908 12.908A12.908 12.908 0 0 0 26.81 6.954Zm0 23.83a10.922 10.922 0 1 1 10.922-10.922A10.922 10.922 0 0 1 26.81 30.784Z" class="color85985a svgShape"/></svg></svg>