<svg xmlns="http://www.w3.org/2000/svg" xmlns:svgjs="http://svgjs.com/svgjs" xmlns:xlink="http://www.w3.org/1999/xlink" width="288" height="288"><svg xmlns="http://www.w3.org/2000/svg" width="288" height="288" viewBox="0 0 51.952 52"><g class="color000 svgShape" transform="translate(-93.451 -56.701)"><path fill="#ffaa17" d="M140.3,63.436a.673.673,0,0,0-.55-.215H115.668a11.877,11.877,0,0,0-22.217,5.842,11.877,11.877,0,0,0,22.217,5.866h5.578a.883.883,0,0,0,.575-.239l2.777-2.777.264-.12a.409.409,0,0,1,.263.12l2.155,2.179a.986.986,0,0,0,.5.239.853.853,0,0,0,.647-.215l2.178-2.2.287-.12.239.12,2.2,2.2a.929.929,0,0,0,.551.215,1,1,0,0,0,.575-.215l2.274-2.3.287-.12.239.12,2.2,2.179a.766.766,0,0,0,1.1,0l4.6-4.6a.766.766,0,0,0,0-1.1Zm-.263,8.882-1.652-1.628a1.981,1.981,0,0,0-2.753,0l-1.748,1.748L132.26,70.81a1.98,1.98,0,0,0-2.753,0l-1.628,1.628-1.652-1.628a1.98,1.98,0,0,0-2.753,0l-2.538,2.514h-5.722a.73.73,0,0,0-.694.455,10.319,10.319,0,1,1,0-9.433.746.746,0,0,0,.694.431h24.2l4.07,4.094Z" class="color85985a svgShape" transform="translate(0 11.149)"/><path fill="#ffaa17" d="M99.43,57.443a5.746,5.746,0,1,0,5.1,8.356,5.593,5.593,0,0,0,0-5.219A5.7,5.7,0,0,0,99.43,57.443Zm3.711,7.637a4.142,4.142,0,1,1,0-3.783,4.235,4.235,0,0,1,.455,1.891A4.314,4.314,0,0,1,103.141,65.08Z" class="color85985a svgShape" transform="translate(5.896 17.022)"/><path fill="#ffaa17" d="M144.613,56.7h-50.4a.777.777,0,0,0-.766.79v6.3a.756.756,0,0,0,.766.766h50.4a.777.777,0,0,0,.79-.766v-6.3A.8.8,0,0,0,144.613,56.7Zm-49.582,1.58h42.5V63h-42.5ZM143.823,63h-4.716V58.281h4.716Z" class="color85985a svgShape"/><path fill="#ffaa17" d="M109.031,58.114H95.792a.793.793,0,0,0-.79.766.8.8,0,0,0,.79.814h13.239a.8.8,0,0,0,.79-.814A.793.793,0,0,0,109.031,58.114Z" class="color85985a svgShape" transform="translate(35.582 32.416)"/><path fill="#ffaa17" d="M104.489,59.694a.8.8,0,0,0,.79-.814.793.793,0,0,0-.79-.766H95.176a.771.771,0,0,0-.766.766.783.783,0,0,0,.766.814Z" class="color85985a svgShape" transform="translate(22.001 32.416)"/><path fill="#ffaa17" d="M94.217,59.9h9.433a.778.778,0,1,0,0-1.556H94.217a.778.778,0,0,0,0,1.556Z" class="color85985a svgShape" transform="translate(0 37.715)"/><path fill="#ffaa17" d="M94.043,59.111a.782.782,0,0,0,.79.79H107.4a.778.778,0,1,0,0-1.556H94.833A.777.777,0,0,0,94.043,59.111Z" class="color85985a svgShape" transform="translate(13.581 37.715)"/><path fill="#ffaa17" d="M104.966,58.345H95.557a.778.778,0,1,0,0,1.556h9.409a.778.778,0,1,0,0-1.556Z" class="color85985a svgShape" transform="translate(30.191 37.715)"/><path fill="#ffaa17" d="M100.842,58.345H96.149a.778.778,0,1,0,0,1.556h4.693a.778.778,0,1,0,0-1.556Z" class="color85985a svgShape" transform="translate(43.772 37.715)"/><path fill="#ffaa17" d="M94.217,60.156h7.852a.8.8,0,0,0,.79-.814.793.793,0,0,0-.79-.766H94.217a.771.771,0,0,0-.766.766A.783.783,0,0,0,94.217,60.156Z" class="color85985a svgShape" transform="translate(0 43.015)"/><path fill="#ffaa17" d="M102.6,59.342a.771.771,0,0,0-.766-.766H94.767a.793.793,0,0,0-.79.766.8.8,0,0,0,.79.814h7.063A.783.783,0,0,0,102.6,59.342Z" class="color85985a svgShape" transform="translate(12.067 43.015)"/><path fill="#ffaa17" d="M94.471,59.342a.783.783,0,0,0,.766.814H108.6a.787.787,0,0,0,.79-.814.777.777,0,0,0-.79-.766H95.237A.771.771,0,0,0,94.471,59.342Z" class="color85985a svgShape" transform="translate(23.4 43.015)"/><path fill="#ffaa17" d="M103.847,58.576H95.994a.772.772,0,0,0-.766.766.783.783,0,0,0,.766.814h7.853a.8.8,0,0,0,.79-.814A.793.793,0,0,0,103.847,58.576Z" class="color85985a svgShape" transform="translate(40.766 43.015)"/><path fill="#ffaa17" d="M106.02,58.807h-11.8a.762.762,0,0,0-.766.79.777.777,0,0,0,.766.79h11.8a.777.777,0,0,0,.766-.79A.762.762,0,0,0,106.02,58.807Z" class="color85985a svgShape" transform="translate(0 48.314)"/><path fill="#ffaa17" d="M103.551,58.807H94.932a.767.767,0,0,0-.79.79.782.782,0,0,0,.79.79h8.619a.8.8,0,0,0,.79-.79A.782.782,0,0,0,103.551,58.807Z" class="color85985a svgShape" transform="translate(15.852 48.314)"/><path fill="#ffaa17" d="M105.69,58.807h-10.2a.782.782,0,0,0-.79.79.8.8,0,0,0,.79.79h10.2a.8.8,0,0,0,.79-.79A.782.782,0,0,0,105.69,58.807Z" class="color85985a svgShape" transform="translate(28.676 48.314)"/><path fill="#ffaa17" d="M101.6,58.807H96.116a.782.782,0,0,0-.79.79.8.8,0,0,0,.79.79H101.6a.8.8,0,0,0,.79-.79A.782.782,0,0,0,101.6,58.807Z" class="color85985a svgShape" transform="translate(43.015 48.314)"/></g></svg></svg>