<svg xmlns="http://www.w3.org/2000/svg" xmlns:svgjs="http://svgjs.com/svgjs" xmlns:xlink="http://www.w3.org/1999/xlink" width="288" height="288"><svg xmlns="http://www.w3.org/2000/svg" width="288" height="288" viewBox="0 0 47.001 47"><g class="color000 svgShape" transform="translate(-381.461 -224.03)"><g class="color000 svgShape" transform="translate(381.461 224.03)"><path fill="#ffaa17" d="M401.055,258.419a14.8,14.8,0,0,1,0-29.591.758.758,0,1,1,0,1.516,13.277,13.277,0,1,0,12.615,17.437.758.758,0,0,1,1.44.472,14.809,14.809,0,0,1-14.055,10.166Z" class="color8b9d62 svgShape" transform="translate(-381.951 -224.52)"/><path fill="#ffaa17" d="M403.86,230.4l-.066,0c-.376-.033-.762-.049-1.145-.049a.758.758,0,0,1,0-1.516c.427,0,.856.018,1.277.055a.758.758,0,0,1-.066,1.513Z" class="color8b9d62 svgShape" transform="translate(-383.545 -224.52)"/><path fill="#ffaa17" d="M417.112,245.007a.762.762,0,0,1-.758-.788c.006-.178.01-.355.01-.532a13.215,13.215,0,0,0-.149-1.991.758.758,0,0,1,1.5-.226,14.934,14.934,0,0,1,.166,2.218c0,.2,0,.4-.013.594A.757.757,0,0,1,417.112,245.007Zm-.795-5.261a.758.758,0,0,1-.715-.5,13.317,13.317,0,0,0-1.067-2.291.758.758,0,1,1,1.306-.769,14.789,14.789,0,0,1,1.19,2.552.757.757,0,0,1-.714,1.011Zm-2.7-4.582a.758.758,0,0,1-.568-.257q-.276-.314-.576-.613a13.6,13.6,0,0,0-1.268-1.118.758.758,0,0,1,.929-1.2,14.792,14.792,0,0,1,1.41,1.244q.334.333.641.682a.758.758,0,0,1-.568,1.26Zm-4.207-3.256a.751.751,0,0,1-.341-.082,13.336,13.336,0,0,0-2.354-.919.757.757,0,1,1,.413-1.457,14.782,14.782,0,0,1,2.624,1.023.758.758,0,0,1-.342,1.435Z" class="color8b9d62 svgShape" transform="translate(-383.981 -224.58)"/><path fill="#ffaa17" d="M417.5,250.736a.757.757,0,0,1-.72-.994c.119-.362.224-.733.311-1.1a.758.758,0,0,1,1.475.348c-.1.414-.214.828-.346,1.23A.758.758,0,0,1,417.5,250.736Z" class="color8b9d62 svgShape" transform="translate(-385.06 -226.481)"/><path fill="#ffaa17" d="M400.565,262.237a19.1,19.1,0,1,1,13.515-5.589A19.054,19.054,0,0,1,400.565,262.237Zm0-36.691a17.588,17.588,0,1,0,12.442,5.145A17.541,17.541,0,0,0,400.565,225.546Z" class="color8b9d62 svgShape" transform="translate(-381.461 -224.031)"/><path fill="#ffaa17" d="M427.482,274.283a4.223,4.223,0,0,1-2.995-1.238l-10.921-10.921a.757.757,0,0,1,.11-1.163,17.563,17.563,0,0,0,4.715-4.715.757.757,0,0,1,1.163-.11l10.921,10.921a4.233,4.233,0,0,1-2.994,7.227Zm-12.212-12.6,10.288,10.288a2.72,2.72,0,0,0,3.846-3.846l-10.289-10.288a19.053,19.053,0,0,1-1.783,2.062A19.251,19.251,0,0,1,415.27,261.685Z" class="color8b9d62 svgShape" transform="translate(-384.713 -227.283)"/><path fill="#ffaa17" d="M423.576,268.342a.756.756,0,0,1-.536-.223l-7.212-7.212a.758.758,0,0,1,1.072-1.071l7.212,7.212a.758.758,0,0,1-.536,1.294Z" class="color8b9d62 svgShape" transform="translate(-384.944 -227.661)"/><path fill="#ffaa17" d="M400.565,262.237a19.1,19.1,0,1,1,13.515-5.589A19.054,19.054,0,0,1,400.565,262.237Zm0-36.691a17.588,17.588,0,1,0,12.442,5.145A17.541,17.541,0,0,0,400.565,225.546Z" class="color8b9d62 svgShape" transform="translate(-381.461 -224.031)"/></g><g class="color000 svgShape" transform="translate(391.678 237.132)"><path fill="#ffaa17" d="M409.076,252.294h-14.5a.758.758,0,0,1-.758-.758V239.378a.758.758,0,0,1,.758-.758h14.5a.757.757,0,0,1,.758.758v12.158A.757.757,0,0,1,409.076,252.294Zm-13.744-1.516h12.987V240.136H395.332Z" class="color8b9d62 svgShape" transform="translate(-392.939 -238.62)"/><path fill="#ffaa17" d="M407.861,243.468a2.21,2.21,0,0,1-1.207-.348,2.351,2.351,0,0,1-2.414,0,2.353,2.353,0,0,1-2.414,0,2.351,2.351,0,0,1-2.414,0,2.355,2.355,0,0,1-2.415,0,2.209,2.209,0,0,1-1.206.348,1.814,1.814,0,0,1-1.965-1.665.758.758,0,0,1,1.516-.014.571.571,0,0,0,.449.163.605.605,0,0,0,.441-.154,1.03,1.03,0,0,1,1.531,0,.714.714,0,0,0,.884,0,1.029,1.029,0,0,1,1.53,0,.714.714,0,0,0,.885,0,1.03,1.03,0,0,1,1.529,0,.714.714,0,0,0,.884,0,1.03,1.03,0,0,1,1.531,0,.712.712,0,0,0,.884,0,1.03,1.03,0,0,1,1.529,0,.612.612,0,0,0,.442.153.556.556,0,0,0,.453-.169.748.748,0,0,1,.756-.748.765.765,0,0,1,.756.768A1.814,1.814,0,0,1,407.861,243.468Z" class="color8b9d62 svgShape" transform="translate(-392.94 -238.866)"/><path fill="#ffaa17" d="M401.551,252.92h-3.858a.758.758,0,0,1-.758-.758v-6.644a.758.758,0,0,1,.758-.758h3.858a.758.758,0,0,1,.758.758v6.644A.758.758,0,0,1,401.551,252.92Zm-3.1-1.516h2.342v-5.128h-2.342Z" class="color8b9d62 svgShape" transform="translate(-393.257 -239.246)"/><path fill="#ffaa17" d="M409.853,240.136H393.6a.758.758,0,1,1,0-1.516h16.255a.758.758,0,1,1,0,1.516Z" class="color8b9d62 svgShape" transform="translate(-392.839 -238.62)"/><path fill="#ffaa17" d="M410.142,249.425h-5.025a.758.758,0,0,1-.758-.758v-3.149a.758.758,0,0,1,.758-.758h5.025a.758.758,0,0,1,.758.758v3.149A.758.758,0,0,1,410.142,249.425Zm-4.267-1.516h3.509v-1.633h-3.509Z" class="color8b9d62 svgShape" transform="translate(-394.014 -239.246)"/></g></g></svg></svg>