<svg xmlns="http://www.w3.org/2000/svg" xmlns:svgjs="http://svgjs.com/svgjs" xmlns:xlink="http://www.w3.org/1999/xlink" width="288" height="288"><svg xmlns="http://www.w3.org/2000/svg" width="288" height="288" viewBox="0 0 47 47"><g class="color000 svgShape" transform="translate(-87.972 -47.288)"><path fill="#ffaa17" d="M95.838,72.764l-1.3-.52.693,4.243,3.291-2.706-1.342-.52A26.052,26.052,0,0,0,90.858,47.5a.693.693,0,0,0-1,0,.676.676,0,0,0-.022,1A24.61,24.61,0,0,1,95.838,72.764Z" class="color85985a svgShape" transform="translate(34.285 .005)"/><path fill="#ffaa17" d="M116.191,53.225a24.583,24.583,0,0,1-24.9-2.425L92.2,49.74,88,48.982l1.45,4.005.909-1.082a26.034,26.034,0,0,0,15.392,5.044A26.5,26.5,0,0,0,116.8,54.5a.741.741,0,0,0,.346-.953A.719.719,0,0,0,116.191,53.225Z" class="color85985a svgShape" transform="translate(.661 34.979)"/><path fill="#ffaa17" d="M133.521,85.282,125.6,77.359a.719.719,0,0,0-1.017,0l-.866.866L121.68,76.19A18.586,18.586,0,0,0,119.493,52.7a18.43,18.43,0,1,0-2.641,28.317l2.035,2.013-.866.866a.775.775,0,0,0-.195.52.685.685,0,0,0,.195.5l7.945,7.945a4.933,4.933,0,0,0,3.485,1.429,4.983,4.983,0,0,0,3.507-1.429l.563-.563a4.946,4.946,0,0,0,1.451-3.507A5.023,5.023,0,0,0,133.521,85.282Zm-13.639-3.226-2.446-2.49a.811.811,0,0,0-.931-.065A17.1,17.1,0,0,1,94.38,77.813,17.053,17.053,0,0,1,118.5,53.7a17.186,17.186,0,0,1,1.689,22.147.721.721,0,0,0,.065.931l2.468,2.468-1.407,1.385Zm2.425-.411,1.927-1.905v-.022l.844-.844,2.273,2.273-5.542,5.52-2.273-2.251Zm10.2,9.634-.563.563a3.5,3.5,0,0,1-4.979,0l-4.157-4.157,5.542-5.542L132.5,86.3a3.47,3.47,0,0,1,1.039,2.49A3.507,3.507,0,0,1,132.5,91.279Z" class="color85985a svgShape"/><path fill="#ffaa17" d="M92.132,51.464a13.46,13.46,0,0,0,5.932,22.515l.216.043a12.861,12.861,0,0,0,3.4.455,13.1,13.1,0,0,0,3.4-.455l.216-.043A13.485,13.485,0,1,0,92.132,51.464Zm6.949,21.3V65.861a.739.739,0,0,0-.346-.606,5.665,5.665,0,0,1-2.728-4.849,5.765,5.765,0,0,1,2.23-4.525v5.542a.666.666,0,0,0,.346.606,6,6,0,0,0,6.192,0,.667.667,0,0,0,.346-.606V55.881a5.766,5.766,0,0,1,2.23,4.525,5.665,5.665,0,0,1-2.728,4.849.691.691,0,0,0-.346.606v6.906A12.363,12.363,0,0,1,99.081,72.767Zm11.128-3.247a12.008,12.008,0,0,1-4.5,2.836v-6.1a7.081,7.081,0,0,0,3.074-5.845,7.184,7.184,0,0,0-4.07-6.43.72.72,0,0,0-.693.043.759.759,0,0,0-.325.628v6.365a4.733,4.733,0,0,1-4.048,0V54.647a.708.708,0,0,0-.325-.628.676.676,0,0,0-.671-.043,7.146,7.146,0,0,0-4.07,6.43,7.027,7.027,0,0,0,3.074,5.845v6.1a11.84,11.84,0,0,1-4.5-2.836,12.055,12.055,0,1,1,17.059,0Z" class="color85985a svgShape" transform="translate(4.76 4.765)"/></g></svg></svg>