<svg xmlns="http://www.w3.org/2000/svg" xmlns:svgjs="http://svgjs.com/svgjs" xmlns:xlink="http://www.w3.org/1999/xlink" width="288" height="288"><svg xmlns="http://www.w3.org/2000/svg" width="288" height="288" viewBox="0 0 81 72.772"><g class="color000 svgShape" transform="translate(-503.175 -833.537)"><path fill="#ffaa17" d="M537.511,883.445H507.068a.7.7,0,0,1-.7-.7V845.4h54.938v14.375a1.6,1.6,0,0,0,3.2,0V837.43a3.9,3.9,0,0,0-3.893-3.893H507.068a3.9,3.9,0,0,0-3.893,3.893v45.32a3.9,3.9,0,0,0,3.893,3.893h30.443a1.6,1.6,0,0,0,0-3.2Zm-30.443-46.71h53.546a.7.7,0,0,1,.7.7v4.776H506.372V837.43A.7.7,0,0,1,507.068,836.734Z" class="color85985a svgShape"/><path fill="#ffaa17" d="M572.539,842.324h.534a1.6,1.6,0,1,0,0-3.2h-.534a1.6,1.6,0,0,0,0,3.2Z" class="color85985a svgShape" transform="translate(-14.475 -1.194)"/><path fill="#ffaa17" d="M565.648,842.324h.534a1.6,1.6,0,1,0,0-3.2h-.534a1.6,1.6,0,0,0,0,3.2Z" class="color85985a svgShape" transform="translate(-13.003 -1.194)"/><path fill="#ffaa17" d="M558.757,842.324h.534a1.6,1.6,0,1,0,0-3.2h-.534a1.6,1.6,0,0,0,0,3.2Z" class="color85985a svgShape" transform="translate(-11.531 -1.194)"/><path fill="#ffaa17" d="M569.255,867.891a21.094,21.094,0,0,0-13.852,5.153l-4.217-4.217V860.3a1.6,1.6,0,0,0-3.2,0v5.334l-2.717-2.717v-8.531a1.6,1.6,0,1,0-3.2,0v7.593H534.48a1.6,1.6,0,0,0,0,3.2h8.531l2.718,2.718h-5.334a1.6,1.6,0,1,0,0,3.2h8.532l11.148,11.149h0l4.872,4.872h0l3.179,3.179a1.6,1.6,0,0,0,2.26-2.26l-1.708-1.708a2.893,2.893,0,1,1-2.083,3.978,1.6,1.6,0,0,0-2.937,1.261,6.132,6.132,0,1,0,2.589-7.671l-2.682-2.682a9.729,9.729,0,1,1-3.725,5.28,1.6,1.6,0,0,0-3.076-.872,13.026,13.026,0,1,0,4.519-6.691l-3.618-3.618a17.991,17.991,0,1,1-4.57,5.764,1.6,1.6,0,1,0-2.859-1.432,21.053,21.053,0,0,0-2.244,9.518,21.266,21.266,0,1,0,21.266-21.265Z" class="color85985a svgShape" transform="translate(-6.346 -4.111)"/></g></svg></svg>